<svg xmlns="http://www.w3.org/2000/svg" width="260" height="166" viewBox="0 0 260 166">
  <g id="logo7" transform="translate(-692 -3335)">
    <rect id="Rectangle_17" data-name="Rectangle 17" width="260" height="166" transform="translate(692 3335)" fill="none"/>
    <g id="Abu_Dhabi_Ports" data-name="Abu Dhabi Ports" transform="translate(722 3392.979)">
      <path id="abu-dhabi-ports-logo-vector" d="M45.371,281.139Zm-10.7-.667a21.967,21.967,0,0,0-4,5.534,21.139,21.139,0,0,0,5.534-4,7.294,7.294,0,0,0,2.2-3.734,7.067,7.067,0,0,0-3.734,2.2m3.734-2.2Zm6.968,2.867c-.033.033-1.1.767-.967,4.9.067,1.367.233,9.3.967,10.3h0c.7-1,.9-8.935.967-10.3.133-4.134-.9-4.867-.967-4.9m-7.935,1.834a14.105,14.105,0,0,0,5.434,2.267l.2-1.267a12.886,12.886,0,0,1-4.9-2.034ZM55.206,271.3Zm4.867-.934c-4.1-.167-4.867.9-4.9.967.033.033.767,1.1,4.9.967,1.367-.067,9.3-.233,10.3-.967h0c-.967-.733-8.9-.933-10.3-.967m-.767,3.434-1.267-.2a12.886,12.886,0,0,1-2.034,4.9l1.067.767a15.057,15.057,0,0,0,2.234-5.468m-6.968,4.467a7.067,7.067,0,0,0,2.2,3.734,21.966,21.966,0,0,0,5.534,4,21.138,21.138,0,0,0-4-5.534,7.067,7.067,0,0,0-3.734-2.2m-4.667,5.668.2,1.267a14.319,14.319,0,0,0,5.468-2.2l-.767-1.067a12.5,12.5,0,0,1-4.9,2M33.7,279.305l1.067-.767a13.476,13.476,0,0,1-2-4.9l-1.267.2a13.808,13.808,0,0,0,2.2,5.468m11.669-17.8c.033-.033,1.1-.767.967-4.9-.067-1.367-.233-9.3-.967-10.3h0c-.7,1-.9,8.935-.967,10.3-.133,4.134.933,4.834.967,4.9m7.968-1.834A14.105,14.105,0,0,0,47.9,257.4l-.2,1.3a12.887,12.887,0,0,1,4.9,2.034ZM45.371,261.5Zm10.7.667a21.967,21.967,0,0,0,4-5.534,21.139,21.139,0,0,0-5.534,4,7.067,7.067,0,0,0-2.2,3.734,7.067,7.067,0,0,0,3.734-2.2M58.006,269l1.267-.2a14.107,14.107,0,0,0-2.2-5.468l-1.067.767a13.476,13.476,0,0,1,2,4.9m-22.437,2.334c-.033-.033-.767-1.1-4.9-.967-1.367.067-9.3.233-10.268.967h0c1,.7,8.935.9,10.268.967,4.1.1,4.834-.933,4.9-.967m7.5-12.635-.2-1.3a14.159,14.159,0,0,0-5.468,2.234l.767,1.067a12.017,12.017,0,0,1,4.9-2m-7.5,12.6Zm-4.1-2.5,1.267.2a12.886,12.886,0,0,1,2.034-4.9l-1.067-.767a14.718,14.718,0,0,0-2.234,5.468m6.934-4.467a7.206,7.206,0,0,0-2.2-3.767,21.967,21.967,0,0,0-5.534-4,21.138,21.138,0,0,0,4,5.534,7.128,7.128,0,0,0,3.734,2.234m1,6.968a5.968,5.968,0,1,0,5.968-5.968A5.962,5.962,0,0,0,39.4,271.3m113.085-12.435h-1.834v10.468h1.834Zm3.934,25.871c0,.967-.767,1.434-2.034,1.434h-3.067v-2.9h2.934c1.467,0,2.167.533,2.167,1.434v.033Zm-5.067-5.8h2.667c1.2,0,1.834.5,1.834,1.334v.033c0,.967-.8,1.434-2,1.434h-2.5Zm4.867,3.4a2.464,2.464,0,0,0,1.5-2.367v-.033a2.337,2.337,0,0,0-.7-1.734,3.794,3.794,0,0,0-2.767-.934h-4.734v10.535h4.867c2.367,0,3.9-1,3.9-2.9v-.033a2.6,2.6,0,0,0-2.067-2.534m4.267,5.468h1.834V277.272H160.49Zm-20.1-4.167,1.8-4.2,1.834,4.2Zm.967-6.434-4.634,10.6h1.9l1.067-2.534h5l1.067,2.534h1.934l-4.6-10.6Zm30.172-14.069a3.052,3.052,0,0,1,.5,1.934V269.3h15.036v-8.068h-1.834v6.434h-11.4v-2.6a9,9,0,0,0-.167-1.734,3.892,3.892,0,0,0-.6-1.3,2.921,2.921,0,0,0-1.167-.8,5.329,5.329,0,0,0-1.767-.267c-.433,0-.867.033-1.3.067-.433.067-.867.133-1.334.233l-.133.033v6.334h-1.967a8.435,8.435,0,0,1-2.467-.3,3.57,3.57,0,0,1-1.467-.767,3.382,3.382,0,0,1-.767-1.167,5.51,5.51,0,0,1-.2-1.534,8.654,8.654,0,0,1,.1-1.334c.067-.4.133-.767.2-1.2l.033-.3h-1.9l-.033.1a9.853,9.853,0,0,0-.167,1.267l-.067.4a5.717,5.717,0,0,0-.1,1.234,6,6,0,0,0,.367,2.134,4.018,4.018,0,0,0,1.134,1.634,5.839,5.839,0,0,0,2.034,1.067,10.921,10.921,0,0,0,2.967.367h4.067v-6.7a.74.74,0,0,1,.3-.033c.2,0,.333-.033.467-.033a2.473,2.473,0,0,1,1.634.667M132.952,267.7h-1a2.311,2.311,0,0,1-1.767-.667,2.87,2.87,0,0,1-.6-2,2.324,2.324,0,0,1,.233-1.1,2.618,2.618,0,0,1,.533-.767,1.9,1.9,0,0,1,.7-.433,2.067,2.067,0,0,1,.767-.133h.267l.367.033c.133,0,.233.033.367.033a1.444,1.444,0,0,1,.167.033l-.033,5Zm13.2,0H134.786v-6.434l-.133-.033c-.467-.067-.9-.133-1.334-.167-.4-.033-.867-.067-1.367-.067a5.09,5.09,0,0,0-1.8.333,3.312,3.312,0,0,0-1.367.967,4.957,4.957,0,0,0-.867,1.4,5.469,5.469,0,0,0-.3,1.667,4.361,4.361,0,0,0,.233,1.467,3.631,3.631,0,0,0,.7,1.267,3.958,3.958,0,0,0,1.267.9,4.455,4.455,0,0,0,1.867.333h1.234c-.067,1.6-1.1,2.4-3.067,2.4-.4,0-.767-.033-1.167-.067-.4-.067-.8-.133-1.167-.233l-.2-.033.133,2,.133.033c.3.033.633.067,1,.133.433.033.933.067,1.234.067a5.689,5.689,0,0,0,2.234-.4,4.011,4.011,0,0,0,1.534-1.034,4.442,4.442,0,0,0,.867-1.4,6.7,6.7,0,0,0,.3-1.367h13.236V261.3h-1.834v6.4Zm.733,4.6a1.125,1.125,0,0,0,.3-.733.98.98,0,0,0-.3-.733.957.957,0,0,0-.767-.3,1.113,1.113,0,0,0-.767.3.98.98,0,0,0-.3.733,1.113,1.113,0,0,0,.3.767,1.085,1.085,0,0,0,.767.333,1.2,1.2,0,0,0,.767-.367m70.045,9.4c-2-.5-2.5-.867-2.5-1.667v-.033c0-.7.633-1.267,1.734-1.267a5.094,5.094,0,0,1,2.867,1.067l1-1.4a5.828,5.828,0,0,0-3.834-1.334c-2.1,0-3.6,1.267-3.6,3.067v.033c0,1.934,1.267,2.6,3.5,3.134,1.934.433,2.367.867,2.367,1.6v.033c0,.8-.733,1.334-1.867,1.334a4.9,4.9,0,0,1-3.334-1.367l-1.1,1.334a6.426,6.426,0,0,0,4.4,1.667c2.2,0,3.767-1.167,3.767-3.134v-.033c0-1.7-1.2-2.5-3.4-3.034m-41.007-.833c0,1.1-.867,1.9-2.267,1.9h-2.134v-3.8h2.134c1.4,0,2.267.633,2.267,1.9Zm-2.134-3.6h-4.167v10.535h1.834v-3.4h2.1c2.3,0,4.2-1.234,4.2-3.6v-.033c.067-2.1-1.5-3.5-3.967-3.5m-40.707,4.4h-5.034v-4.367h-1.834V287.84h1.834v-4.434h5.034v4.434h1.834V277.305h-1.834v4.367ZM218.6,265.637a2.279,2.279,0,0,1-2.3,2.434,2.373,2.373,0,0,1-2.334-2.467v-.033a2.279,2.279,0,0,1,2.3-2.434,2.362,2.362,0,0,1,2.334,2.5ZM198.9,267.7h-1a2.311,2.311,0,0,1-1.767-.667,2.87,2.87,0,0,1-.6-2,2.237,2.237,0,0,1,.233-1.1,2.618,2.618,0,0,1,.533-.767,1.9,1.9,0,0,1,.7-.433,2.067,2.067,0,0,1,.767-.133h.267l.367.033c.133,0,.233.033.367.033a1.443,1.443,0,0,1,.167.033l-.033,5Zm17.37-6.168a4.092,4.092,0,0,0-4.167,4v.033h.033l-.033.033v.067a3.75,3.75,0,0,1-.133.967,1.258,1.258,0,0,1-.333.633,1.025,1.025,0,0,1-.5.333,1.744,1.744,0,0,1-.6.1H200.7v-6.434l-.133-.033c-.467-.067-.9-.133-1.334-.167-.4-.033-.867-.067-1.367-.067a5.091,5.091,0,0,0-1.8.333,3.648,3.648,0,0,0-1.367.967,4.957,4.957,0,0,0-.867,1.4,5.469,5.469,0,0,0-.3,1.667,4.361,4.361,0,0,0,.233,1.467,3.632,3.632,0,0,0,.7,1.267,3.958,3.958,0,0,0,1.267.9,4.455,4.455,0,0,0,1.867.333h1.234c-.067,1.6-1.1,2.4-3.067,2.4-.4,0-.767-.033-1.167-.067-.4-.067-.8-.133-1.167-.233l-.2-.033.133,2,.133.033c.3.033.633.067,1,.133.4.033.767.067,1.1.067a6.159,6.159,0,0,0,2.367-.4A4.011,4.011,0,0,0,199.5,272.2a4.442,4.442,0,0,0,.867-1.4,6.7,6.7,0,0,0,.3-1.367h9.768a2.69,2.69,0,0,0,1.6-.5,2.614,2.614,0,0,0,.733-.867,4.225,4.225,0,0,0,7.635-2.334V265.7a4.039,4.039,0,0,0-4.134-4.167m-13.7,17.436H205.9v8.835h1.867v-8.835H211.1v-1.734H202.53v1.734Zm-14.236,3.6a3.554,3.554,0,0,1-3.534,3.7,3.625,3.625,0,0,1-3.6-3.767v-.033a3.554,3.554,0,0,1,3.534-3.7,3.625,3.625,0,0,1,3.6,3.767Zm-3.567-5.468a5.375,5.375,0,0,0-5.5,5.468v.033a5.5,5.5,0,0,0,11-.067v-.033a5.36,5.36,0,0,0-5.5-5.4m4.967-7.8h1.834V256.635h-1.834Zm4.634,13.2v-3.534h2.7c1.367,0,2.2.6,2.2,1.734v.033c0,1.067-.867,1.767-2.167,1.767Zm6.768-1.867h0a3.316,3.316,0,0,0-.867-2.3,4.236,4.236,0,0,0-3.034-1.067h-4.7v10.535h1.834V284.14h2.3l2.6,3.667h2.2l-2.834-4a3.145,3.145,0,0,0,2.5-3.167m-48.441-24h-.733a1.147,1.147,0,0,1-.667-.167.552.552,0,0,1-.167-.433.43.43,0,0,1,.167-.367.994.994,0,0,1,.5-.133h.2c.067,0,.167.033.3.033h.033l.233-.9h-.033a1.9,1.9,0,0,0-.433-.033,1.368,1.368,0,0,0-.367-.033,1.907,1.907,0,0,0-1.2.367,1.1,1.1,0,0,0-.467.967,1.169,1.169,0,0,0,.1.533l.033.033a.033.033,0,0,0,.033.033l.067.133-.133-.033h-.833V257.7h3.434v-1h-.067Zm-58.11,28.1c0,.967-.767,1.434-2.034,1.434H89.478v-2.9h2.934c1.467,0,2.167.533,2.167,1.434v.033Zm-5.1-5.8h2.667c1.2,0,1.834.5,1.834,1.334v.033c0,.967-.8,1.434-2,1.434H89.445l.033-2.8Zm4.867,3.4a2.464,2.464,0,0,0,1.5-2.367v-.033a2.337,2.337,0,0,0-.7-1.734,3.794,3.794,0,0,0-2.767-.934H87.644v10.535h4.9c2.367,0,3.9-1,3.9-2.9v-.033a2.6,2.6,0,0,0-2.1-2.534m-12.135-9.7a.959.959,0,0,0,.833-.433,1.047,1.047,0,0,0,.2-.533.876.876,0,0,0-.3-.8,1,1,0,0,0-.767-.3,1.056,1.056,0,0,0-.767.3,1.046,1.046,0,0,0,0,1.467,1.39,1.39,0,0,0,.8.3m3.267-.333a1.125,1.125,0,0,0,.3-.733.98.98,0,0,0-.3-.733.957.957,0,0,0-.767-.3,1.113,1.113,0,0,0-.767.3.98.98,0,0,0-.3.733,1.113,1.113,0,0,0,.3.767,1.085,1.085,0,0,0,.767.333,1.119,1.119,0,0,0,.767-.367m-6.934,11.335,1.8-4.2,1.834,4.2Zm.967-6.434-4.634,10.6h1.9l1.067-2.534h5l1.067,2.534h1.967l-4.634-10.6Zm40.64-17.136a1.013,1.013,0,0,0,.767-.333,1.125,1.125,0,0,0,.3-.733.98.98,0,0,0-.3-.733,1,1,0,0,0-.767-.3,1.113,1.113,0,0,0-.767.3,1.046,1.046,0,0,0,0,1.467.965.965,0,0,0,.767.333m66.011,0a1.013,1.013,0,0,0,.767-.333,1.125,1.125,0,0,0,.3-.733.98.98,0,0,0-.3-.733,1,1,0,0,0-.767-.3,1.113,1.113,0,0,0-.767.3.872.872,0,0,0-.3.733.98.98,0,0,0,.3.733.965.965,0,0,0,.767.333M124.017,267.7h-6.3a13.912,13.912,0,0,1,.933-2,9.3,9.3,0,0,1,1.2-1.667A6.645,6.645,0,0,1,121.117,263a2.292,2.292,0,0,1,1.134-.333,1.786,1.786,0,0,1,.8.167,1.543,1.543,0,0,1,.533.5,2.849,2.849,0,0,1,.3.8,5.517,5.517,0,0,1,.1,1.067l.033,2.5Zm-1.467-6.734a3.364,3.364,0,0,0-1.667.433,6.843,6.843,0,0,0-1.534,1.1,8.17,8.17,0,0,0-1.267,1.534c-.2.3-.367.6-.533.867,0-.067.033-.167.033-.267a8.353,8.353,0,0,0,.067-1c.033-.4.033-.8.033-1.2v-5.768h-1.834V267.7h-11.4v-6.434h-1.834V267.7H91.178v-2.6a9,9,0,0,0-.167-1.734,3.891,3.891,0,0,0-.6-1.3,2.922,2.922,0,0,0-1.167-.8A5.33,5.33,0,0,0,87.478,261c-.433,0-.867.033-1.3.067-.433.067-.867.133-1.334.233l-.133.033v6.334H82.744a8.435,8.435,0,0,1-2.467-.3,3.217,3.217,0,0,1-1.467-.767,3.382,3.382,0,0,1-.767-1.167,5.511,5.511,0,0,1-.2-1.534,7.922,7.922,0,0,1,.1-1.3v-.067c.067-.367.133-.767.2-1.167l.033-.3h-1.9l-.033.1a9.853,9.853,0,0,0-.167,1.267l-.067.4a5.717,5.717,0,0,0-.1,1.234,6,6,0,0,0,.367,2.134,4.018,4.018,0,0,0,1.134,1.634,5.84,5.84,0,0,0,2.034,1.067,10.923,10.923,0,0,0,2.967.367h4.1v-6.7a.74.74,0,0,1,.3-.033c.2,0,.333-.033.467-.033a1.868,1.868,0,0,1,1.534.6,3.052,3.052,0,0,1,.5,1.934v4.234h36.639v-4.334a4.362,4.362,0,0,0-.9-3,3.529,3.529,0,0,0-2.5-.967m39.073-2.6h-.767a1.147,1.147,0,0,1-.667-.167.552.552,0,0,1-.167-.433.43.43,0,0,1,.167-.367,1.136,1.136,0,0,1,.533-.133h.167c.067,0,.167.033.3.033h.033l.233-.9h-.033a2.052,2.052,0,0,0-.433-.033,1.367,1.367,0,0,0-.367-.033,1.907,1.907,0,0,0-1.2.367,1.1,1.1,0,0,0-.467.967,1.169,1.169,0,0,0,.1.533.033.033,0,0,0,.033.033l.033.033.067.133-.133-.033h-.833v1.067h3.4Zm-39.607,24.2a3.4,3.4,0,0,1-3.634,3.534h-2.067v-7.168h2.067a3.483,3.483,0,0,1,3.634,3.634Zm-3.667-5.3h-3.934v10.535h3.934a5.281,5.281,0,0,0,5.6-5.268v-.033a5.255,5.255,0,0,0-5.6-5.234M104.314,272.3a1.125,1.125,0,0,0,.3-.733.98.98,0,0,0-.3-.733.957.957,0,0,0-.767-.3,1.113,1.113,0,0,0-.767.3.98.98,0,0,0-.3.733,1.113,1.113,0,0,0,.3.767,1.085,1.085,0,0,0,.767.333,1.28,1.28,0,0,0,.767-.367m1.2,11.035c0,1.934-1,2.934-2.667,2.934s-2.667-1.067-2.667-3v-5.968H98.346v6.068c0,3.067,1.734,4.634,4.467,4.634,2.767,0,4.534-1.567,4.534-4.734v-5.968h-1.834Z" transform="translate(-20.4 -246.3)" fill="#86868b"/>
    </g>
  </g>
</svg>
