<svg xmlns="http://www.w3.org/2000/svg" width="260" height="166" viewBox="0 0 260 166">
  <g id="logo4" transform="translate(-1520 -3335)">
    <rect id="Rectangle_17" data-name="Rectangle 17" width="260" height="166" transform="translate(1520 3335)" fill="none"/>
    <g id="Mubadala_Investment_Company" data-name="Mubadala Investment Company" transform="translate(1550 3403.439)">
      <g id="g130">
        <path id="path10" d="M156.918,176.245c-.138,1.812,2.4,1.053,3.077.638a4.212,4.212,0,0,0,1.76-1.664c.837-1.413-.029-2.255-.73-2.342a2,2,0,0,0-1.88,1.237,3.521,3.521,0,0,0-.333,1.911c-1.029.6-1.039-.488-1.022-.913.01-.231.023-.587.064-.877.111-.8-.128-.6-.673-.13a33.514,33.514,0,0,1-6.293,4.1c-3.693,1.9-8.956,3.824-17.2,5.747-9.9,2.312-19.552,1.818-21.062-.71s6.186-6.96,6.7-7.262-.1-.5-.443-.326c0,0-9.172,4.982-7.333,8.527s11.227,3.47,21.169,1.392c16.478-3.446,23.237-9.537,24-10,.395-.239.227.195.191.662" transform="translate(-111.315 -161.611)" fill="#86868b"/>
        <path id="path12" d="M142.739,171.956a18.468,18.468,0,0,0-4.127.848c-.667.208-1.065.485-1.1.738-.025.2.1.276.665.218a59.224,59.224,0,0,1,6.478-.745c2.563,0,4.072.329,4.583.988.592.764-1.648,3.648-9.951,6.479a92.152,92.152,0,0,1-24.821,4.89c-.594.045-.9.32.2.524,1.65.3,10.077.464,21.155-3.042s15.369-7.429,14.184-9.507c-.523-.916-2.86-1.834-7.274-1.39" transform="translate(-105.683 -163.827)" fill="#86868b"/>
        <path id="path14" d="M118.327,172.626a10.825,10.825,0,0,1,10.27-.381,11.107,11.107,0,0,1,5.076,15.61,11.554,11.554,0,0,1-9.682,5.9,32.689,32.689,0,0,1-6.313-.326c-.7-.13-.747.332-.293.469,2,.6,7.611,2.122,12.943-.868,5.842-3.276,7.064-8.632,5.685-14.119-1.518-6.04-7.067-9.325-12.931-9.078-3.308.14-5.053,1.913-5.312,2.591-.152.4.11.509.558.205" transform="translate(-98.899 -168.182)" fill="#86868b"/>
        <path id="path16" d="M119.779,172.236c.528-.574.752-.773,1.008-1.026.166-.165-.391-.535-1.354.03a12.029,12.029,0,0,0-4.147,6.881,11.123,11.123,0,0,0,3.1,9.747c1.435,1.182,1.487.463,1.246.225a11.986,11.986,0,0,1-2.879-5.523,10.1,10.1,0,0,1,.331-6.036,14.921,14.921,0,0,1,2.691-4.3" transform="translate(-103.124 -165.769)" fill="#86868b"/>
        <path id="path18" d="M131.27,175.879A46.332,46.332,0,0,0,117.9,171.37c-.858-.147-1.3.573-.539.713a51.46,51.46,0,0,1,13.841,4.268c.082.037.264.043.326-.061.076-.13-.009-.274-.255-.411" transform="translate(-99.152 -164.88)" fill="#86868b"/>
        <path id="path20" d="M135.618,177.384c-6.512-3.394-14.951-4.8-18.536-5.178-.786-.084-1.159.762-.463.841,8.6.983,14.411,2.713,18.809,4.75.093.044.268.1.365-.028.074-.1.053-.265-.175-.385" transform="translate(-100.692 -163.054)" fill="#86868b"/>
        <path id="path22" d="M116.618,174.07a78.42,78.42,0,0,1,16.606,2.522c.164.047.281-.017.311-.144.025-.111-.051-.244-.267-.309a60.185,60.185,0,0,0-16.557-2.907c-.729,0-1.078.806-.093.838" transform="translate(-101.212 -160.833)" fill="#86868b"/>
        <path id="path24" d="M123.63,170.372l.3-.117h-.005V170.1l0-.1h-.078c-1.455,0-2.976,1.146-4.217,3.178a18.811,18.811,0,0,0-2.372,9.077c-.231,7.817,2.16,14.583,4.988,14.667h.036a1.713,1.713,0,0,0,1.741-1.518c.014-.088.047-.43-.148-.451-.175-.018-.248.175-.344.39a1.149,1.149,0,0,1-1.245.607c-.923-.044-2.021-1.352-2.789-4.163a32.421,32.421,0,0,1-1.212-9.951c.356-7.475,3.346-11.551,5.341-11.461" transform="translate(-98.559 -167.797)" fill="#86868b"/>
        <path id="path26" d="M125.755,194.093s-.039-.315-.211-.311h0c-.146.007-.151.208-.173.336-.081.455-.263.773-.591.851a.744.744,0,0,1-.467-.133c-1.376-.93-3.537-6.2-4.3-12.555-.852-7.093.957-11.636,2.214-11.982l.208-.162h0l-.028-.1a1.036,1.036,0,0,0-.217.094l-.126,0-.03-.1c-2.067.624-3.663,6.285-2.745,13.718.786,6.349,2.827,10.786,4.517,11.9a1.343,1.343,0,0,0,.8.257.939.939,0,0,0,.229-.04,1.557,1.557,0,0,0,.925-1.763" transform="translate(-94.739 -167.731)" fill="#86868b"/>
        <path id="path28" d="M122.094,182.15c-.044-.156-.076-.271-.233-.915-.652-2.678-1.342-6.886-.744-9.971.014-.075.025-.128.03-.16.035-.187-.014-.294-.12-.31a.276.276,0,0,0-.283.257c0,.019-.018.055-.03.111a26.368,26.368,0,0,0,.594,11.257c.249.84.973.39.785-.27" transform="translate(-91.863 -166.082)" fill="#86868b"/>
        <path id="path30" d="M118.194,171.033a.948.948,0,1,0-.9,1,.948.948,0,0,0,.9-1" transform="translate(-100.593 -167.495)" fill="#86868b"/>
        <path id="path32" d="M127.434,175.833a.949.949,0,1,0-.948.949.948.948,0,0,0,.948-.949" transform="translate(-80.721 -157.277)" fill="#86868b"/>
        <path id="path34" d="M119.252,170.482a1.252,1.252,0,1,0-1.183,1.317,1.252,1.252,0,0,0,1.183-1.317" transform="translate(-99.623 -169.297)" fill="#86868b"/>
        <path id="path36" d="M157.33,188.608A5.427,5.427,0,0,0,155.423,186c-.556-.466-1.113-.176-.586.264.547.456,4.089,4.207-.966,4.448-1.621.078-4.885-.2-11.194-1.9-.373-.1-.771-.212-1.185-.334-.485-.141-1-.295-1.53-.465-.767-.24-1.577-.509-2.424-.8-.791-.276-1.614-.571-2.458-.888q-.721-.27-1.464-.561c-.072-.03-.144-.058-.218-.085-.43-.172-.866-.346-1.3-.527q-.266-.108-.532-.221c-1.446-.6-2.942-1.349-4.393-2.048-.44-.207-.874-.421-1.308-.638-1.841-.926-3.634-1.92-5.283-2.964q-.686-.431-1.335-.878c-.872-.6-2.14-1.491-2.9-2.118-5.723-4.743-.091-4.76,5.893-4.02.4.048.8.1,1.2.158l.547-.906c-.314-.048-.618-.093-.918-.136-4.575-.628-7.7-.392-8.994.429-.872.551-2.022,2.115,1.63,5.25a40.805,40.805,0,0,0,3.446,2.622c.466.326.954.648,1.459.974,1.614,1.043,3.41,2.1,5.332,3.119q.655.35,1.33.692c.606.309,1.227.615,1.855.913s1.287.6,1.943.9q.681.3,1.371.595l.141.06q.6.256,1.213.5t1.213.475h0c1.137.437,2.289.843,3.444,1.217q.757.245,1.517.473.793.233,1.586.447c7.139,1.911,11.145,2.119,13.441,1.614a.052.052,0,0,0,.02,0c.14-.025,2.817-.6,2.314-3.036" transform="translate(-107.287 -165.596)" fill="#86868b"/>
        <path id="path38" d="M144.749,184.682h-1.455a.151.151,0,0,1-.151-.151v-4.258c0-1.17.057-2.173.082-3.074,0-.112.054-.36-.015-.374s-.136.157-.153.183c-.247.384-.7,1.1-.963,1.495l-3.716,5.208a.151.151,0,0,1-.246,0l-3.738-5.211c-.266-.392-.7-1.142-.957-1.523-.08-.12-.069-.155-.137-.138s-.02.222-.017.333c.025.9.073,1.846.073,3.018v4.34a.151.151,0,0,1-.151.15h-1.464a.151.151,0,0,1-.151-.15V172.042a.151.151,0,0,1,.274-.088c1.136,1.605,5.463,7.724,6.259,8.888a.149.149,0,0,0,.246,0c.8-1.164,5.123-7.281,6.259-8.887a.15.15,0,0,1,.273.087v12.489a.152.152,0,0,1-.151.151" transform="translate(-67.705 -163.719)" fill="#86868b"/>
        <path id="path40" d="M143.476,184.807c-3.347,0-5.191-1.955-5.191-5.506v-7.125a.223.223,0,0,1,.223-.222h1.314a.222.222,0,0,1,.223.222v7.142c0,2.568,1.123,3.817,3.43,3.817s3.448-1.249,3.448-3.817v-7.142a.222.222,0,0,1,.222-.222h1.315a.222.222,0,0,1,.222.222V179.3c0,3.5-1.9,5.506-5.208,5.506" transform="translate(-53.295 -163.582)" fill="#86868b"/>
        <path id="path42" d="M151.138,177.821a.266.266,0,0,1-.05-.452,2.829,2.829,0,0,0,1.214-2.237c0-1.871-1.521-3.177-3.7-3.177h-4.041a.268.268,0,0,0-.267.267v12.054a.268.268,0,0,0,.267.269h4.321c2.556,0,4.211-1.481,4.211-3.771a3.394,3.394,0,0,0-1.955-2.953m-5.085-4.03a.269.269,0,0,1,.269-.269h2c1.351,0,2.222.688,2.222,1.748a1.994,1.994,0,0,1-2.222,1.785h-2a.27.27,0,0,1-.269-.27Zm2.743,9.185h-2.473a.269.269,0,0,1-.269-.267v-3.925a.267.267,0,0,1,.269-.267h2.385a2.394,2.394,0,0,1,2.572,2.238,2.236,2.236,0,0,1-2.484,2.222" transform="translate(-40.368 -163.582)" fill="#86868b"/>
        <path id="path44" d="M160.215,171.954h-4.666a.2.2,0,0,0-.2.2V184.34a.2.2,0,0,0,.2.2h4.774a6.175,6.175,0,0,0,6.4-6.225,6.294,6.294,0,0,0-6.505-6.364m.107,10.918h-3.013a.2.2,0,0,1-.2-.2v-8.837a.2.2,0,0,1,.2-.2h2.905a4.549,4.549,0,0,1,4.71,4.692,4.436,4.436,0,0,1-4.6,4.554" transform="translate(-16.592 -163.582)" fill="#86868b"/>
        <path id="path46" d="M174.689,184.545h-8.048a.174.174,0,0,1-.174-.174V172.128a.174.174,0,0,1,.174-.174h1.412a.174.174,0,0,1,.174.174V182.7a.173.173,0,0,0,.173.174h6.927a.173.173,0,0,1,.156.249l-.638,1.325a.173.173,0,0,1-.156.1" transform="translate(7.331 -163.582)" fill="#86868b"/>
        <path id="path48" d="M161.918,184.789H160.39a.139.139,0,0,1-.125-.078l-.96-1.944a.141.141,0,0,0-.125-.079h-5.493a.139.139,0,0,1-.125-.2l.671-1.316a.139.139,0,0,1,.124-.076l3.907-.007a.14.14,0,0,0,.125-.2l-2.814-5.708-.02-.051c-.009.019-.023.058-.023.058l-4.709,9.547a.14.14,0,0,1-.125.077h-1.483a.139.139,0,0,1-.125-.2l6.344-12.7a.14.14,0,0,1,.25,0l6.358,12.68a.139.139,0,0,1-.125.2" transform="translate(-30.081 -163.846)" fill="#86868b"/>
        <path id="path50" d="M173.354,184.79h-1.528a.139.139,0,0,1-.125-.078l-.96-1.944a.142.142,0,0,0-.125-.079h-5.492a.139.139,0,0,1-.125-.2l.671-1.316a.139.139,0,0,1,.124-.076l3.907-.007a.14.14,0,0,0,.125-.2l-2.814-5.708-.02-.051c-.007.019-.023.058-.023.058l-4.709,9.546a.14.14,0,0,1-.125.077h-1.483a.139.139,0,0,1-.125-.2l6.343-12.7a.14.14,0,0,1,.251,0l6.358,12.68a.14.14,0,0,1-.125.2" transform="translate(-5.478 -163.846)" fill="#86868b"/>
        <path id="path52" d="M183.5,184.79h-1.528a.138.138,0,0,1-.125-.078l-.96-1.944a.141.141,0,0,0-.125-.079h-5.493a.139.139,0,0,1-.125-.2l.671-1.316a.139.139,0,0,1,.124-.076l3.907-.007a.14.14,0,0,0,.125-.2l-2.814-5.708-.02-.051c-.009.019-.022.058-.022.058l-4.71,9.546a.139.139,0,0,1-.125.077H170.8a.139.139,0,0,1-.125-.2l6.343-12.7a.14.14,0,0,1,.251,0l6.359,12.68a.14.14,0,0,1-.126.2" transform="translate(16.356 -163.846)" fill="#86868b"/>
      </g>
    </g>
  </g>
</svg>
