<svg xmlns="http://www.w3.org/2000/svg" width="260" height="166" viewBox="0 0 260 166">
  <g id="logo5" transform="translate(-1244 -3335)">
    <rect id="Rectangle_17" data-name="Rectangle 17" width="260" height="166" transform="translate(1244 3335)" fill="none"/>
    <g id="Hilton" transform="translate(1274 3375.339)">
      <path id="Path_389" data-name="Path 389" d="M0-384.885v37.115H200V-422H0Zm196.658,0v33.773l-96.605-.035L3.43-351.2l-.053-33.738-.035-33.72H196.658Z" transform="translate(0 422)" fill="#86868b"/>
      <path id="Path_390" data-name="Path 390" d="M98-324.05v.95l.756.123c.4.053,1,.158,1.319.211l.563.088-.035,17.713-.053,17.7-1.266.141L98-286.97v2.076h13.369v-2.076l-1.266-.158-1.284-.141-.053-8.056-.035-8.039h17.59v7.986c0,6.667-.035,8-.246,8.074a10.894,10.894,0,0,1-1.5.229l-1.249.123v2.058h13.72v-2.076l-1.179-.123a11.331,11.331,0,0,1-1.407-.211c-.194-.07-.229-3.237-.229-17.731v-17.643l.7-.106c.387-.053,1.02-.158,1.407-.211l.7-.106V-325H123.33v1.9l.844.106c.457.07,1.126.158,1.5.211l.651.106v15.092H108.73v-15.092l.756-.123c2.076-.317,1.882-.193,1.882-1.249V-325H98Z" transform="translate(-80.762 342.063)" fill="#86868b"/>
      <path id="Path_391" data-name="Path 391" d="M369.112-324.557c-3.659,1.9-2.2,7.423,1.953,7.423a3.778,3.778,0,0,0,3.025-1.39,3.809,3.809,0,0,0-.018-5.136A3.944,3.944,0,0,0,369.112-324.557Z" transform="translate(-302.463 342.112)" fill="#86868b"/>
      <path id="Path_392" data-name="Path 392" d="M457-324.138v.862l1.2.141,1.178.158L459.427-305l.035,17.96-.475.106c-.281.053-.827.141-1.231.193l-.756.123v1.724h12.489v-1.724l-.739-.123c-.422-.053-.967-.141-1.231-.193l-.493-.106V-325H457Z" transform="translate(-376.613 342.063)" fill="#86868b"/>
      <path id="Path_393" data-name="Path 393" d="M552.024-304.792l-3.571,1.073v6.069H543v2.639h5.259l.053,10.677c.07,11.891.07,11.768,1.284,13.456,1.847,2.533,7.37,2.8,13.949.651l1.091-.369v-1.935l-.528.123a21.7,21.7,0,0,1-2.779.123c-3.2.018-4.222-.369-5-1.935l-.4-.827-.053-9.991-.053-9.974h6.7v-2.639h-6.684v-4.134a33.708,33.708,0,0,0-.123-4.116C555.63-305.883,553.976-305.39,552.024-304.792Z" transform="translate(-447.485 326.323)" fill="#86868b"/>
      <path id="Path_394" data-name="Path 394" d="M687.079-263.572a17.926,17.926,0,0,0-7.775,3.131,14.644,14.644,0,0,0-4.714,7.405,26.367,26.367,0,0,0-.281,8.69,12.294,12.294,0,0,0,3.448,7.23c2.287,2.3,5.435,3.43,10.2,3.624,5.031.229,9.147-1.108,12.137-3.923,2.832-2.656,4.151-5.734,4.345-10.079a18.136,18.136,0,0,0-.9-7.071,11.366,11.366,0,0,0-3.184-5.154,9.636,9.636,0,0,0-3.078-2.252,15.315,15.315,0,0,0-7.124-1.618C688.8-263.625,687.414-263.607,687.079-263.572Zm3.166,2.181a5.926,5.926,0,0,1,4.485,3.782c1.108,2.392,1.5,4.714,1.5,9.129,0,8.813-2.146,12.788-6.948,12.806a5.135,5.135,0,0,1-4.081-1.6c-2.234-2.287-3.325-7.6-2.867-13.826.457-6.244,2.34-9.622,5.682-10.29A4.372,4.372,0,0,1,690.246-261.391Z" transform="translate(-555.505 291.47)" fill="#86868b"/>
      <path id="Path_395" data-name="Path 395" d="M882.857-262.652a16.335,16.335,0,0,0-7.212,3.237,9.053,9.053,0,0,1-1.46.967,5.507,5.507,0,0,1-.158-1.847v-1.847H864v1.9l.844.106c.457.07,1.038.158,1.319.211l.475.106v24.028l-1,.106c-1.636.193-1.636.193-1.636,1.179v.862h12.665v-.88c0-.493-.053-.88-.123-.9-.088-.018-.651-.106-1.284-.229l-1.143-.194v-20.4l.879-.58a15.412,15.412,0,0,1,2.287-1.126,6.322,6.322,0,0,1,2.99-.58,4,4,0,0,1,3.465,1.266c1.39,1.46,1.583,3.1,1.513,13.421l-.053,8-1.143.194c-.633.123-1.2.211-1.266.229-.088.018-.141.4-.141.9v.88H895.31v-.862c0-.985,0-.985-1.618-1.161l-1-.123-.053-10.237c-.053-10.132-.07-10.237-.475-11.451a6.97,6.97,0,0,0-2.128-3.483,7.289,7.289,0,0,0-4.116-1.706A7.8,7.8,0,0,0,882.857-262.652Z" transform="translate(-712.021 290.814)" fill="#86868b"/>
      <path id="Path_396" data-name="Path 396" d="M354-258.138v.862l.844.106c.457.07,1.038.158,1.319.211l.475.106-.035,12.067-.053,12.084-1.143.193c-.633.123-1.2.211-1.266.229-.088.018-.141.4-.141.9v.88h12.682l-.053-.809c-.07-.967-.193-1.073-1.583-1.214l-1.02-.106V-259H354Z" transform="translate(-291.731 287.672)" fill="#86868b"/>
    </g>
  </g>
</svg>
