<svg xmlns="http://www.w3.org/2000/svg" width="260" height="166" viewBox="0 0 260 166">
  <g id="logo6" transform="translate(-968 -3335)">
    <rect id="Rectangle_17" data-name="Rectangle 17" width="260" height="166" transform="translate(968 3335)" fill="none"/>
    <g id="AMMROC" transform="translate(999 3392.979)">
      <path id="Path_323" data-name="Path 323" d="M164.988,5.453h19.488V0H164.988Z" transform="translate(13.524)" fill="#86868b" fill-rule="evenodd"/>
      <path id="Path_324" data-name="Path 324" d="M18.708,27.159,15.2,18.59l-3.508,8.569h7.015Zm1.944,5.133H9.6L7.545,37.287H0L11.541,11.579h7.283L30.4,37.287H22.708l-2.056-4.994Zm35.692,4.994-.076-13.625L49.548,34.754H46.261L39.575,24.029V37.287H32.74V11.579h6.088l9.188,14.837L56.98,11.579h6.088l.074,25.708Zm35.859,0-.075-13.625L85.405,34.754H82.118L75.434,24.029V37.287H68.6V11.579h6.087l9.188,14.837,8.964-14.837h6.087L99,37.287Zm26.7-19.228a4.918,4.918,0,0,0-3.387-1.027h-4.048v7.79h4.049a4.986,4.986,0,0,0,3.385-1.006,3.629,3.629,0,0,0,1.14-2.87A3.686,3.686,0,0,0,118.907,18.059Zm-3.767,12.4h-4.045v6.832h-7.417V11.579h11.988a15.2,15.2,0,0,1,6.182,1.158,9.134,9.134,0,0,1,4.047,3.3,8.938,8.938,0,0,1,1.424,5.05,8.811,8.811,0,0,1-1.331,4.867,8.906,8.906,0,0,1-3.8,3.25l5.659,8.08H119.9l-4.76-6.832Zm33.415.453a6.676,6.676,0,0,0,2.524-2.608,7.886,7.886,0,0,0,.928-3.868,7.879,7.879,0,0,0-.928-3.867,6.669,6.669,0,0,0-2.524-2.608,7.32,7.32,0,0,0-7.126,0,6.675,6.675,0,0,0-2.524,2.608,7.886,7.886,0,0,0-.928,3.868,7.879,7.879,0,0,0,.928,3.867,6.661,6.661,0,0,0,2.524,2.608,7.32,7.32,0,0,0,7.126,0m-11.159,5.4a13.366,13.366,0,0,1-5.291-4.87,13.028,13.028,0,0,1-1.924-7,13.028,13.028,0,0,1,1.924-7A13.361,13.361,0,0,1,137.4,12.56a17.271,17.271,0,0,1,15.193,0,13.362,13.362,0,0,1,5.293,4.869,13.049,13.049,0,0,1,1.922,7,13.052,13.052,0,0,1-1.922,7,13.362,13.362,0,0,1-5.293,4.869,17.266,17.266,0,0,1-15.193,0m31.776.018a13.022,13.022,0,0,1-5.156-4.85,13.369,13.369,0,0,1-1.875-7.04,13.364,13.364,0,0,1,1.875-7.041,13.023,13.023,0,0,1,5.156-4.85,15.538,15.538,0,0,1,7.406-1.741,15.941,15.941,0,0,1,6.489,1.271,12.492,12.492,0,0,1,4.8,3.671l-4.725,4.269a7.781,7.781,0,0,0-6.188-3.071,7.68,7.68,0,0,0-3.806.935,6.5,6.5,0,0,0-2.586,2.642,8.09,8.09,0,0,0-.92,3.915,8.1,8.1,0,0,0,.92,3.913,6.485,6.485,0,0,0,2.586,2.64,7.657,7.657,0,0,0,3.806.936,7.776,7.776,0,0,0,6.188-3.071l4.725,4.269a12.5,12.5,0,0,1-4.8,3.671,15.93,15.93,0,0,1-6.489,1.273,15.538,15.538,0,0,1-7.406-1.742" transform="translate(0 0.885)" fill="#86868b" fill-rule="evenodd"/>
    </g>
  </g>
</svg>
