<svg xmlns="http://www.w3.org/2000/svg" width="286.365" height="59.999" viewBox="0 0 286.365 59.999">
  <g id="logo" transform="translate(0.005)">
    <g id="Group_3" data-name="Group 3">
      <path id="Path_2" data-name="Path 2" d="M61.82,23.48H75.76C77.16,10.45,67.1.5,50.41.02c-.27-.01-.52-.02-.8-.02L45.78,6.09c11.08,1.02,17.47,8.22,16.04,17.39" fill="#1d2b5c" fill-rule="evenodd"/>
      <path id="Path_3" data-name="Path 3" d="M21.2,48.04,16.7,58.72a36.651,36.651,0,0,0,8.78,1.26c18.5.54,38.61-10.76,46.78-25.77L59.17,30.77C53.2,41.21,39.13,49,26.16,48.62a26.547,26.547,0,0,1-4.96-.58" fill="#e21e30" fill-rule="evenodd"/>
      <path id="Path_4" data-name="Path 4" d="M8.08,54.66l6.74-9.12c-6.25-3.88-8.6-10.99-5.29-18.98a26.758,26.758,0,0,1,1.77-3.45l-5.96-.16a35.7,35.7,0,0,0-3.23,6.01C-2.29,39.54.4,49.04,8.08,54.66" fill="#1d2b5c" fill-rule="evenodd"/>
      <path id="Path_5" data-name="Path 5" d="M9.05,18.18l4.81,1.43A40.313,40.313,0,0,1,39.55,6.14L42.43.48A57.051,57.051,0,0,0,9.05,18.18" fill="#e21e30" fill-rule="evenodd"/>
      <path id="Path_6" data-name="Path 6" d="M10.75,32.6l7.27-3.34a10.364,10.364,0,0,1,.84-4.71,19.038,19.038,0,0,1,7.88-8.62l-2.42-2.97c-5.54,3.35-10.06,8.08-12.23,13.39a16.76,16.76,0,0,0-1.34,6.25" fill="#e21e30" fill-rule="evenodd"/>
      <path id="Path_7" data-name="Path 7" d="M36.45,44.88l-1.6-8.51a19.885,19.885,0,0,1-6.49.93c-4.65-.14-8.03-2.1-9.51-5.06l-7.47,4.41c1.8,5.5,7.41,9.28,15.47,9.51a30.773,30.773,0,0,0,9.6-1.28" fill="#1d2b5c" fill-rule="evenodd"/>
      <path id="Path_8" data-name="Path 8" d="M40.06,34.05,45.21,41c5.5-3.35,9.97-8.05,12.14-13.34,2.1-5.1,1.66-9.81-.79-13.36l-8.42,3.65a9.239,9.239,0,0,1-.15,7.44,19.138,19.138,0,0,1-7.93,8.66" fill="#e21e30" fill-rule="evenodd"/>
      <path id="Path_9" data-name="Path 9" d="M46.1,15.26l6.65-4.6A19.843,19.843,0,0,0,42.6,7.83,32.67,32.67,0,0,0,29.15,10.5l.49,3.94a21,21,0,0,1,8.85-1.8,11.934,11.934,0,0,1,7.61,2.62" fill="#1d2b5c" fill-rule="evenodd"/>
      <path id="Path_10" data-name="Path 10" d="M33.9,20a6.733,6.733,0,0,0-6.09,3.7c-.87,2.12.45,3.89,2.95,3.97a6.715,6.715,0,0,0,6.09-3.7c.88-2.13-.45-3.9-2.95-3.97m3.37-5.06c-6.38-.19-13.37,4.05-15.59,9.47s1.16,9.96,7.55,10.14S42.6,30.5,44.81,25.08s-1.15-9.96-7.54-10.14" fill="#e21e30" fill-rule="evenodd"/>
    </g>
    <g id="Group_5" data-name="Group 5">
      <g id="Group_4" data-name="Group 4">
        <path id="Path_11" data-name="Path 11" d="M87.65,18.53l4.33.01-.03,19.12,10.8.02-.01,3.8-15.13-.02Z" fill="#1d2b5c"/>
        <path id="Path_12" data-name="Path 12" d="M103.43,31.66V28.33c.01-5.77,3.57-10.04,9.93-10.03s9.87,4.29,9.87,10.06v3.33c-.01,5.8-3.54,10.1-9.9,10.09C106.94,41.77,103.43,37.46,103.43,31.66Zm9.9,6.34c3.86.01,5.47-2.65,5.47-5.77l.01-4.42c0-3.05-1.6-5.75-5.46-5.75-3.89-.01-5.5,2.68-5.5,5.74l-.01,4.42C107.84,35.33,109.44,37.99,113.33,38Z" fill="#1d2b5c"/>
        <path id="Path_13" data-name="Path 13" d="M125.66,31.69V28.36c.01-5.77,3.49-10.04,10.06-10.03,5.97.01,9.29,3.64,9.59,8.48l.05,1.3-4.5-.01-.02-1.83c-.17-2.22-1.88-4.17-5.13-4.17-3.92-.01-5.61,2.63-5.62,5.77l-.01,4.39c0,3.19,1.69,5.78,5.6,5.78,3.3,0,4.98-1.97,5.14-4.18l.03-1.83,4.5.01-.05,1.3c-.31,4.83-3.62,8.49-9.65,8.48C129.12,41.8,125.65,37.49,125.66,31.69Z" fill="#1d2b5c"/>
        <path id="Path_14" data-name="Path 14" d="M153.58,32.06h-.83l-.02,9.5-4.33-.01.03-22.93,4.33.01-.02,9.5h.83l7.42-9.48,5.38.01-9.28,11.45,9.25,11.48-5.38-.01Z" fill="#1d2b5c"/>
        <path id="Path_15" data-name="Path 15" d="M168.4,18.65l15.13.02v3.8l-10.8-.02-.01,5.77,10.02.02v3.77L172.72,32l-.01,5.77,10.8.02-.01,3.8-15.13-.02Z" fill="#1d2b5c"/>
        <path id="Path_16" data-name="Path 16" d="M185.83,31.77V28.44c.01-5.77,3.49-10.04,10.06-10.03,5.97.01,9.29,3.64,9.59,8.48l.05,1.3-4.5-.01-.02-1.83c-.17-2.22-1.88-4.17-5.13-4.17-3.92-.01-5.61,2.63-5.62,5.77l-.01,4.39c0,3.19,1.69,5.78,5.6,5.78,3.3,0,4.98-1.97,5.14-4.18l.03-1.83,4.5.01-.05,1.3c-.31,4.83-3.62,8.49-9.65,8.48C189.3,41.88,185.83,37.58,185.83,31.77Z" fill="#e21e30"/>
        <path id="Path_17" data-name="Path 17" d="M213.45,18.71l5.91.01,7.15,22.94-4.58-.01-1.1-3.8-8.91-.02-1.11,3.8-4.55-.01Zm6.3,15.36L216.6,23.21l-.19-.58-.23.58L213,34.06Z" fill="#e21e30"/>
        <path id="Path_18" data-name="Path 18" d="M241.95,39.62V35.85c0-1.97-1.13-2.75-3.14-2.75l-5.88-.01-.01,8.58-4.33-.01.03-22.93,10.3.02c4.97.01,7.43,2.12,7.43,6.75v.11c0,3.22-1.15,4.91-3.33,5.57,2.25.64,3.33,2.47,3.33,4.89v3.55a4.139,4.139,0,0,0,.33,2.06h-4.39A3.85,3.85,0,0,1,241.95,39.62Zm-3.12-10.18c2.08,0,3.08-.8,3.08-2.99V25.23c0-2-1-2.81-3.18-2.81l-5.77-.01-.01,7.02Z" fill="#e21e30"/>
        <path id="Path_19" data-name="Path 19" d="M249.97,18.76l15.13.02v3.8l-10.8-.02-.01,5.77,10.02.02v3.77l-10.02-.02-.01,5.77,10.8.02-.01,3.8-15.13-.02Z" fill="#e21e30"/>
        <path id="Path_20" data-name="Path 20" d="M274.15,33.7l-7.83-14.92,4.88.01,5.13,10.34,5.15-10.32,4.88.01-7.88,14.9-.01,8.02-4.33-.01Z" fill="#e21e30"/>
      </g>
    </g>
  </g>
</svg>
