<svg xmlns="http://www.w3.org/2000/svg" width="260" height="166" viewBox="0 0 260 166">
  <g id="logo3" transform="translate(-1796 -3335)">
    <rect id="Rectangle_17" data-name="Rectangle 17" width="260" height="166" transform="translate(1796 3335)" fill="none"/>
    <g id="Atkins" transform="translate(1826 3379.907)">
      <g id="g37997">
        <path id="polygon37824" d="M20.414,9.407,32.431,41.732h9.191L25.751.987H15.493L0,41.732H8.631Z" transform="translate(0 -0.066)" fill="#86868b"/>
        <path id="polygon37826" d="M52.564,7.429H41.294L38.827.984H72.742V7.429H60.819v34.3H52.564Z" transform="translate(-2.772 -0.065)" fill="#86868b"/>
        <path id="polygon37828" d="M80.755,41.732V.987h8.26V18.46L104.049.987h9.928l-16.9,19.088,17.594,21.658H104.231l-15.216-19v19Z" transform="translate(-5.765 -0.066)" fill="#86868b"/>
        <rect id="rect37830" width="8.258" height="40.748" transform="translate(113.55 0.921)" fill="#86868b"/>
        <path id="polygon37832" d="M165.254,41.735l-16.38-29.849V41.735H141.3V.987h10.032l16.287,29.8V.987h7.57V41.735Z" transform="translate(-10.088 -0.066)" fill="#86868b"/>
        <path id="path37834" d="M141.553,204.77a18.86,18.86,0,0,0-8.958-2.211c-2.87,0-6.963,1.287-6.963,5.2s4.794,4.958,9.29,6.759c5.422,2.16,9.508,4.963,9.508,11.587,0,8.511-6.958,12.879-15.97,12.879a26.191,26.191,0,0,1-11.651-2.58l1.02-7.405a20.1,20.1,0,0,0,10.491,3.13c4.265,0,7.415-1.661,7.415-5.336s-4.445-5.015-8.9-6.806c-4.737-1.887-9.793-4.282-9.793-11.363,0-8.462,7.617-12.643,15.086-12.643a22.861,22.861,0,0,1,10.3,2.211Z" transform="translate(55.566 -195.976)" fill="#86868b"/>
        <path id="polygon37836" d="M7.078,68.928H7.046l-2.582,5.55H3.653L1.059,68.94H1.007v9.326H0v-10.9H1.469L4.1,72.888h.029l2.6-5.521H8.132v10.9H7.078Z" transform="translate(0 -4.805)" fill="#86868b"/>
        <path id="path37838" d="M-53.437,270.01v-.84a1.617,1.617,0,0,0-1.685-1.833,1.657,1.657,0,0,0-1.661,1.833v.84Zm-4.435,1.835v-2.371a2.721,2.721,0,0,1,2.825-2.966,2.476,2.476,0,0,1,2.629,2.752v1.531h-4.368v1.069c0,1.317.685,1.9,1.966,1.9a3.57,3.57,0,0,0,1.892-.565l.4.72a3.882,3.882,0,0,1-2.457.737,2.572,2.572,0,0,1-2.889-2.813" transform="translate(68.036 -201.012)" fill="#86868b"/>
        <path id="path37840" d="M-49.958,266.693h1.007v1.346h.017A2.565,2.565,0,0,1-46.5,266.5a1.889,1.889,0,0,1,1.894,1.516h.015a2.6,2.6,0,0,1,2.425-1.516,1.879,1.879,0,0,1,1.4.558,1.88,1.88,0,0,1,.54,1.408v5.992h-1.069v-5.671c0-1.056-.521-1.423-1.349-1.423a2.064,2.064,0,0,0-1.912,2v5.106H-45.6v-5.762a1.193,1.193,0,0,0-1.344-1.344,2.1,2.1,0,0,0-1.926,2.093v5.015h-1.084Z" transform="translate(67.471 -201.011)" fill="#86868b"/>
        <path id="path37842" d="M-32.7,271.988v-3.366a1.345,1.345,0,0,0-1.5-1.474,2.109,2.109,0,0,0-1.83,2.263V271.4a2.074,2.074,0,0,0,1.882,2.231c.855,0,1.447-.548,1.447-1.634m-3.408.983h-.029l-.017,1.283H-37.1V263.347h1.071v4.359h.049a2.43,2.43,0,0,1,2.184-1.437,2.094,2.094,0,0,1,2.169,2.292v3.376a2.308,2.308,0,0,1-2.351,2.494,2.292,2.292,0,0,1-2.128-1.474" transform="translate(66.554 -200.786)" fill="#86868b"/>
        <path id="path37844" d="M-24.973,270.01v-.84a1.612,1.612,0,0,0-1.676-1.833,1.659,1.659,0,0,0-1.671,1.833v.84Zm-4.422,1.835v-2.371a2.722,2.722,0,0,1,2.83-2.966,2.478,2.478,0,0,1,2.626,2.752v1.531h-4.376v1.069c0,1.317.693,1.9,1.966,1.9a3.6,3.6,0,0,0,1.892-.565l.4.72a3.889,3.889,0,0,1-2.457.737,2.572,2.572,0,0,1-2.887-2.813" transform="translate(66.004 -201.012)" fill="#86868b"/>
        <path id="path37846" d="M-21.489,266.7h1.012v1.346h.012a2.2,2.2,0,0,1,2.211-1.435,2.581,2.581,0,0,1,.516.047v.958a4.207,4.207,0,0,0-.646-.042,1.9,1.9,0,0,0-2.027,2.017v4.889h-1.076Z" transform="translate(65.439 -201.019)" fill="#86868b"/>
        <path id="path37848" d="M-8.727,271.831v-2.6a1.655,1.655,0,0,0-1.72-1.882c-1.214,0-1.7.887-1.7,1.966v2.538c0,1.194.491,1.941,1.742,1.941s1.681-.855,1.681-1.966m-4.494.029v-2.518a2.621,2.621,0,0,1,2.771-2.83,2.568,2.568,0,0,1,2.8,2.784v2.523a2.584,2.584,0,0,1-2.771,2.843,2.564,2.564,0,0,1-2.8-2.8" transform="translate(64.848 -201.012)" fill="#86868b"/>
        <path id="path37850" d="M-4.589,267.353H-5.781v-.885h1.192v-1.332a1.783,1.783,0,0,1,1.914-1.985,3.563,3.563,0,0,1,.9.108v.87a2.978,2.978,0,0,0-.764-.076c-.568,0-.983.29-.983,1.069v1.346H-1.96v.884H-3.523v6.879H-4.589Z" transform="translate(64.317 -200.772)" fill="#86868b"/>
        <path id="path37852" d="M3.581,272.926v-5.5H2.313v-.855H3.581V264.3H4.652v2.265h2v.855h-2v5.16c0,.627.319.9,1,.9a3.162,3.162,0,0,0,.936-.172v.892a3.933,3.933,0,0,1-1.29.246c-.823,0-1.72-.29-1.72-1.528" transform="translate(63.74 -200.854)" fill="#86868b"/>
        <path id="path37854" d="M8.705,263.35H9.776v4.4h.029a2.486,2.486,0,0,1,2.351-1.474,1.889,1.889,0,0,1,1.966,1.988v5.975H13.054v-5.651c0-1.054-.457-1.45-1.344-1.45a2.133,2.133,0,0,0-1.926,2.138v4.968H8.705Z" transform="translate(63.283 -200.786)" fill="#86868b"/>
        <path id="path37856" d="M21.015,270.01v-.84a1.612,1.612,0,0,0-1.678-1.833,1.66,1.66,0,0,0-1.668,1.833v.84Zm-4.422,1.835v-2.371a2.722,2.722,0,0,1,2.83-2.966,2.475,2.475,0,0,1,2.624,2.752v1.531H17.668v1.069c0,1.317.685,1.9,1.966,1.9a3.594,3.594,0,0,0,1.894-.565l.4.72a3.882,3.882,0,0,1-2.457.737,2.57,2.57,0,0,1-2.884-2.813" transform="translate(62.721 -201.012)" fill="#86868b"/>
        <path id="path37858" d="M26.72,273l.737-.784a3.674,3.674,0,0,0,2.83,1.209,1.881,1.881,0,0,0,2.079-1.882c0-1.206-.835-1.72-1.693-2.135l-1.373-.658a3.031,3.031,0,0,1-2.049-2.752,2.872,2.872,0,0,1,3.1-2.86,3.765,3.765,0,0,1,3.007,1.253l-.717.717a3.141,3.141,0,0,0-2.368-1.01,1.7,1.7,0,0,0-1.865,1.774c0,.887.521,1.391,1.558,1.88l1.268.614c1.427.685,2.28,1.59,2.28,3a3.082,3.082,0,0,1-3.351,3.056A4.445,4.445,0,0,1,26.71,273" transform="translate(61.998 -200.771)" fill="#86868b"/>
        <path id="polygon37860" d="M104.951,67.367H106.1l4.739,8.624h.029V67.367h1.007v10.9h-.99l-4.892-9h-.034v9h-1.007Z" transform="translate(-7.493 -4.805)" fill="#86868b"/>
        <path id="path37862" d="M45.829,271.208v-4.816c0-1.966,1.452-3.238,3.565-3.238,1.951,0,3.253,1.16,3.253,2.764v.835H51.625v-.612a2,2,0,0,0-2.285-2.052,2.186,2.186,0,0,0-2.366,2.356v4.617a2.157,2.157,0,0,0,2.418,2.386c1.435,0,2.233-.813,2.233-1.941v-.72h1.022v.811c0,1.72-1.3,2.813-3.253,2.813-2.054,0-3.565-1.054-3.565-3.211" transform="translate(60.633 -200.772)" fill="#86868b"/>
        <rect id="rect37864" width="3.174" height="0.853" transform="translate(114.729 68.512)" fill="#86868b"/>
        <path id="polygon37866" d="M128.882,67.367h1.13v9.921H134.8v.978h-5.916Z" transform="translate(-9.201 -4.805)" fill="#86868b"/>
        <path id="path37868" d="M72.136,271.891v-1.214H70.817c-.9,0-1.921.29-1.921,1.59a1.378,1.378,0,0,0,1.405,1.545,1.862,1.862,0,0,0,1.835-1.926m-4.341.533a2.575,2.575,0,0,1,2.862-2.474h1.474v-1.329c0-.919-.614-1.332-1.526-1.332-.826,0-1.607.4-1.607,1.228v.445h-.966v-.474c0-1.314,1.206-1.988,2.7-1.988,1.373,0,2.489.626,2.489,2.066v3.931c0,.595.066,1.59.079,1.966H72.32l-.061-1.228h-.029a2.457,2.457,0,0,1-2.28,1.408,2.056,2.056,0,0,1-2.14-2.211" transform="translate(59.065 -201.011)" fill="#86868b"/>
        <path id="polygon37870" d="M143.807,70.725h1.147l1.744,6.331h.012l1.818-6.331h1.007l-2.383,7.8h-1.037Z" transform="translate(-10.267 -5.044)" fill="#86868b"/>
        <path id="path37872" d="M86.471,271.891v-1.214h-1.31c-.907,0-1.931.29-1.931,1.59a1.382,1.382,0,0,0,1.408,1.545,1.86,1.86,0,0,0,1.83-1.926m-4.337.533a2.57,2.57,0,0,1,2.855-2.474h1.474v-1.329c0-.919-.607-1.332-1.523-1.332-.828,0-1.607.4-1.607,1.228v.445h-.966v-.474c0-1.314,1.209-1.988,2.688-1.988,1.373,0,2.494.626,2.494,2.066v3.931c0,.595.059,1.59.071,1.966h-.983l-.061-1.228H86.54a2.437,2.437,0,0,1-2.275,1.408,2.054,2.054,0,0,1-2.138-2.211" transform="translate(58.042 -201.011)" fill="#86868b"/>
        <path id="path37874" d="M90.3,272.721v-9.373h1.071v9.186a.782.782,0,0,0,.9.872,4.374,4.374,0,0,0,.658-.061v.843a3.051,3.051,0,0,1-1.012.147,1.461,1.461,0,0,1-1.617-1.617" transform="translate(57.458 -200.786)" fill="#86868b"/>
        <path id="path37876" d="M94.827,274.261H95.9V266.48H94.827Zm0-9.113H95.9v-1.634H94.827Z" transform="translate(57.135 -200.798)" fill="#86868b"/>
        <path id="path37878" d="M98.4,266.693h1.012v1.314h.012a2.594,2.594,0,0,1,2.432-1.5,1.909,1.909,0,0,1,1.966,1.988v5.975H102.75v-5.683c0-1.042-.5-1.423-1.344-1.423a2.1,2.1,0,0,0-1.921,2.093v5.015H98.4Z" transform="translate(56.88 -201.012)" fill="#86868b"/>
        <path id="path37880" d="M109.308,271.207v-4.754a3.294,3.294,0,0,1,3.56-3.317c1.99,0,3.334,1.16,3.334,2.764v.784H115.16v-.627a2.036,2.036,0,0,0-2.31-1.966,2.271,2.271,0,0,0-2.413,2.418v4.631a2.181,2.181,0,0,0,2.457,2.324c1.693,0,2.287-.936,2.287-2.064v-1.9h-2.275V268.6h3.349v2.934c0,1.7-1.319,2.889-3.381,2.889s-3.56-1.054-3.56-3.211" transform="translate(56.101 -200.771)" fill="#86868b"/>
        <path id="path37882" d="M119.063,266.7h1.015v1.346h.015a2.194,2.194,0,0,1,2.2-1.435,2.583,2.583,0,0,1,.521.047v.958a4.209,4.209,0,0,0-.641-.042,1.912,1.912,0,0,0-2.037,2.017v4.889h-1.071Z" transform="translate(55.405 -201.019)" fill="#86868b"/>
        <path id="path37884" d="M128.862,271.831v-2.6a1.655,1.655,0,0,0-1.72-1.882c-1.214,0-1.7.887-1.7,1.966v2.538c0,1.194.509,1.941,1.742,1.941s1.685-.855,1.685-1.966m-4.5.029v-2.518a2.62,2.62,0,0,1,2.771-2.83,2.568,2.568,0,0,1,2.8,2.784v2.523a2.783,2.783,0,1,1-5.565.042" transform="translate(55.026 -201.012)" fill="#86868b"/>
        <path id="path37886" d="M132.424,272.683v-5.975h1.081v5.651c0,1.042.462,1.437,1.332,1.437a2.081,2.081,0,0,0,1.943-2.123v-4.965h1.071v7.781h-.966l-.047-1.332h-.03a2.555,2.555,0,0,1-2.371,1.518,1.911,1.911,0,0,1-2-1.99" transform="translate(54.451 -201.026)" fill="#86868b"/>
        <path id="path37888" d="M145.063,272.226v-3.332a1.383,1.383,0,0,0-1.5-1.528c-1.025,0-1.835.946-1.835,2.307v1.882a2.079,2.079,0,0,0,1.929,2.29c.811,0,1.408-.518,1.408-1.619m-4.405-5.533h1.007v1.283h.029a2.479,2.479,0,0,1,2.233-1.474,2.11,2.11,0,0,1,2.211,2.246V272.1a2.291,2.291,0,0,1-2.356,2.555,2.142,2.142,0,0,1-2.015-1.378h-.034V277.2h-1.069Z" transform="translate(53.863 -201.011)" fill="#86868b"/>
      </g>
    </g>
  </g>
</svg>
