<svg xmlns="http://www.w3.org/2000/svg" width="260" height="166" viewBox="0 0 260 166">
  <g id="logo8" transform="translate(-416 -3335)">
    <rect id="Rectangle_17" data-name="Rectangle 17" width="260" height="166" transform="translate(416 3335)" fill="none"/>
    <g id="Abu_Dhabi_Department_of_Culture_Tourism" data-name="Abu Dhabi Department of Culture &amp; Tourism" transform="translate(493.71 3368)">
      <path id="Path_397" data-name="Path 397" d="M60.2,477.4h2.14a1.848,1.848,0,0,1,1.86,1.06,7.228,7.228,0,0,1,.32,2.2,5.923,5.923,0,0,1-.42,2.8,2.437,2.437,0,0,1-2.28.9h-1.6m.88-.8h.84c1.22,0,1.68-.46,1.68-2.08v-1.4c0-1.4-.44-1.92-1.36-1.92H61.1Z" transform="translate(-60.2 -396.224)" fill="#86868b"/>
      <path id="Path_398" data-name="Path 398" d="M89.5,484.341V477.4h3.581v.76h-2.7v2.24h2.5v.76h-2.5v2.4h2.761v.78" transform="translate(-83.639 -396.224)" fill="#86868b"/>
      <path id="Path_399" data-name="Path 399" d="M114.1,484.341V477.4h2.06a1.733,1.733,0,0,1,1.94,1.98,1.786,1.786,0,0,1-1.94,1.9H115v3.061m-.02-3.841h.98a1.113,1.113,0,0,0,1.24-1.18,1.014,1.014,0,0,0-.98-1.16H115V480.5Z" transform="translate(-103.318 -396.224)" fill="#86868b"/>
      <path id="Path_400" data-name="Path 400" d="M136.82,477.4h1.12l2.26,6.941h-1l-.5-1.66H136.02l-.52,1.66h-.9m2.761-6.141h-.02l-1.08,3.7h2.22Z" transform="translate(-119.717 -396.224)" fill="#86868b"/>
      <path id="Path_401" data-name="Path 401" d="M168.08,481.061v3.181h-.88V477.3h2.4a1.554,1.554,0,0,1,1.66,1.72A1.478,1.478,0,0,1,170,480.6v.02c.8.12,1.08.4,1.14,1.78a9.308,9.308,0,0,0,.24,1.82h-.92a7.626,7.626,0,0,1-.28-2.3.914.914,0,0,0-1.04-.88m-1.06-.74h1.32c.64,0,.94-.54.94-1.16a.941.941,0,0,0-.94-1.06h-1.34v2.22Z" transform="translate(-145.796 -396.144)" fill="#86868b"/>
      <path id="Path_402" data-name="Path 402" d="M195.241,477.4v.76h-1.82v6.181h-.88V478.16H190.7v-.76" transform="translate(-164.595 -396.224)" fill="#86868b"/>
      <path id="Path_403" data-name="Path 403" d="M218.84,484.341H218V477.4h1.44l1.76,5.821h0l1.78-5.821h1.46v6.941h-.88V478.16h-.02l-1.94,6.181h-.84l-1.9-6.181h-.02" transform="translate(-186.434 -396.224)" fill="#86868b"/>
      <path id="Path_404" data-name="Path 404" d="M258,484.341V477.4h3.581v.76h-2.7v2.24h2.5v.76h-2.5v2.4h2.761v.78" transform="translate(-218.432 -396.224)" fill="#86868b"/>
      <path id="Path_405" data-name="Path 405" d="M287.061,477.4v6.941h-1.22L283.1,478.32h-.02v6.021h-.78V477.4h1.26l2.7,5.941h.02V477.4" transform="translate(-237.871 -396.224)" fill="#86868b"/>
      <path id="Path_406" data-name="Path 406" d="M315.441,477.4v.76H313.6v6.181h-.88V478.16H310.9v-.76" transform="translate(-260.75 -396.224)" fill="#86868b"/>
      <path id="Path_407" data-name="Path 407" d="M348.7,481.241v-2.28a2.182,2.182,0,1,1,4.361,0v2.28c0,1.92-.72,2.68-2.18,2.68-1.48,0-2.18-.76-2.18-2.68m3.461.04V478.94c0-1.46-1-1.5-1.28-1.5s-1.28.04-1.28,1.5v2.341c0,1.52.44,1.9,1.28,1.9s1.28-.4,1.28-1.9" transform="translate(-290.989 -395.664)" fill="#86868b"/>
      <path id="Path_408" data-name="Path 408" d="M377.9,484.341V477.4h3.441v.76H378.78v2.24H381.2v.76H378.78v3.181" transform="translate(-314.347 -396.224)" fill="#86868b"/>
      <path id="Path_409" data-name="Path 409" d="M412.941,478.66a1.66,1.66,0,0,0-.2-1,1.167,1.167,0,0,0-.78-.3,1.1,1.1,0,0,0-1.06.54c-.02.08-.2.24-.2,1.44v1.86c0,1.7.56,1.9,1.24,1.9.26,0,1.08-.1,1.1-1.46h.92c.04,2.2-1.5,2.2-1.96,2.2-.86,0-2.2-.06-2.2-2.76v-1.96c0-1.96.86-2.521,2.241-2.521s1.9.72,1.82,2.06" transform="translate(-339.866 -395.584)" fill="#86868b"/>
      <path id="Path_410" data-name="Path 410" d="M436.8,477.4h.88v4.441c0,1.52.46,1.9,1.3,1.9s1.3-.38,1.3-1.9V477.4h.88v4.4c0,1.92-.72,2.681-2.18,2.681-1.48,0-2.18-.76-2.18-2.681" transform="translate(-361.465 -396.224)" fill="#86868b"/>
      <path id="Path_411" data-name="Path 411" d="M466.3,484.341V477.4h.88v6.161h2.561v.78" transform="translate(-385.064 -396.224)" fill="#86868b"/>
      <path id="Path_412" data-name="Path 412" d="M486.041,477.4v.76h-1.82v6.181h-.88V478.16H481.5v-.76" transform="translate(-397.223 -396.224)" fill="#86868b"/>
      <path id="Path_413" data-name="Path 413" d="M508.6,477.4h.88v4.441c0,1.52.46,1.9,1.3,1.9s1.3-.38,1.3-1.9V477.4h.88v4.4c0,1.92-.72,2.681-2.18,2.681-1.48,0-2.18-.76-2.18-2.681" transform="translate(-418.902 -396.224)" fill="#86868b"/>
      <path id="Path_414" data-name="Path 414" d="M538.98,481.141v3.2h-.88V477.4h2.4a1.554,1.554,0,0,1,1.66,1.72,1.494,1.494,0,0,1-1.26,1.58v.02c.8.12,1.08.4,1.14,1.78a9.305,9.305,0,0,0,.24,1.82h-.92a7.627,7.627,0,0,1-.28-2.3.906.906,0,0,0-1.04-.88m-1.06-.76h1.32c.64,0,.94-.54.94-1.16a.953.953,0,0,0-.94-1.06h-1.34v2.22Z" transform="translate(-442.501 -396.224)" fill="#86868b"/>
      <path id="Path_415" data-name="Path 415" d="M564.9,484.341V477.4h3.581v.76h-2.7v2.24h2.5v.76h-2.5v2.4h2.741v.78" transform="translate(-463.94 -396.224)" fill="#86868b"/>
      <path id="Path_416" data-name="Path 416" d="M180.6,536.1h1.12l2.26,6.941H183l-.5-1.66H179.82l-.52,1.66h-.9m2.741-6.141h-.02l-1.08,3.7h2.22Z" transform="translate(-154.755 -443.182)" fill="#86868b"/>
      <path id="Path_417" data-name="Path 417" d="M215.961,536v6.961h-1.2l-2.741-6.021h-.04v6.021h-.78V536h1.26l2.7,5.961h.02V536" transform="translate(-180.994 -443.102)" fill="#86868b"/>
      <path id="Path_418" data-name="Path 418" d="M243.1,536h2.14a1.847,1.847,0,0,1,1.86,1.06,7.227,7.227,0,0,1,.32,2.2,5.924,5.924,0,0,1-.42,2.8c-.38.6-1.08.9-2.3.9h-1.6m.88-.78h.84c1.22,0,1.68-.46,1.68-2.08v-1.4c0-1.4-.44-1.92-1.36-1.92h-1.16Z" transform="translate(-206.513 -443.102)" fill="#86868b"/>
      <path id="Path_419" data-name="Path 419" d="M284.341,536v.78h-1.82v6.181h-.88V536.78H279.8V536" transform="translate(-235.871 -443.102)" fill="#86868b"/>
      <path id="Path_420" data-name="Path 420" d="M307,539.941v-2.28a2.182,2.182,0,1,1,4.361,0v2.28c0,1.92-.72,2.681-2.18,2.681-1.48,0-2.18-.76-2.18-2.681m3.461.04v-2.34c0-1.46-1-1.5-1.28-1.5s-1.28.04-1.28,1.5v2.34c0,1.52.44,1.9,1.28,1.9s1.28-.4,1.28-1.9" transform="translate(-257.63 -442.622)" fill="#86868b"/>
      <path id="Path_421" data-name="Path 421" d="M336.3,536h.88v4.441c0,1.52.46,1.9,1.3,1.9s1.3-.38,1.3-1.9V536h.88v4.4c0,1.92-.72,2.681-2.18,2.681-1.48,0-2.18-.76-2.18-2.681" transform="translate(-281.069 -443.102)" fill="#86868b"/>
      <path id="Path_422" data-name="Path 422" d="M366.68,539.761v3.181h-.88V536h2.4a1.554,1.554,0,0,1,1.66,1.72,1.494,1.494,0,0,1-1.26,1.58v.02c.8.12,1.08.4,1.14,1.8a9.308,9.308,0,0,0,.24,1.82h-.92a7.629,7.629,0,0,1-.28-2.3.894.894,0,0,0-1.04-.88m-1.06-.78H368c.64,0,.94-.54.94-1.16a.953.953,0,0,0-.94-1.06h-1.34v2.22Z" transform="translate(-304.668 -443.102)" fill="#86868b"/>
      <rect id="Rectangle_103" data-name="Rectangle 103" width="0.88" height="6.941" transform="translate(66.593 92.919)" fill="#86868b"/>
      <path id="Path_423" data-name="Path 423" d="M405.767,540.321v.2a1.1,1.1,0,0,0,1.16,1.24c.7,0,1.24-.3,1.24-1.12,0-1.54-3.121-1.36-3.121-3.461a1.84,1.84,0,0,1,2.04-1.88,1.707,1.707,0,0,1,1.92,2.02h-.9c0-.76-.24-1.26-1.08-1.26a.962.962,0,0,0-1.06,1.02c0,1.54,3.121,1.32,3.121,3.521,0,1.46-1.02,1.94-2.16,1.94-2.06.02-2.06-1.54-2.04-2.22" transform="translate(-335.933 -442.542)" fill="#86868b"/>
      <path id="Path_424" data-name="Path 424" d="M433.52,543.041h-.82V536.1h1.44l1.74,5.821h.02l1.76-5.821h1.46v6.941h-.88V536.86h-.02l-1.94,6.181h-.84l-1.9-6.181h-.02" transform="translate(-358.185 -443.182)" fill="#86868b"/>
      <path id="Path_425" data-name="Path 425" d="M64.181,410.5l.2.22h.54v.84h-.64a.919.919,0,0,1-.68-.28,1.072,1.072,0,0,1-.26-.8l-.02-3.561c-.2.1-.44.22-.7.36a4.512,4.512,0,0,0-.74.52,2.959,2.959,0,0,0-.58.72,1.754,1.754,0,0,0-.24.92,1.071,1.071,0,0,0,.44,1,3.408,3.408,0,0,0,1.38.36l-.06.84a3.834,3.834,0,0,1-1.34-.28,2.793,2.793,0,0,1-.8-.54,2.1,2.1,0,0,1-.38-.68,2.976,2.976,0,0,1-.1-.72,2.581,2.581,0,0,1,.48-1.56,4.583,4.583,0,0,1,1.12-1.12,7.029,7.029,0,0,1,1.3-.72,10.449,10.449,0,0,1,1.08-.38m-1.88-1.3-.16.4-.4.16-.4-.16-.16-.4.16-.38.4-.16.4.16.16.38m1.84,0-.16.4-.4.16-.38-.16-.16-.4.16-.38.38-.16.4.16.16.38" transform="translate(-60.2 -337.347)" fill="#86868b"/>
      <path id="Path_426" data-name="Path 426" d="M83.661,439.34h-2.2l-.4-.16-.16-.26.16-.28.4-.14h2.2" transform="translate(-76.759 -365.105)" fill="#86868b"/>
      <path id="Path_427" data-name="Path 427" d="M92.46,420.221l-.4-.14-.16-.28.16-.28.4-.14h4.261a2.74,2.74,0,0,1-.26-.86c-.06-.36-.1-.8-.14-1.36a3.169,3.169,0,0,0-.2-.94,1.244,1.244,0,0,0-.36-.5l-.44-.24-.48-.04a2.339,2.339,0,0,0-1.18.38l-.52-.66a3.228,3.228,0,0,1,.74-.4,2.55,2.55,0,0,1,.96-.16,2.084,2.084,0,0,1,1.64.62,3.179,3.179,0,0,1,.68,1.88c.06.74.14,1.26.2,1.6.06.32.2.52.42.58l.46.14-.02.82" transform="translate(-85.559 -345.986)" fill="#86868b"/>
      <path id="Path_428" data-name="Path 428" d="M129.4,408.542V400h.84v7.7h.74v.84" transform="translate(-115.557 -334.307)" fill="#86868b"/>
      <path id="Path_429" data-name="Path 429" d="M136.42,439.34h-1.44l-.42-.16-.16-.26.16-.28.42-.14h1.44" transform="translate(-119.557 -365.105)" fill="#86868b"/>
      <path id="Path_430" data-name="Path 430" d="M142.26,422.7l-.4-.14-.16-.28.16-.28.4-.14h2.2V417.7h.84v4.161h.74v.84M143.2,425l-.38-.16-.16-.4.16-.4.38-.16.4.16.16.4-.16.4-.4.16m1.66,0-.38-.16-.16-.4.16-.4.38-.16.4.16.16.4-.16.4-.4.16" transform="translate(-125.397 -348.466)" fill="#86868b"/>
      <path id="Path_431" data-name="Path 431" d="M162.96,439.34h-1.78l-.4-.16-.18-.26.18-.28.4-.14h1.78" transform="translate(-140.516 -365.105)" fill="#86868b"/>
      <path id="Path_432" data-name="Path 432" d="M176.921,421.621v.84H170.06l-.4-.14-.16-.28.16-.28.4-.14h.22c.36,0,.58-.04.64-.12l.1-.4v-3.7h.84v4.221h1.36V417.4h.84v4.221h1.22V417.4h.88v4.221" transform="translate(-147.636 -348.226)" fill="#86868b"/>
      <path id="Path_433" data-name="Path 433" d="M207.3,439.34H204.36l-.4-.14-.16-.28.16-.28.4-.14H207.3" transform="translate(-175.074 -365.105)" fill="#86868b"/>
      <path id="Path_434" data-name="Path 434" d="M219.7,399.7h.84v8.6h-1.56l-.42-.16-.16-.26.16-.28.42-.14h.72" transform="translate(-186.754 -334.067)" fill="#86868b"/>
      <rect id="Rectangle_104" data-name="Rectangle 104" width="0.84" height="8.542" transform="translate(35.107 65.693)" fill="#86868b"/>
      <path id="Path_435" data-name="Path 435" d="M249.381,420.641a6.956,6.956,0,0,1-.08,1.14,3.518,3.518,0,0,1-.3.98,2.008,2.008,0,0,1-.66.7,2.088,2.088,0,0,1-1.14.28v-.86a1.4,1.4,0,0,0,.78-.2,1.2,1.2,0,0,0,.4-.54,2.98,2.98,0,0,0,.16-.8c.02-.3.02-.62.02-.94v-.18h-.46a3.319,3.319,0,0,1-2.06-.58,1.925,1.925,0,0,1-.74-1.56,2.8,2.8,0,0,1,.3-1.28,3.287,3.287,0,0,1,.84-1.06,4.367,4.367,0,0,1,1.3-.76,5.968,5.968,0,0,1,1.64-.38m-.84,4.781V415.6a3.669,3.669,0,0,0-1.72.94,1.984,1.984,0,0,0-.64,1.5,1.121,1.121,0,0,0,.5.98,2.638,2.638,0,0,0,1.56.36Z" transform="translate(-208.273 -345.987)" fill="#86868b"/>
      <path id="Path_436" data-name="Path 436" d="M288.381,410.5l.2.22h.54v.84h-.66a.919.919,0,0,1-.68-.28,1.162,1.162,0,0,1-.26-.8l-.02-3.561c-.2.1-.42.22-.68.36a4.513,4.513,0,0,0-.74.52,2.959,2.959,0,0,0-.58.72,1.754,1.754,0,0,0-.24.92,1.071,1.071,0,0,0,.44,1,3.113,3.113,0,0,0,1.38.36l-.06.84a3.834,3.834,0,0,1-1.34-.28,2.792,2.792,0,0,1-.8-.54,2.1,2.1,0,0,1-.38-.68,2.973,2.973,0,0,1-.1-.72,2.624,2.624,0,0,1,.48-1.56,4.584,4.584,0,0,1,1.12-1.12,6.579,6.579,0,0,1,1.32-.72,10.452,10.452,0,0,1,1.08-.38m-1.88-1.3-.16.4-.4.16-.4-.16-.16-.4.16-.38.4-.16.4.16.16.38m1.82,0-.16.4-.4.16-.4-.16-.16-.4.16-.38.4-.16.4.16.16.38" transform="translate(-239.551 -337.347)" fill="#86868b"/>
      <path id="Path_437" data-name="Path 437" d="M307.861,439.34h-2.18l-.42-.14-.16-.28.16-.28.42-.14h2.18" transform="translate(-256.11 -365.105)" fill="#86868b"/>
      <path id="Path_438" data-name="Path 438" d="M316.66,410.542l-.4-.14-.16-.28.16-.28.4-.14h1.62a2.338,2.338,0,0,1-1.06-2.04,2.467,2.467,0,0,1,.24-1.1,2.237,2.237,0,0,1,.68-.82,2.958,2.958,0,0,1,1.04-.5,4.625,4.625,0,0,1,1.34-.18l.48.02.52.06v5.381m-3.441-2.841a1.63,1.63,0,0,0,.64,1.32,3.994,3.994,0,0,0,1.96.7v-3.8h-.16a4.367,4.367,0,0,0-.88.08,2.749,2.749,0,0,0-.78.26,1.805,1.805,0,0,0-.56.54,1.585,1.585,0,0,0-.22.9m2.641-4.621-.16.38-.4.16-.4-.16-.16-.38.16-.4.4-.16.4.16.16.4" transform="translate(-264.91 -336.307)" fill="#86868b"/>
      <path id="Path_439" data-name="Path 439" d="M349.7,408.542V400h.86v7.7h.72v.84" transform="translate(-291.789 -334.307)" fill="#86868b"/>
      <path id="Path_440" data-name="Path 440" d="M358.3,439.34H355.36l-.4-.14-.16-.28.16-.28.4-.14H358.3" transform="translate(-295.868 -365.105)" fill="#86868b"/>
      <path id="Path_441" data-name="Path 441" d="M370.06,412.141l-.4-.14-.16-.28.16-.28.4-.14h1.16a2.908,2.908,0,0,1-.44-.86,3.537,3.537,0,0,1-.16-1.04,3.812,3.812,0,0,1,.16-1.08,2.854,2.854,0,0,1,.48-.88,2.2,2.2,0,0,1,.7-.6,1.791,1.791,0,0,1,1.72,0,2.2,2.2,0,0,1,.7.6,3.4,3.4,0,0,1,.48.88,3.213,3.213,0,0,1,.16,1.08,3.536,3.536,0,0,1-.16,1.04,2.907,2.907,0,0,1-.44.86h1.16v.84m-3.121-7.081-.16.38-.4.16-.38-.16-.16-.38.16-.4.38-.16.4.16.16.4m-1,4.321a2.445,2.445,0,0,0,.34,1.28,1.248,1.248,0,0,0,.84.64h.34a1.248,1.248,0,0,0,.84-.64,2.4,2.4,0,0,0,.34-1.28,3,3,0,0,0-.1-.74,1.986,1.986,0,0,0-.3-.62l-.44-.42-.52-.16-.52.16-.44.42a2.553,2.553,0,0,0-.3.62,4.413,4.413,0,0,0-.08.74m2.841-4.321-.16.38-.4.16-.4-.16-.16-.38.16-.4.4-.16.4.16.16.4" transform="translate(-307.628 -337.907)" fill="#86868b"/>
      <path id="Path_442" data-name="Path 442" d="M399.22,439.34h-1.46l-.4-.14-.16-.28.16-.28.4-.14h1.46" transform="translate(-329.787 -365.105)" fill="#86868b"/>
      <path id="Path_443" data-name="Path 443" d="M404.96,409.342l-.4-.14-.16-.28.16-.28.4-.14h2.2v-4.141H408V408.5h.74v.84m-2.821-5.9-.38-.16-.16-.4.16-.38.38-.16.4.16.16.38-.16.4-.4.16m1.38-1.9-.16.4-.4.18-.38-.18-.16-.4.16-.38.38-.16.4.16.16.38m.28,1.9-.38-.16-.16-.4.16-.38.38-.16.38.16.16.38-.16.4-.38.16" transform="translate(-335.546 -335.107)" fill="#86868b"/>
      <path id="Path_444" data-name="Path 444" d="M426.881,439.34H423.96l-.4-.14-.16-.28.16-.28.4-.14h2.921" transform="translate(-350.746 -365.105)" fill="#86868b"/>
      <path id="Path_445" data-name="Path 445" d="M439.3,399.7h.84v8.6h-1.58l-.4-.16-.16-.26.16-.28.4-.16h.74" transform="translate(-362.425 -334.067)" fill="#86868b"/>
      <rect id="Rectangle_105" data-name="Rectangle 105" width="0.84" height="8.542" transform="translate(79.036 65.693)" fill="#86868b"/>
      <path id="Path_446" data-name="Path 446" d="M482.061,411.5h-.9a4.484,4.484,0,0,1-.96-.12,3.564,3.564,0,0,1-1-.38,2.592,2.592,0,0,1-.78-.7,1.672,1.672,0,0,1-.32-1.06,2.645,2.645,0,0,1,.22-1.06,3.1,3.1,0,0,1,.58-.86,4.362,4.362,0,0,1,.8-.68,8.073,8.073,0,0,1,.88-.5,6.238,6.238,0,0,1,.82-.32,4.637,4.637,0,0,1,.6-.16m-.8,4.961v-3.781a7.137,7.137,0,0,0-.68.34,4.512,4.512,0,0,0-.74.52,3.163,3.163,0,0,0-.58.68,1.662,1.662,0,0,0-.24.88.926.926,0,0,0,.22.64l.54.42a2.05,2.05,0,0,0,.7.22,4.319,4.319,0,0,0,.7.06h.08Zm-.88-6.361-.16.38-.38.16-.4-.16-.16-.38.16-.4.4-.16.38.16.16.4m1.84,0-.16.38-.4.16-.38-.16-.16-.38.16-.4.38-.16.4.16.16.4" transform="translate(-394.503 -337.267)" fill="#86868b"/>
      <path id="Path_447" data-name="Path 447" d="M500.52,423.081a9.782,9.782,0,0,1-.06,1.08,3.006,3.006,0,0,1-.3,1.02,2.129,2.129,0,0,1-.66.74,2.316,2.316,0,0,1-1.2.28v-.84a1.265,1.265,0,0,0,.76-.2l.42-.52a2.718,2.718,0,0,0,.18-.72c.02-.28.02-.56.02-.84V417.7h.86v4.161h.74v.84h-.74" transform="translate(-410.663 -348.466)" fill="#86868b"/>
      <path id="Path_448" data-name="Path 448" d="M512.22,439.34h-1.44l-.42-.14-.16-.28.16-.28.42-.14h1.44" transform="translate(-420.182 -365.105)" fill="#86868b"/>
      <path id="Path_449" data-name="Path 449" d="M520.26,439.34h-2.2l-.4-.14-.16-.28.16-.28.4-.14h2.2" transform="translate(-426.022 -365.105)" fill="#86868b"/>
      <path id="Path_450" data-name="Path 450" d="M530.6,407.281h.84V412.3h-2.48l-.4-.14-.16-.28.16-.28.4-.14h1.62m1.04-6.181a1.546,1.546,0,0,0-.7-.16l-.34.08-.12.3.24.46a1.112,1.112,0,0,0,.6.14h.4v.42h-2.18v-.42h.7l-.12-.22-.06-.38a.687.687,0,0,1,.28-.62l.6-.18a2.387,2.387,0,0,1,.88.18Z" transform="translate(-434.741 -338.067)" fill="#86868b"/>
      <rect id="Rectangle_106" data-name="Rectangle 106" width="0.84" height="8.542" transform="translate(98.019 65.693)" fill="#86868b"/>
      <path id="Path_451" data-name="Path 451" d="M559.68,415.36a4.46,4.46,0,0,1,.82-.52,2.794,2.794,0,0,1,1.2-.24,2.339,2.339,0,0,1,1.14.26,2.471,2.471,0,0,1,.8.7,2.9,2.9,0,0,1,.48,1,4.479,4.479,0,0,1,.16,1.14,3.746,3.746,0,0,1-.08.84,3.15,3.15,0,0,1-.18.72l-.22.56-.18.36H559.6v-.84h3.5c.06-.16.14-.38.22-.66a3.454,3.454,0,0,0,.12-.98,2.982,2.982,0,0,0-.12-.86,2.4,2.4,0,0,0-.34-.72,1.934,1.934,0,0,0-.56-.5,1.558,1.558,0,0,0-.74-.18,2.24,2.24,0,0,0-.7.12,3.717,3.717,0,0,0-.82.44" transform="translate(-459.7 -345.986)" fill="#86868b"/>
      <path id="Path_452" data-name="Path 452" d="M256.443,118.029a13.573,13.573,0,0,1-5.241,5.661c-3.3,2.1-6.741,1.6-7.862.94l.12.3.1.28c.44,1.18.14,2.42-1.46,2.6a4.588,4.588,0,0,0-1.46.34,4.49,4.49,0,0,0-1.3.98,5.276,5.276,0,0,0-.82,1.16h0a5.275,5.275,0,0,0-.82-1.16,4.49,4.49,0,0,0-1.3-.98,4.588,4.588,0,0,0-1.46-.34c-1.62-.18-1.9-1.42-1.48-2.621l.1-.26.12-.3a7.548,7.548,0,0,1-5.2.2l-.24-.06a11.461,11.461,0,0,1-5-2.781,15.688,15.688,0,0,1-3.021-4.021c-3.141-6.481-2.7-16.123-2.7-17.143-.1-11.122,2.36-17.363,4.461-20.364-.64-.84-1.02-1.34-1.06-1.38a2.223,2.223,0,0,0-1.32-.64,21.856,21.856,0,0,0-.76-3.181,19.056,19.056,0,0,0,2.821,1.64,1.854,1.854,0,0,0,.28,1.44c.02.04.32.44.84,1.12a11.689,11.689,0,0,1,3.5-2.921c.38-.22.78-.42,1.22-.62a2.1,2.1,0,0,1,.56-1.54,1.1,1.1,0,0,1,.66-.9,1.429,1.429,0,0,1,1.16.32,2.6,2.6,0,0,1,1.58.86,29.3,29.3,0,0,1,4.441-.58,2.573,2.573,0,0,1,1.38-1.74,1.417,1.417,0,0,1,1.08-.74h0a1.417,1.417,0,0,1,1.08.74,2.573,2.573,0,0,1,1.38,1.74,29.3,29.3,0,0,1,4.441.58,2.648,2.648,0,0,1,1.58-.86,1.362,1.362,0,0,1,1.16-.32h0a1.143,1.143,0,0,1,.66.9,2.065,2.065,0,0,1,.56,1.56c.44.2.84.4,1.22.62A12.807,12.807,0,0,1,254,79.522c.56-.74.9-1.2.92-1.24a1.97,1.97,0,0,0,.28-1.44,17.289,17.289,0,0,0,2.821-1.64,24.054,24.054,0,0,0-.74,3.181,2,2,0,0,0-1.32.66c-.04.02-.48.62-1.2,1.56,2.1,3.041,4.521,9.222,4.421,20.264-.02.84.4,10.662-2.741,17.163M249.5,85.4a13.005,13.005,0,0,0-9.262-3.381c-.28.02-.62.24-.26.72a2.22,2.22,0,0,1-1.64-.32,2.177,2.177,0,0,1-1.66.32c.36-.48.04-.7-.26-.72-1.24-.08-6.2.4-9.2,3.321,1.66,2.18,5.1,6.741,5.181,6.841l.44.2h.08l.52-.34c.36-.4.54-.6.88-.96.68-.7,1.32-1.22,1.42-1.32a.953.953,0,0,0,.38-.7c-.02-.24-.22-.34-.34-.5l-.06.08-.24-.48-.08.18s-.26-.6-.66-.56a1.452,1.452,0,0,1-.96-.18l-.04.38h-.02a1.078,1.078,0,0,1,.24-1.68,3.011,3.011,0,0,1,.88-.48l.28-.26a2.173,2.173,0,0,1,.96-.52,7.818,7.818,0,0,1,1.94-.16,3.2,3.2,0,0,1,1.16.26,4.425,4.425,0,0,1,1.3,1.1,12.072,12.072,0,0,1,.92,1.84c.5,1.22.44,1.1.78,1.92a9,9,0,0,0,1,1.98.609.609,0,0,0,.52.26l.54-.12.22-.22c1.26-1.66,3.421-4.361,5.041-6.5" transform="translate(-186.029 -71.6)" fill="#fff"/>
      <path id="Path_453" data-name="Path 453" d="M334.62,320.5l-.06.08h-.04a3.239,3.239,0,0,1-.52-.38,21.709,21.709,0,0,1,.56,3.941,1.492,1.492,0,0,1,1.64.24c-.02-.04-1.42-3.5-1.58-3.881h0" transform="translate(-279.229 -270.47)" fill="#86868b"/>
      <path id="Path_454" data-name="Path 454" d="M345.781,153.52h.02l.12.04a1.664,1.664,0,0,1,.6.4,13.449,13.449,0,0,1,2.38,4.121,11.492,11.492,0,0,1,.54,3.861h0s-.4,7.2-1.16,14.1c-.7,6.261-1.08,7.081-1.08,7.081a4.823,4.823,0,0,1-.74-1.72l-.06.06a5.963,5.963,0,0,1-.66-1.86,30.5,30.5,0,0,1-.3-5.121h0a2.239,2.239,0,0,0-.26-.96,6.51,6.51,0,0,1-.3-.88v-.02a5.829,5.829,0,0,0-1.7-3.061,11.438,11.438,0,0,1-1.14-1.64c-.34.32-.6.64-.6.82a8.146,8.146,0,0,1,.06,2.581l-.24-.2c.08.76-.28,1.66-.06,2.36l-.46-.06.06.12.22.2.16.08a3.863,3.863,0,0,0,.46.16,1.365,1.365,0,0,0-.2-1.44c-.22-.26.04-.64.5-.46a6.235,6.235,0,0,1,1.86,1.26c.94.9,1.22,1.78,1.02,1.94l-.46.04-.02.1-.4.36-.02.04c-.1.14-.26.2-.56.2a1.122,1.122,0,0,1-.56-.18l-.18-.14-.26.22.1.12a1.809,1.809,0,0,1,.44.8l.02.18a24.051,24.051,0,0,1,2.36,3.2,12.328,12.328,0,0,1,1.02,2.2,1.726,1.726,0,0,1-.86,0,3.105,3.105,0,0,1,.24,1.22,2.7,2.7,0,0,1-1.38-.3l.08.48c.7.46,1.22.88,1.5,1.08a11.3,11.3,0,0,1-5.581.56l-.5-.08-.1-.02s.8,1.92.94,2.22a7.492,7.492,0,0,0,4.821.74,7.809,7.809,0,0,0,1.22-.32,12.632,12.632,0,0,0,3.881-2.5,15.055,15.055,0,0,0,2.9-3.721c2.5-4.881,2.9-12.1,2.9-15.023v-1.52c-.02-.98-.08-2.44-.12-3.181a28.313,28.313,0,0,1-5.361,3.441l-.6.34-.02-.7a40.289,40.289,0,0,0-3.041-13.443,22.163,22.163,0,0,0-1.44,1.82" transform="translate(-283.789 -135.677)" fill="#86868b"/>
      <path id="Path_455" data-name="Path 455" d="M301.64,324.441a31,31,0,0,1,.48-3.841l-.24.18-.18.12h-.04l-.08-.1c-.26.6-1.58,3.841-1.58,3.881a1.579,1.579,0,0,1,1.64-.24" transform="translate(-252.031 -270.79)" fill="#86868b"/>
      <path id="Path_456" data-name="Path 456" d="M307.6,322.6a43.108,43.108,0,0,0-.64-5.221h0l-.22-.08-.2.5a2.214,2.214,0,0,1-.42.64,2.958,2.958,0,0,1-1.06-1.24,2.853,2.853,0,0,1-1.04,1.22,1.655,1.655,0,0,1-.42-.64l-.22-.52-.02.04a45.14,45.14,0,0,0-.6,5.321c-1.36-.88-2.16,0-1.88.62l.08.14a.859.859,0,0,0,.68.36,4.3,4.3,0,0,1,1.66.38,5.311,5.311,0,0,1,1.9,1.56,5.311,5.311,0,0,1,1.9-1.56,4.8,4.8,0,0,1,1.66-.38.878.878,0,0,0,.66-.36l.1-.14c.24-.64-.58-1.54-1.92-.64" transform="translate(-252.688 -268.07)" fill="#86868b"/>
      <path id="Path_457" data-name="Path 457" d="M223.141,180.646a14.679,14.679,0,0,0,2.841,3.781,11.276,11.276,0,0,0,4.221,2.48l.36.12a7.46,7.46,0,0,0,5.741-.52l.02-.06c.14-.36.92-2.22.92-2.22l-.1.02a10.294,10.294,0,0,1-1.06.14,11.165,11.165,0,0,1-5.561-.56,21.449,21.449,0,0,1,1.94-1.34l.04-.28a2.546,2.546,0,0,1-1.38.3,2.782,2.782,0,0,1,.24-1.22,1.825,1.825,0,0,1-.86-.02,12.327,12.327,0,0,1,1.02-2.2,21.6,21.6,0,0,1,1.96-2.7l-.06-.3.04-.32a1.753,1.753,0,0,1,.44-.8l.14-.14-.26-.22-.22.16a1.338,1.338,0,0,1-.56.16.6.6,0,0,1-.56-.18l-.02-.04-.4-.36-.02-.1-.42-.06c-.2-.18.08-1.04,1.02-1.94a6.235,6.235,0,0,1,1.86-1.26c.44-.2.72.18.5.46a1.373,1.373,0,0,0-.2,1.44c.28-.1.38-.14.42-.16l.38-.26.04-.1-.4.04c.2-.5-.12-1.72.1-2.5l-.28.16a9.98,9.98,0,0,1-.06-2.42,1.853,1.853,0,0,0-.54-.72,16.354,16.354,0,0,1-1.06,1.5,5.824,5.824,0,0,0-1.7,3.081h0l-.06.22-.08.24-.06.16-.1.24a2.239,2.239,0,0,0-.26.96h0a28.42,28.42,0,0,1-.3,5.121,5.394,5.394,0,0,1-.66,1.86l-.06-.06a4.248,4.248,0,0,1-.74,1.72s-.38-.82-1.1-7.081c-.76-6.9-1.16-14.083-1.16-14.083h0a11.074,11.074,0,0,1,.54-3.861A13.055,13.055,0,0,1,230,152.8a1.7,1.7,0,0,1,.64-.42l.22-.04h0c-.48-.66-.98-1.3-1.46-1.94a40.155,40.155,0,0,0-3.081,13.523l-.04.72-.6-.34a28.313,28.313,0,0,1-5.361-3.441c-.04.74-.12,3.181-.12,3.181v1.52c.04,2.981.56,10.162,2.941,15.083" transform="translate(-188.194 -134.637)" fill="#86868b"/>
      <path id="Path_458" data-name="Path 458" d="M242.922,96.3c.3.4-.06,1-.34,1.44a11.918,11.918,0,0,1,.34-1.44M234.7,93.184a19.634,19.634,0,0,1,1-2.1,2.069,2.069,0,0,0-1,2.1m6.2,8a2.62,2.62,0,0,0,.64-2.44,5.691,5.691,0,0,0-.64,2.44m1.84-6.541c-.42.1-.26,1.76-.28,1.76,0-.02.64-1.14.28-1.76m-8.3,2.9a2.372,2.372,0,0,0,.76,1.94,3.369,3.369,0,0,0-.76-1.94m-.02,1.58a2.255,2.255,0,0,0,.3,1.04,5.836,5.836,0,0,0,.86,1.1c-.42-.64-.74-1.82-1.16-2.14m8-7a5.59,5.59,0,0,0,.54,1.74,1.592,1.592,0,0,0-.54-1.74m-8.9,2.34c-.08-.48.52-.92.32-1.7a1.524,1.524,0,0,0-.32,1.7m1.6,1.24a9.409,9.409,0,0,1-.1,1.26c-.28-.06-.4-.26-.62-.42a5.333,5.333,0,0,0,.96,1.36,3.311,3.311,0,0,0-.24-2.2m3.481-9.422c.18.18.76.42,1.1.74-.04-.5-.48-.78-1.1-.74m1.78,4.121a1.047,1.047,0,0,0-.96-1.14c-.06.42.68.68.96,1.14M236.82,86l.04.32a.5.5,0,0,1-.42.46.515.515,0,0,1-.66-.46l.06-.28-.22.22-.3.16a.867.867,0,0,1,.46-.62,3.538,3.538,0,0,1,2.44.24,6.439,6.439,0,0,0-.86-.06c-.34.02-.54.02-.54.02m-.16.02-.34.04.22.16.12-.06v-.14m1.22.26a1.182,1.182,0,0,0,1.04.58,1.84,1.84,0,0,0-1.04-.58m4.561,12a7.431,7.431,0,0,0-.62,2.1c.14-.12.84-1.8.62-2.1m-2.32-10.4a1.149,1.149,0,0,0-.88-.62l.32.52-.52.1a1.1,1.1,0,0,0,1.08,0m-.08,3.7c-.4.42-.02,1.28.2,2.04.2-.38.46-1.64-.2-2.04m2.08,1.94a2.7,2.7,0,0,1-.68,1.44,4.688,4.688,0,0,1-.66-.7,2.908,2.908,0,0,0,.68,1.64,2.519,2.519,0,0,0,.66-2.38m-1.1-3.6c-.08.48.68,1.18.68,1.18a1.161,1.161,0,0,0-.68-1.18m-1.58-1.12c.2.2.82.34,1.16.66a.831.831,0,0,0-1.16-.66m10.542,5.881a5.867,5.867,0,0,1-.48,2.42l-.28-.46a1.3,1.3,0,0,0,.28,1.06,4.943,4.943,0,0,0,.48-3.021m-16.123,2.8a5.765,5.765,0,0,0-.48-2.12,3.888,3.888,0,0,0,.48,2.12m13.023,1.9s-.28-.66.36-2.661c-.92,2.04-.8,2.6-.6,3.3a1.316,1.316,0,0,0,.64-.96,1.139,1.139,0,0,1-.4.32m-.6-1.74s-.22-.46.34-2.2a3.316,3.316,0,0,0-.58,2.821,1.447,1.447,0,0,0,.68-.92l-.44.3m4.481,1.14a3.052,3.052,0,0,0,.22-1.98,3.85,3.85,0,0,1-.32,1.6l-.2-.2a.784.784,0,0,0,.3.58m-.92-1.18a.858.858,0,0,0,.32.66,3.35,3.35,0,0,0,.32-2.24,4.458,4.458,0,0,1-.38,1.78l-.26-.2m-.2-4.1a5.929,5.929,0,0,1-.76,2.741l-.28-.6a1.522,1.522,0,0,0,.26,1.2,5.133,5.133,0,0,0,.78-3.341m-7.762,11.522-.1-.42a5.164,5.164,0,0,0-.48,2.12c.24-.84.88-1,1.04-1.78l.4.14a5.7,5.7,0,0,1-.38-1.26,3.24,3.24,0,0,1-.48,1.2m7.281-12.262a6.251,6.251,0,0,1-.9,2.641,3.021,3.021,0,0,1-.14-1.06,1.943,1.943,0,0,0,.08,1.72,5.308,5.308,0,0,0,.96-3.3m-1.56,1.52a6.053,6.053,0,0,1-.06-1.38,2.83,2.83,0,0,0-.06,2.1,4.81,4.81,0,0,0,1.16-3.061,5.049,5.049,0,0,1-1.04,2.34m-8.1,3.121a3.179,3.179,0,0,0,.82-2.14,3.978,3.978,0,0,1-.88,1.1,4.45,4.45,0,0,1-.74-.68,2.708,2.708,0,0,0,.8,1.72m-11.242-2a5.742,5.742,0,0,1-.9-2.641,5.325,5.325,0,0,0,.96,3.281,1.879,1.879,0,0,0,.08-1.72,3.741,3.741,0,0,1-.14,1.08m1.36,3.981a1.061,1.061,0,0,1-.4-.34,1.316,1.316,0,0,0,.64.96c.2-.7.32-1.24-.6-3.3.62,2,.36,2.681.36,2.681m-.7-5.1a4.977,4.977,0,0,1-1.06-2.34A4.977,4.977,0,0,0,229.019,95a2.827,2.827,0,0,0-.06-2.1,4.682,4.682,0,0,1-.04,1.38m5.941-7.842.08.2.18-.18-.26-.02m-7.842,10.662a5.869,5.869,0,0,1-.48-2.42,4.8,4.8,0,0,0,.46,3.021,1.369,1.369,0,0,0,.28-1.06l-.26.46m-1.18,1.3a3.85,3.85,0,0,1-.32-1.6,2.9,2.9,0,0,0,.22,1.98.784.784,0,0,0,.3-.58l-.2.2m.58-.6a4.458,4.458,0,0,1-.38-1.78,3.35,3.35,0,0,0,.32,2.24.8.8,0,0,0,.3-.66l-.24.2m1.2-1.56a6.041,6.041,0,0,1-.76-2.741,5.053,5.053,0,0,0,.78,3.341,1.447,1.447,0,0,0,.26-1.2l-.28.6m7.461,10.422a4.588,4.588,0,0,0-.48-2.12l-.1.42a2.669,2.669,0,0,1-.48-1.2,5.7,5.7,0,0,1-.38,1.26l.4-.14c.18.78.82.94,1.04,1.78m-4.841-9.022-.44-.3a1.521,1.521,0,0,0,.68.92,3.406,3.406,0,0,0-.58-2.821c.56,1.74.34,2.2.34,2.2m9.222,4.821a3.766,3.766,0,0,0,.52-2.02,3.259,3.259,0,0,0-.52,2.02m-.04,2.661a4.152,4.152,0,0,0,.56-2.24,3.685,3.685,0,0,0-.56,2.24m.2-6.521a2.944,2.944,0,0,1-.86,1.4,2.68,2.68,0,0,1-.62-.86,1.814,1.814,0,0,0,.78,1.74,2.909,2.909,0,0,0,.7-2.28m-1.02,7.061a1.806,1.806,0,0,0-.04-1.56,1.985,1.985,0,0,0,.04,1.56m-.62-1.68a2.072,2.072,0,0,0-.12-1.76,2.2,2.2,0,0,0,.12,1.76M256.4,118.029a13.748,13.748,0,0,1-5.241,5.681c-3.3,2.1-6.741,1.58-7.862.94l.12.28.1.26c.44,1.2.14,2.42-1.48,2.621a4.028,4.028,0,0,0-1.46.32,4.49,4.49,0,0,0-1.3.98,5.807,5.807,0,0,0-.82,1.16,5.273,5.273,0,0,0-.82-1.16,4.89,4.89,0,0,0-1.3-.98,3.946,3.946,0,0,0-1.46-.32c-1.6-.18-1.9-1.42-1.46-2.621l.1-.26.12-.3a7.548,7.548,0,0,1-5.2.2l-.24-.06a11.461,11.461,0,0,1-5-2.781,15.688,15.688,0,0,1-3.021-4.021c-3.141-6.481-2.7-16.123-2.721-17.143-.1-11.122,2.36-17.363,4.481-20.364-.64-.84-1.02-1.34-1.06-1.38a2.115,2.115,0,0,0-1.32-.64,21.856,21.856,0,0,0-.76-3.181,19.056,19.056,0,0,0,2.821,1.64,1.854,1.854,0,0,0,.28,1.44c.02.04.34.44.84,1.12a11.689,11.689,0,0,1,3.5-2.921c.38-.22.78-.42,1.22-.62a2.079,2.079,0,0,1,.58-1.56,1.15,1.15,0,0,1,.64-.9h0a1.362,1.362,0,0,1,1.16.32,2.6,2.6,0,0,1,1.56.86,29.3,29.3,0,0,1,4.441-.58,2.537,2.537,0,0,1,1.38-1.72,1.417,1.417,0,0,1,1.08-.74h0a1.417,1.417,0,0,1,1.08.74,2.637,2.637,0,0,1,1.38,1.72,29.3,29.3,0,0,1,4.441.58,2.648,2.648,0,0,1,1.58-.86,1.362,1.362,0,0,1,1.16-.32h0a1.174,1.174,0,0,1,.66.9,2.065,2.065,0,0,1,.56,1.56c.44.2.84.4,1.22.62a12.807,12.807,0,0,1,3.561,2.961c.56-.74.9-1.2.92-1.22a1.97,1.97,0,0,0,.28-1.44,16.672,16.672,0,0,0,2.8-1.64,23.18,23.18,0,0,0-.74,3.181,2.1,2.1,0,0,0-1.32.64c-.02.04-.48.62-1.18,1.56,2.1,3.041,4.521,9.222,4.421,20.264,0,.86.42,10.682-2.721,17.183m-1-34.927a10.062,10.062,0,0,1-2.641.26,5.068,5.068,0,0,0-.58,2.641,2.607,2.607,0,0,1-1.12-.62c-.4.54-.82,1.08-1.24,1.64a41.341,41.341,0,0,1,3.241,13.663c4.481-2.541,5.121-3.281,5.321-3.6-.32-5.8-1.14-10.222-2.981-13.983m-6.081,17.043a4.427,4.427,0,0,0,.08,1.78,4.871,4.871,0,0,0,.7-1.48,4.64,4.64,0,0,0,.26,1.44,11.618,11.618,0,0,0,.6-2.941l.2.14a10.077,10.077,0,0,0-.08-3.381,11.557,11.557,0,0,0-2.48-5.241c-.84-1.06-1.56-.58-2.28.24-1.16,1.34-1.4,1.94-2.781,2.2-.14.02-.04.1.24.1,1.66-.04,2.18-1.2,2.681-1.8.32-.4.76-.74,1.12-.52.14.08.58.64.12,2.04a1.082,1.082,0,0,0-.18-.66,8.361,8.361,0,0,1-.86,2.28l-.1-.5c-.16,1.12-1.1,2.3-1.24,3.9a1.209,1.209,0,0,1-.2-.7c-.72,1.4-1.44,3.9-1,5.161a8.534,8.534,0,0,1,1.1-3.7c-.5,1.64-1.06,3.681-.58,4.9a9.885,9.885,0,0,1,1-3.461c-.68,2.7-.96,4.081-.2,5.121a8.457,8.457,0,0,1,.78-3.8c-.34,2.1-.86,3.941.08,4.881a9.883,9.883,0,0,1,.62-3.861c-.3,2-.56,3.921.02,4.921a7.475,7.475,0,0,1,.1-1.08,15.933,15.933,0,0,1,.56-2.7s-.2,1.42-.3,3.161a5.28,5.28,0,0,0,.36,2.8,29.216,29.216,0,0,1,.7-5.2s-.24,2.14-.4,5.441c-.24,5.021.38,6.581.56,7.041a2.82,2.82,0,0,1-.06-.7,4.874,4.874,0,0,1,.04-1.06,7.7,7.7,0,0,1-.34-2.2,52.432,52.432,0,0,1,.92-8.022c-.04.6-.62,7.662-.58,8.562a5.66,5.66,0,0,0,.3,1.5,7.2,7.2,0,0,0,.42,3.281s.18-.66.32-1.48l-.18.16a6.314,6.314,0,0,1-.18-2.721,4.567,4.567,0,0,1-.22-1.3,63.5,63.5,0,0,1,.9-7.642c.02.16-.56,7.121-.58,7.562a4.944,4.944,0,0,0,.2,1.36,9.272,9.272,0,0,0,.06,2.18,6.572,6.572,0,0,0,.14-.76s.54-4.241.94-9.062c.2-2.38.44-5.341.52-6.661l-.06-.04a9.923,9.923,0,0,1-.86,3.421,3.171,3.171,0,0,1-.36-1.42,4.219,4.219,0,0,1-.72,1.18,3.626,3.626,0,0,1-.18-1.32,2.167,2.167,0,0,1-.64.7,2.966,2.966,0,0,1-.24-1.44,1.939,1.939,0,0,1-.58.56c-.08-.2-.5-.9.26-3.541-.3,2.44-.12,2.721-.06,2.921l.4-.28a16.406,16.406,0,0,1,.24-1.72,6.512,6.512,0,0,0,.18,2.921,5.562,5.562,0,0,0,.8-1.46m-6.181,3.821.02-.06h.04l.18.08.18.1a2.913,2.913,0,0,1-.14-.94,5.245,5.245,0,0,0-.16-1.22v.02l-.02-.04-.34.56a2.033,2.033,0,0,0-.46.9l-.02.06-.06-.04-.22-.24-.06-.08-.02-.02a7.838,7.838,0,0,1-1.36,2.06,4.612,4.612,0,0,0-.54,1.98,8.28,8.28,0,0,0,0,2.1l.34-.38a5.812,5.812,0,0,1-.02.78,2.757,2.757,0,0,1-.14.58,1.377,1.377,0,0,0,1.22-.52l.1.26c.08.24.16.54-.04.7a.763.763,0,0,0-.32.6l.18.28h.02v.02l.22.28v-.26l.3-.24.14.02h.02v.02s.08.78.14,1.1a9.623,9.623,0,0,1,.18,1.06l.04.28a.312.312,0,0,0,.32.32h.34l-.18.16a.846.846,0,0,1,.02.52l.02.02a.587.587,0,0,0,.28-.7v-.02l.02-.02c.24-.14.18-.6-.16-1.32-.16-.34-.22-.9-.12-.96h.02c.06,0,.12,0,.28.22l.36.48.22.46-.04.1-.1.04-.22-.02.44.3c.22-.24.02.16.4.2a.4.4,0,0,0,.42-.44l-.04-.26a1.362,1.362,0,0,0-.36-.66l-.08-.08c-.64-.7-.58-.86-.54-.92l.28-.14a4.348,4.348,0,0,1,.52.04c.26.04.68.12.66.26l-.06.08-.26.06.24.16.68-.04.04-.08.34-.18-.32-.42a7.962,7.962,0,0,0-.94-.36l-.46-.12-.76-.2-.56-.2-.16-.08-.32-.28a3.959,3.959,0,0,1-.26-.76,2.018,2.018,0,0,0,.6.24l-.02-.68c.12-1.26.14-1.98.14-1.98l.26.26a8.467,8.467,0,0,0-.08-1.26,13.054,13.054,0,0,0-.26-1.54m.9,5.961.58.16.28.08a2.159,2.159,0,0,0,.14-.86c-.02-.32.74.36,1.22.86l.12-.04a7.352,7.352,0,0,0-1.76-1.5c-.48-.3-.72-.22-.56.04a1.332,1.332,0,0,1-.02,1.26m.64,4.881c.54.64,1.38,1.84,1.7,2.16.7.7,1,.78,1.52.8a8.6,8.6,0,0,0-1.18-2.16c-.42-.64-1.12-1.56-1.68-2.28l-.04.08-.2.22-.42.1-.38-.18-.26-.06a.8.8,0,0,1-.14.6,1.078,1.078,0,0,1-.28.74l.04.06c.18.32.1.5.02.6l-1.16,1.26a.34.34,0,0,1-.48-.04l-.14-.12-.42.42.06.04h0a3.654,3.654,0,0,0,1,.62c.36.16,1.06.4,1.78.7h0a14.126,14.126,0,0,1-.58-1.68c.2.28.78,1.28,1.14,1.9h0l.76.38.72.38a4.291,4.291,0,0,0-.1-.54,10.109,10.109,0,0,1-.76-.86,8.046,8.046,0,0,1-1.2-2.32c.7,1,.88,1.28,1.16,1.64a3.913,3.913,0,0,0,2.16,1.62c-.12-.64-.36-.78-.36-.78a6.58,6.58,0,0,1-.92-.98,8.816,8.816,0,0,1-1.36-2.32m-2.28,6.081a14.452,14.452,0,0,0,4.881-.26,18.6,18.6,0,0,0-4.221-2.2,9.723,9.723,0,0,1-1.52-.74,5.722,5.722,0,0,1-.7-.56c-.76-.7-2.8-2.821-3.141-3.2l-1.34,1.24a48.973,48.973,0,0,0,4.461,3.961,26.583,26.583,0,0,0,4.421,1.36,16.949,16.949,0,0,1-4.421-.96c-1.14-.46-4.781-4.061-4.781-4.061l-.88.82a24.6,24.6,0,0,0,3.021,2.881,7.687,7.687,0,0,0,4.221,1.72m-3.121-.4c-.22-.12-.44-.24-.66-.38h0l.2.4a3,3,0,0,0,.48.72l.06-.1.2-.5-.28-.14m-6.461-4.861a8.743,8.743,0,0,1-1.22,2.32,8.166,8.166,0,0,1-.74.86s-.04.14-.08.36l.26-.14c.4-.22.86-.42,1.32-.62.38-.64.92-1.54,1.1-1.8a11.321,11.321,0,0,1-.58,1.58c.6-.24,1.12-.42,1.38-.54a3.16,3.16,0,0,0,.78-.48l.16-.16-.44-.44-.14.12s-.26.24-.48.04l-1.16-1.26c-.08-.1-.18-.28.02-.6l.02-.02a1.043,1.043,0,0,1-.32-.76.72.72,0,0,1-.14-.6l-.28.06-.36.18h-.06l-.4-.12c-.5.66-1.06,1.4-1.42,1.94a8.988,8.988,0,0,0-1.16,2.16,2,2,0,0,0,1.52-.8c.32-.32,1.16-1.52,1.7-2.16a10.659,10.659,0,0,1-1.34,2.38,6.581,6.581,0,0,1-.92.98s-.24.14-.36.76a3.933,3.933,0,0,0,2.18-1.62,16.162,16.162,0,0,0,1.16-1.62m-.86-3.6-.08.08a1.361,1.361,0,0,0-.36.66l-.04.26c.02.3.18.46.42.44.38-.04.18-.44.4-.2l.44-.3-.22.02-.1-.04-.04-.1.22-.46.36-.48c.16-.22.22-.24.28-.22h.02a1.489,1.489,0,0,1-.12.96c-.34.72-.4,1.18-.16,1.32l.02.02v.02a.579.579,0,0,0,.28.7l.02-.02a.846.846,0,0,1,.02-.52l-.18-.16h.32c.14-.02.3-.04.32-.32l.02-.28a9.638,9.638,0,0,1,.18-1.06,10.015,10.015,0,0,0,.14-1.1v-.02h.02l.14-.02.3.24.02.26.22-.28v-.02h.02l.18-.28c.04-.28-.28-.58-.32-.6-.2-.16-.14-.44-.04-.7l.12-.3.38.32a1.34,1.34,0,0,0,.92.24,2.755,2.755,0,0,1-.14-.58,5.815,5.815,0,0,1-.02-.78l.34.38a5.825,5.825,0,0,0,.08-1.98,8.037,8.037,0,0,0-.54-2.3,3.531,3.531,0,0,0-.3-.68.642.642,0,0,1-.28.38,6.115,6.115,0,0,1-.94-1.56l-.28.36-.06.04v-.06a2.033,2.033,0,0,0-.46-.9l-.34-.56a4.98,4.98,0,0,0-.16,1.22,2.914,2.914,0,0,1-.14.94l.18-.1.18-.08h.02l.02.02.02.06a9.564,9.564,0,0,0-.24,1.46,5.177,5.177,0,0,0,.04,1.2l.38-.22a5.489,5.489,0,0,0-.12,2l-.02.68a1.252,1.252,0,0,0,.54-.22,3.96,3.96,0,0,1-.26.76l-.32.28-.16.08-.56.2-.76.2-.42.1a7.077,7.077,0,0,0-.96.36l-.32.42.34.18.04.08.68.04.24-.16-.26-.06-.06-.08c-.02-.14.4-.2.66-.26a4.842,4.842,0,0,1,.52-.04l.28.14c.02.12.08.28-.56.98m.32-3.381c.16-.26-.08-.32-.56-.04a7.353,7.353,0,0,0-1.76,1.5l.12.04c.5-.5,1.24-1.18,1.22-.86a2.158,2.158,0,0,0,.14.86l.22-.06.64-.16a1.5,1.5,0,0,1-.02-1.28m-1-10.162a8.535,8.535,0,0,1,1.1,3.7c.46-1.26-.28-3.761-1-5.161a1.236,1.236,0,0,1-.18.7c-.14-1.6-1.08-2.761-1.24-3.9l-.1.5a9.067,9.067,0,0,1-.86-2.28,1.242,1.242,0,0,0-.18.66c-.48-1.38-.02-1.94.12-2.04.36-.22.78.14,1.12.52.5.6,1.02,1.76,2.681,1.8.28,0,.38-.06.24-.1-1.38-.26-1.64-.86-2.781-2.2-.72-.84-1.44-1.3-2.28-.24a11.557,11.557,0,0,0-2.48,5.241,10.643,10.643,0,0,0-.08,3.381l.2-.14a11.457,11.457,0,0,0,.6,2.941,4.64,4.64,0,0,0,.26-1.44,4.146,4.146,0,0,0,.68,1.46,4.41,4.41,0,0,0,.08-1.78,3.456,3.456,0,0,0,.76,1.34,7.261,7.261,0,0,0,.18-2.921,15.52,15.52,0,0,1,.22,1.72l.4.28c.06-.2.24-.48-.06-2.921.76,2.641.34,3.361.26,3.541a1.727,1.727,0,0,1-.58-.56,2.966,2.966,0,0,1-.24,1.44,1.858,1.858,0,0,1-.66-.7,3.626,3.626,0,0,1-.18,1.32,4.219,4.219,0,0,1-.72-1.18,3.376,3.376,0,0,1-.36,1.42,9.823,9.823,0,0,1-.86-3.421l-.06.04c.08,1.32.32,4.281.52,6.661.4,4.821.94,9.062.94,9.062a3.621,3.621,0,0,0,.14.76,10.453,10.453,0,0,0,.06-2.18,4.766,4.766,0,0,0,.2-1.36c0-.46-.6-7.4-.58-7.562a59.663,59.663,0,0,1,.9,7.642,5.3,5.3,0,0,1-.22,1.3,6.314,6.314,0,0,1-.18,2.721l-.18-.16c.14.82.32,1.48.32,1.48a6.931,6.931,0,0,0,.42-3.281,5.659,5.659,0,0,0,.3-1.5c.04-.9-.54-7.962-.58-8.562a52.761,52.761,0,0,1,.92,8.022,7.541,7.541,0,0,1-.34,2.2,4.836,4.836,0,0,1,.04,1.06,3.116,3.116,0,0,1-.06.7c.2-.46.82-2.04.56-7.041-.16-3.3-.4-5.441-.4-5.441a29.219,29.219,0,0,1,.7,5.2,5.116,5.116,0,0,0,.36-2.8c-.1-1.72-.3-3.161-.3-3.161a16.564,16.564,0,0,1,.56,2.7c.06.4.08.76.1,1.08.56-1,.3-2.921,0-4.921a9.884,9.884,0,0,1,.62,3.861c.92-.92.42-2.761.08-4.881a8.457,8.457,0,0,1,.78,3.8c.74-1.04.48-2.42-.2-5.121a10.012,10.012,0,0,1,1,3.461c.58-1.1,0-3.121-.48-4.761M249.463,85.4a12.99,12.99,0,0,0-9.242-3.381c-.28.02-.62.26-.26.72a2.131,2.131,0,0,1-1.64-.32,2.177,2.177,0,0,1-1.66.32c.36-.48.04-.7-.26-.72-1.24-.08-6.2.4-9.2,3.321,1.66,2.18,5.1,6.741,5.181,6.841l.44.2h.08l.52-.34c.36-.38.54-.6.9-.96.68-.7,1.32-1.22,1.42-1.32a.953.953,0,0,0,.38-.7c-.02-.24-.22-.34-.34-.5l-.06.1-.24-.48-.06.18s-.24-.62-.66-.56a1.5,1.5,0,0,1-.96-.18c-.04,0-.06.18-.04.4l-.02-.02a1.078,1.078,0,0,1,.24-1.68,2.783,2.783,0,0,1,.88-.48l.3-.26a2.173,2.173,0,0,1,.96-.52,7.817,7.817,0,0,1,1.94-.16,3.317,3.317,0,0,1,1.18.26,4.424,4.424,0,0,1,1.3,1.1,12.068,12.068,0,0,1,.92,1.84c.5,1.22.44,1.1.78,1.92a9.973,9.973,0,0,0,1,1.98.544.544,0,0,0,.52.26l.54-.12.22-.22c1.16-1.68,3.321-4.381,4.941-6.521m-9.1,19.584a3.1,3.1,0,0,0,.6-1.8l.28.4a9.8,9.8,0,0,0,.9-2.8l.22.14a9.885,9.885,0,0,0,.6-2.781l.24.08a23.818,23.818,0,0,0,.22-2.48,9.347,9.347,0,0,0-.26-2.721,8.174,8.174,0,0,0-.84-1.86l-.24.18c-.12-.36-.46-1.26-.62-1.58-.42-.82-.62-1.34-1.06-1.62a3.932,3.932,0,0,0,.52.04c-.28-.26-.38-.44-.7-.7.1-.08.28-.06.58,0-.42-.4-.58-.98-1.68-1.4a3.152,3.152,0,0,1,.6.02,1.869,1.869,0,0,0-1.02-.74c-1.12-.22-2.681-.26-3.421.6l-.42.16-.22.1c-.12.08-.14.22.1.56-.32-.04-.4-.36-.46-.32l-.34.34-.18.64a.215.215,0,0,0,.36-.16l.68-.16c.24,0,.48.06.78.04l-.58.18-.02.2.34-.08.06.28c.92-.2.98.76,1.94.58-.46-.36-.84-.96-1.2-1.14.96.16,1.48,1.02,2.5,1.06l-.12-.28c.36,0,.6.28.72.26a1.437,1.437,0,0,1-.82.3l.58.18a.956.956,0,0,1-.92.2,4.582,4.582,0,0,1-1.04.88l.04-.32c-.44.26-.74.72-1.08.86l.26-.6a15.3,15.3,0,0,0-2.7,2.821,5.72,5.72,0,0,0-.56,3.181c.04.78.38,2.981.44,3.421l.24-.1a18.123,18.123,0,0,0,1.56,4.621l.26-.34a2.108,2.108,0,0,0,.66,1.24,1.689,1.689,0,0,1,.14-.56c.1.32.04,1.28.6,1.82a3.048,3.048,0,0,1,.14-.86c.1.3.12.7.26,1.02a2.11,2.11,0,0,0,.6.84,3.684,3.684,0,0,1,.12-1.04,2.793,2.793,0,0,1,.44,1.3,3.779,3.779,0,0,0,.78-1.86,1.207,1.207,0,0,1,.28.54,3.7,3.7,0,0,0,.78-1.7,1.982,1.982,0,0,1,.08.92m.58,7.541a7.035,7.035,0,0,0,1.12-.04l-.04-.22-.02-.16h-.02a2.642,2.642,0,0,1-1.28.08,3.526,3.526,0,0,1-.54-.14c-.2-.06-.52.28-.78.54-.22.24-.5.56-.64.7v.08c.22.22,3.041,2.781,3.221,2.941l.14-.02.5-.5-2.841-2.641-.02-.12.16-.18.12.02.92.86,1.2,1.06.76.66.12-.12c.12-.12.08-.2-.3-.58l-1.94-1.94c-.2-.2-.06-.28.16-.28m-4.341.6-2.821,2.661.5.5h.14c.18-.16,2.981-2.721,3.221-2.941v-.06c-.14-.14-.42-.46-.64-.7-.26-.26-.58-.6-.78-.54-.22.06-.24.06-.52.14a2.922,2.922,0,0,1-1.28-.08l-.06-.02-.02.2-.04.18a6.781,6.781,0,0,0,1.16.06c.22,0,.36.08.16.28l-1.94,1.94c-.38.36-.4.46-.3.58l.12.12.74-.66,1.2-1.06.9-.86.12-.02.16.18-.02.1m.28-6.561-.1-.38-.32-.36-.1-.14.06.46.24.32.22.1m-.04,5.341.24.24a7.161,7.161,0,0,0,.12-1.34,4.1,4.1,0,0,0-.36,1.1m-1.1-.08.52-.2.1-.02c.08-.28.22-.72.3-.94l-.92,1.16m2.06,1.02a8.9,8.9,0,0,0-.06-.96,1.619,1.619,0,0,0-.24.66l.3.3m.18-2.5a.854.854,0,0,0-.44-.64c.02.34.44.64.44.64m.28-.8h0l.26-.28,1.06-.78.22-.5a1.365,1.365,0,0,1-.46.4,3.891,3.891,0,0,0-.98.72l-.08.24-.06-.18c-.18-.4-.76-.56-1.1-.96-.22-.26-.22-.36-.22-.36a1.14,1.14,0,0,0,.14.62,3.1,3.1,0,0,0,.76.62,1.442,1.442,0,0,1,.46.46m-.36-1.42c0-.62-.68-.7-.84-1.32-.08.88.52.9.84,1.32m.32,2.48.28-.16.42-.38.06-.44a.945.945,0,0,1-.26.38l-.32.32-.18.28m.6.38a14.9,14.9,0,0,1,.12,1.52h0l.32-.32a3.721,3.721,0,0,0-.44-1.2m-.56,2.26.34-.38.02-.02a3.676,3.676,0,0,0-.34-1.3,14.334,14.334,0,0,0-.02,1.7m0,.26.02.46.22-.24-.24-.22m.14.74c.38.42.92.96,1.26,1.3l.36-.36-1.34-1.24-.28.3m1.6,1.62c.28.28.62.6.88.86l.38-.42-.88-.82c-.02.02-.16.14-.38.38m.24-4.161a6.328,6.328,0,0,0-.84-.96,8.713,8.713,0,0,1,.36.98l.06-.02.16-.04.18.04h.08m-.32-5.081a2.858,2.858,0,0,1-.54.64l.08-.44-.52.68a1.738,1.738,0,0,0-.48.78,2.1,2.1,0,0,1,.58-.42,1.889,1.889,0,0,0,.88-1.24m-6.261-5.421a1.9,1.9,0,0,0,.8,1.44,5.187,5.187,0,0,0-.8-1.44M249.7,85.083l.34-.44a14.3,14.3,0,0,0-6.2-3.221,16.144,16.144,0,0,0-3.821-.38c-.68,0-1.12.28-1.12.7-.42-.08-.54-.62-.6-.72-.04.22-.26.66-.58.72,0-.42-.44-.7-1.12-.7a16.145,16.145,0,0,0-3.821.38,13.814,13.814,0,0,0-6.161,3.121l.34.44a12.689,12.689,0,0,1,5.081-2.841,16.6,16.6,0,0,1,4.461-.6c.8.04.92.5.82.74a1.282,1.282,0,0,1,2,0c-.1-.24.02-.7.82-.74a15.613,15.613,0,0,1,4.441.6,13.851,13.851,0,0,1,5.121,2.941m.9-1.62a3.015,3.015,0,0,0,.84,1.64l.22.14v.02a5.28,5.28,0,0,1,.66-2.4h0a4.883,4.883,0,0,0,2.08,0c-1.06-.72-.84-1.52-1.62-2.4l-.3-.28a1.448,1.448,0,0,0-.64-.28l-.36.16c-.1.12-1.2,1.3-1.94,2.12.7-.02.86.58,1.06,1.28m.72-3.941A11.348,11.348,0,0,0,248,77.361c-3.681-1.62-8.362-1.62-9.7-1.62h0c-1.34,0-6.021,0-9.7,1.62a11.083,11.083,0,0,0-3.321,2.16s1.66,1.86,2.1,2.38a.779.779,0,0,1,.16.88c2.561-1.72,5.461-2.581,10.662-2.6h.24c5.1.04,8.1.92,10.622,2.6a.807.807,0,0,1,.16-.88c.44-.5,2.1-2.38,2.1-2.38m-26.245.56h0c-.1-.12-.36-.34-1,.12-1.14.98-.78,1.88-1.94,2.681a5.447,5.447,0,0,0,1.04.1l.5-.02.56-.08h0a4.955,4.955,0,0,1,.66,2.38c1.38-.72.82-3.081,2.1-3.041-.76-.84-1.8-2.02-1.92-2.14m.9,4.721c1,1.34,1.76,2.36,1.92,2.561.36.48,1.56,1.92,1.56,1.74a14.348,14.348,0,0,0-1.22-1.78c-.68-.92-1.38-1.86-2.08-2.8l-.18.28m5.141,8.9a10.405,10.405,0,0,0,.48,2.8,5.865,5.865,0,0,0-.48-2.8m-.64-1.08a4.105,4.105,0,0,0,.04,1.4,4.734,4.734,0,0,0,.3.8,5.9,5.9,0,0,0-.34-2.2m2.36,8.3c.16-.52.34-3.881-.9-5.321a30.083,30.083,0,0,1,.9,5.321m-3.761,19.724a14.452,14.452,0,0,0,4.881.26,8.2,8.2,0,0,0,3.841-1.4c-.26-.22-.6-.54-.92-.86a6.4,6.4,0,0,1-1.32.9,17.108,17.108,0,0,1-4.421.96,26.582,26.582,0,0,0,4.421-1.36,7.269,7.269,0,0,0,1.02-.78c-.42-.4-.84-.82-1.16-1.12a4.508,4.508,0,0,1-.6.48,8.149,8.149,0,0,1-1.52.72,21.837,21.837,0,0,0-4.221,2.2m8.022-.16.12.34.16.36a2.507,2.507,0,0,0,.48-.7l.34-.68-.02-.02-.3.22-.44.28-.32.18-.02.02m6.521-19.564a28.023,28.023,0,0,1,.9-5.321c-1.24,1.46-1.06,4.8-.9,5.321m.3-5.561c.4-1.18.06-1.78-.16-1.9-.02.54.12.8.16,1.9m1,1.18a10.406,10.406,0,0,0,.48-2.8,5.626,5.626,0,0,0-.48,2.8m.78-1.66a5.477,5.477,0,0,0,.3-.8,4.1,4.1,0,0,0,.04-1.4,5.754,5.754,0,0,0-.34,2.2m3.161-7.6c.14-.2.84-1.12,1.78-2.38l-.18-.24c-.64.86-1.3,1.74-1.94,2.6-.46.64-1.2,1.66-1.22,1.76,0,.2,1.2-1.26,1.56-1.74m5.421-6.2-.34.44a3.314,3.314,0,0,0,1.44,1.52c-.34-.68-.7-1.32-1.1-1.96m-.78-.46.16.28c1.9-2.54,3.661-4.861,3.661-4.861a13.392,13.392,0,0,1-1.8,1.02,2.235,2.235,0,0,1-.4,1.46c-.06.06-.68.88-1.62,2.1M228.9,73.98a.682.682,0,0,0-.32.58,1.484,1.484,0,0,0-.38,1.58,12.8,12.8,0,0,0-5.121,3.761l.28.38a12.667,12.667,0,0,1,5.621-4,1.1,1.1,0,0,1,.24-1.52h0a1.309,1.309,0,0,1,1.3,1.04,28,28,0,0,1,6.261-.86,2.131,2.131,0,0,1,1.24-2.02.529.529,0,0,1,.28-.42h0a.561.561,0,0,1,.28.42,2.131,2.131,0,0,1,1.24,2.02,28,28,0,0,1,6.261.86,1.346,1.346,0,0,1,1.3-1.04h0a1.093,1.093,0,0,1,.22,1.52,12.772,12.772,0,0,1,5.681,4.041l.3-.38a13.429,13.429,0,0,0-5.181-3.8,1.485,1.485,0,0,0-.38-1.58.641.641,0,0,0-.32-.58h0l-.66.26a1.871,1.871,0,0,0-1.46,1,27.312,27.312,0,0,0-5.281-.7,2.2,2.2,0,0,0-1.32-1.92.708.708,0,0,0-1.4,0,2.187,2.187,0,0,0-1.32,1.92,29.22,29.22,0,0,0-5.281.7,1.9,1.9,0,0,0-1.44-1l-.64-.26M222.958,80.8l.16-.26c-.86-1.14-1.44-1.9-1.5-1.96a2.315,2.315,0,0,1-.4-1.46,13.393,13.393,0,0,1-1.8-1.02s1.68,2.24,3.541,4.7m-1.78,2.26a3.752,3.752,0,0,0,1.04-.92,3.53,3.53,0,0,0,.4-.68l-.36-.46c-.38.66-.74,1.36-1.08,2.06M218.2,97.005c.22.32.86,1.06,5.321,3.6a40.994,40.994,0,0,1,3.261-13.743c-.4-.52-.78-1.04-1.16-1.56a2.549,2.549,0,0,1-1.2.66,5.106,5.106,0,0,0-.6-2.641,10.019,10.019,0,0,1-2.661-.24c-1.76,3.781-2.641,8.162-2.961,13.923m15.9,26.465.02-.06c.14-.36.92-2.22.92-2.22l-.1.02a10.3,10.3,0,0,1-1.06.14,11.172,11.172,0,0,1-5.561-.56,21.458,21.458,0,0,1,1.94-1.34l.04-.28a2.79,2.79,0,0,1-1.38.32,2.781,2.781,0,0,1,.24-1.22,2.025,2.025,0,0,1-.86,0,12.327,12.327,0,0,1,1.02-2.2,20.229,20.229,0,0,1,1.96-2.7l-.08-.32.04-.32a1.635,1.635,0,0,1,.44-.8l.14-.14-.26-.22-.22.16a1.917,1.917,0,0,1-.56.18c-.28,0-.46-.04-.56-.2l-.02-.04-.42-.36-.02-.1-.42-.06c-.2-.18.08-1.04,1.02-1.94a6.3,6.3,0,0,1,1.88-1.26c.44-.2.72.18.5.46a1.4,1.4,0,0,0-.2,1.46c.28-.1.38-.14.42-.16l.38-.26.04-.1-.4.04c.2-.5-.12-1.72.1-2.5l-.28.16a9.98,9.98,0,0,1-.06-2.42c0-.16-.24-.42-.52-.72a13.988,13.988,0,0,1-1.06,1.5,5.829,5.829,0,0,0-1.7,3.061v.02l-.06.22h0l-.08.24-.06.16-.1.24a2.3,2.3,0,0,0-.26.96h0a28.425,28.425,0,0,1-.3,5.121,5.7,5.7,0,0,1-.64,1.86l-.08-.06a4.552,4.552,0,0,1-.74,1.74s-.38-.82-1.08-7.081c-.78-6.9-1.16-14.083-1.16-14.083a11.074,11.074,0,0,1,.54-3.861,12.824,12.824,0,0,1,2.38-4.121,1.7,1.7,0,0,1,.64-.42l.22-.04h0c-.48-.64-.98-1.3-1.46-1.94a40.244,40.244,0,0,0-3.081,13.523l-.02.72-.6-.34a28.313,28.313,0,0,1-5.361-3.441c-.04.74-.1,3.181-.1,3.181v1.52c0,2.921.52,10.1,2.9,15.023a14.35,14.35,0,0,0,2.841,3.761,11.276,11.276,0,0,0,4.221,2.48l.36.12a7.5,7.5,0,0,0,5.721-.5m-.12,2.02a1.562,1.562,0,0,1,1.64-.24,31,31,0,0,1,.48-3.841l-.24.18-.18.12h-.04l-.08-.1c-.26.6-1.58,3.861-1.58,3.881m6.9.62a43.109,43.109,0,0,0-.64-5.221h0l-.22-.08-.2.5a2.213,2.213,0,0,1-.42.64,2.958,2.958,0,0,1-1.06-1.24,2.853,2.853,0,0,1-1.04,1.22,1.862,1.862,0,0,1-.44-.64l-.22-.52-.02.04a45.3,45.3,0,0,0-.6,5.3c-1.34-.88-2.16,0-1.88.62l.08.14a.86.86,0,0,0,.68.36,4.224,4.224,0,0,1,1.66.38,5.31,5.31,0,0,1,1.9,1.56,5.311,5.311,0,0,1,1.9-1.56,4.3,4.3,0,0,1,1.66-.38.878.878,0,0,0,.66-.36l.1-.14c.28-.62-.54-1.5-1.9-.62m2.08-.62c0-.02-1.42-3.481-1.58-3.861h0l-.06.08h-.04a3.241,3.241,0,0,1-.52-.38,21.733,21.733,0,0,1,.56,3.921,1.562,1.562,0,0,1,1.64.24m15.583-24.365c-.02-.98-.08-2.44-.1-3.181a28.789,28.789,0,0,1-5.381,3.441l-.6.34-.02-.72A40.29,40.29,0,0,0,249.4,87.563c-.46.62-.94,1.24-1.4,1.88l.02.02.12.04a1.51,1.51,0,0,1,.6.4,13.055,13.055,0,0,1,2.38,4.121,11.491,11.491,0,0,1,.54,3.861h0s-.4,7.2-1.16,14.083c-.7,6.261-1.08,7.081-1.08,7.081a4.68,4.68,0,0,1-.74-1.72l-.06.06a5.394,5.394,0,0,1-.66-1.86,30.5,30.5,0,0,1-.3-5.121h0a2.239,2.239,0,0,0-.26-.96,3.521,3.521,0,0,1-.3-.88v-.02a5.876,5.876,0,0,0-1.7-3.061,11.433,11.433,0,0,1-1.14-1.64c-.34.32-.6.64-.6.82a7.473,7.473,0,0,1,.04,2.581l-.24-.2c.08.78-.28,1.66-.06,2.36l-.46-.06.06.12.22.2.16.08c.04.02.16.06.46.16a1.365,1.365,0,0,0-.2-1.44c-.22-.26.04-.64.5-.44a6.526,6.526,0,0,1,1.86,1.24c.94.9,1.22,1.76,1.02,1.94l-.46.04-.02.1-.4.36-.02.04c-.1.14-.26.2-.56.2a1.122,1.122,0,0,1-.56-.18l-.18-.14-.26.22.1.12a1.809,1.809,0,0,1,.44.8l.02.18a25.946,25.946,0,0,1,2.36,3.2,12.566,12.566,0,0,1,1.02,2.18,1.727,1.727,0,0,1-.86,0,3.106,3.106,0,0,1,.24,1.22,2.611,2.611,0,0,1-1.4-.3l.08.48c.7.46,1.22.88,1.5,1.08a11.3,11.3,0,0,1-5.581.56l-.5-.08-.1-.02s.8,1.92.94,2.22a7.492,7.492,0,0,0,4.821.74,7.815,7.815,0,0,0,1.22-.32,12.354,12.354,0,0,0,3.861-2.5,14.556,14.556,0,0,0,2.9-3.721c2.48-4.881,2.9-12.1,2.9-15.023.02-.98.02-1.5.02-1.54m-17.924-2a3.336,3.336,0,0,0,.96-2.18,2.14,2.14,0,0,1-.96,1.16,1.449,1.449,0,0,1-.54-.76,2.012,2.012,0,0,0,.54,1.78m-2.02-7.9a.951.951,0,0,0-.24,1.18s.74-.78.24-1.18m-.22,2.22a1.978,1.978,0,0,0,0,2.04c0-.02.46-1.4,0-2.04M236.78,92a1.206,1.206,0,0,0-.34,1.8,6.7,6.7,0,0,0,.34-1.8m.24,9.082a3.268,3.268,0,0,1-.9-.92,4.164,4.164,0,0,0,1.2,1.84,3.19,3.19,0,0,0,.18-2.46,4.92,4.92,0,0,1-.48,1.54m-.72-6.841c-.66.82.36,1.84.36,1.86-.02,0,.08-1.56-.36-1.86m1.06,4.361a3.1,3.1,0,0,0,.4-2.22,1.738,1.738,0,0,1-.64,1.26,1.567,1.567,0,0,1-.56-.7,1.963,1.963,0,0,0,.8,1.66m-.52,5.5a5.42,5.42,0,0,0-.66-1.84,2.217,2.217,0,0,0,.66,1.84m12.242-25.485c-.3-.08-.6-.16-.7-.32l.4.12.18-.16a.609.609,0,0,0-.9.16l.28.16-.38.18c.48-.04.92.08,1.12-.14m-.82.4c-.34.16-.4.26-.58.62-.2.46-.36.9-.58,1.3l.44-.14a4.44,4.44,0,0,0,1.24-1.94l-.52.16m-1.04.36a2.508,2.508,0,0,1-.48.72,18.292,18.292,0,0,0-3.641-.88,2.458,2.458,0,0,1-1.1.8,5.275,5.275,0,0,1-1.46-.42,1.9,1.9,0,0,0,.48,0,3.264,3.264,0,0,0,1.56-.46c-.86-.14-1.08-.36-.66-.92.2-.24.5-.7.98-.58.36.1.46.6.4,1a16.258,16.258,0,0,1,3.3.82c.06-.28-.12-.42-.24-.62l.54-.46a1,1,0,0,1,.32,1m-4.781-1.28-.26.28a.587.587,0,0,0,.46.2l.12.02c.1-.26-.12-.58-.32-.5m1.34,1.44-.54.3.42.42c.22-.12.32-.18.56-.3l-.44-.42m-3.821-3.1-.5-.36-.48.38.48.36a3.615,3.615,0,0,1,.5-.38M231.6,80.162l.56.24.4-.46c-.22-.1-.36-.16-.58-.24l-.38.46m9.142-1.3a37.9,37.9,0,0,0-9.4.76l-.46-.82c-.62-.66-.86.06-.86.14.78.04.9.44.9.44a1.863,1.863,0,0,1-.74.74,2.855,2.855,0,0,1-1.32.46c-1.46.08-1.06-1.44-.18-2.06-.12.14-.62.94-.3,1.34.36.46,1.7.08,2.02-.32a1.32,1.32,0,0,0-.98-.18,2.082,2.082,0,0,1,.82-1.44,2.11,2.11,0,0,1,1.22,1.04,35.285,35.285,0,0,1,6.2-.74c-.04-.36-.18-1.76-.18-1.84a.442.442,0,0,1,.28-.42,1.051,1.051,0,0,0,.68.54l-.44.36c.02.28.04.78.06.98a9.373,9.373,0,0,1,1.42-.5l.64-.06.56.24.24.44a4.451,4.451,0,0,1-.18.9m-.5-.92c-.3-.48-1.42-.04-2.12.24.4,0,.76-.02,1.2,0,.18,0,.64,0,.94.02l-.02-.26m-10.022,2.6-.44-.12-.3.5c.22.06.36.12.6.18l.22-.34.42.14.32-.5a5.609,5.609,0,0,0-.62-.18l-.2.32" transform="translate(-185.99 -71.6)" fill="#86868b"/>
    </g>
  </g>
</svg>
