<?xml version="1.0" encoding="utf-8"?>
<!-- Generator: Adobe Illustrator 27.0.0, SVG Export Plug-In . SVG Version: 6.00 Build 0)  -->
<svg version="1.1" id="Layer_1" xmlns="http://www.w3.org/2000/svg" xmlns:xlink="http://www.w3.org/1999/xlink" x="0px" y="0px"
	 viewBox="0 0 750.43 160.91" style="enable-background:new 0 0 750.43 160.91;" xml:space="preserve">
<style type="text/css">
	.st0{fill-rule:evenodd;clip-rule:evenodd;fill:#1D2B5C;}
	.st1{fill-rule:evenodd;clip-rule:evenodd;fill:#E21E30;}
	.st2{fill:#E21E30;}
	.st3{fill:#1D2B5C;}
</style>
<g>
	<path class="st0" d="M713.02,63h37.41c3.73-34.97-23.25-61.67-68.02-62.96C681.7,0.02,680.99,0,680.27,0l-10.28,16.32
		C699.68,19.09,716.85,38.41,713.02,63"/>
	<path class="st1" d="M604.03,128.87l-12.06,28.65c7.14,1.98,15.03,3.14,23.55,3.39c49.63,1.43,103.58-28.87,125.48-69.13
		l-35.11-9.23c-16.01,28-53.77,48.9-88.54,47.89C612.62,130.29,608.16,129.76,604.03,128.87"/>
	<path class="st0" d="M568.84,146.64l18.1-24.47c-16.77-10.41-23.08-29.48-14.17-50.92c1.33-3.16,2.91-6.25,4.75-9.25l-15.99-0.43
		c-3.46,5.19-6.37,10.58-8.67,16.13C541.03,106.09,548.23,131.56,568.84,146.64"/>
	<path class="st1" d="M571.44,48.77l12.89,3.83c16.19-19.25,42.61-33.37,68.92-36.13l7.72-15.17
		C626.92,6.19,593.26,24.3,571.44,48.77"/>
	<path class="st1" d="M576.02,87.45l19.52-8.97c-0.28-3.93,0.42-8.19,2.25-12.63c3.77-9.16,11.56-17.33,21.13-23.12l-6.5-7.97
		c-14.85,8.99-26.96,21.67-32.81,35.91C577.21,76.52,576.05,82.16,576.02,87.45"/>
	<path class="st0" d="M644.94,120.4l-4.28-22.81c-5.72,1.78-11.64,2.68-17.42,2.5c-12.47-0.36-21.54-5.63-25.52-13.56l-20.04,11.83
		c4.83,14.76,19.87,24.9,41.5,25.52C627.72,124.13,636.46,122.88,644.94,120.4"/>
	<path class="st1" d="M654.64,91.33l13.78,18.65c14.73-8.98,26.75-21.6,32.56-35.77c5.64-13.7,4.43-26.33-2.1-35.85l-22.59,9.81
		c2.57,5.65,2.63,12.56-0.41,19.96C672.1,77.34,664.24,85.54,654.64,91.33"/>
	<path class="st0" d="M670.83,40.93l17.84-12.33c-7.1-4.52-16.33-7.28-27.25-7.6c-12.05-0.35-24.51,2.3-36.06,7.16l1.31,10.57
		c7.58-3.27,15.8-5.07,23.75-4.83C659.02,34.16,666,36.75,670.83,40.93"/>
	<path class="st1" d="M638.12,53.65c-6.7-0.2-14.03,4.25-16.36,9.94c-2.33,5.68,1.2,10.44,7.91,10.64
		c6.71,0.2,14.03-4.25,16.36-9.94C648.36,58.61,644.83,53.85,638.12,53.65 M647.13,40.07c-17.13-0.51-35.87,10.87-41.82,25.4
		c-5.97,14.53,3.09,26.71,20.24,27.21c17.13,0.5,35.85-10.87,41.81-25.4C673.33,52.75,664.27,40.57,647.13,40.07"/>
	<path class="st0" d="M214.96,94.68h42.06v-7.67h-32.59V76.92h18.79v-6.93h-18.79V60.9h32.2v-6.93h-41.67V94.68z M163.46,94.68h9.55
		V76.77l24.38,17.91h15.22l-30.28-21.53l26.96-19.18h-13.71l-22.57,16.98V53.97h-9.55V94.68z M143.89,61.25v7.71l9.47-1.5V63.6
		c0-3.69-0.7-6.23-2.1-7.6c-1.4-1.35-4.06-2.03-7.99-2.03h-24.3c-3.95,0-6.62,0.68-8.01,2.03c-1.39,1.37-2.08,3.9-2.08,7.6v21.45
		c0,3.73,0.69,6.26,2.08,7.61c1.39,1.35,4.05,2.03,8.01,2.03h24.3c3.93,0,6.59-0.68,7.99-2.03c1.4-1.35,2.1-3.88,2.1-7.61v-4.81
		l-9.47-1.96v8.74h-25.54V61.25H143.89z M59.88,61.25h31.24v25.76H59.88V61.25z M50.4,63.6v21.45c0,3.73,0.69,6.26,2.08,7.61
		c1.39,1.35,4.06,2.03,8.01,2.03h29.97c3.95,0,6.63-0.68,8.01-2.03c1.39-1.35,2.08-3.88,2.08-7.61V63.6c0-3.69-0.69-6.23-2.08-7.6
		c-1.39-1.35-4.06-2.03-8.01-2.03H60.49c-3.95,0-6.62,0.68-8.01,2.03C51.09,57.37,50.4,59.91,50.4,63.6 M0,93.84h47.14v-9.03H11.16
		V45.89H0V93.84z"/>
	<path class="st1" d="M501.18,94.68h9.56V76.24l21.07-22.26h-11.13l-14.02,15.63l-13.98-15.63h-12.64l21.15,22.49V94.68z
		 M437.5,94.68h42.06v-7.67h-32.59V76.92h18.8v-6.93h-18.8V60.9h32.21v-6.93H437.5V94.68z M415.15,61.01c1.64,0,2.77,0.24,3.37,0.72
		c0.61,0.47,0.91,1.3,0.91,2.48v4.89c0,1.21-0.3,2.05-0.91,2.52c-0.6,0.47-1.72,0.71-3.37,0.71h-21.3V61.01H415.15z M384.53,94.68
		h9.32V79.32h8.98l16.41,15.37h13.6l-18.79-15.37h5.32c3.24,0,5.58-0.63,7.03-1.89c1.45-1.25,2.17-3.26,2.17-6.01v-9.55
		c0-2.77-0.72-4.79-2.17-6.04c-1.45-1.24-3.79-1.86-7.03-1.86h-34.82V94.68z M343.07,78.42l9.06-16.55l8.78,16.55H343.07z
		 M324.86,94.68h9.43l4.74-8.9h25.81l4.89,8.9h10.63l-23.34-40.71h-9.13L324.86,94.68z M307.21,56.84v8.72l10.73-1.7v-4.37
		c0-4.18-0.79-7.05-2.38-8.59c-1.59-1.54-4.6-2.31-9.05-2.31H279c-4.48,0-7.5,0.77-9.07,2.31c-1.57,1.54-2.35,4.4-2.35,8.59v24.29
		c0,4.22,0.78,7.09,2.35,8.61c1.57,1.53,4.59,2.29,9.07,2.29h27.52c4.45,0,7.46-0.76,9.05-2.29c1.59-1.52,2.38-4.4,2.38-8.61v-5.45
		l-10.73-2.23v9.9h-28.91V56.84H307.21z"/>
	<polygon class="st2" points="3.7,120.96 14.24,120.96 14.24,124.16 7.61,124.16 7.61,128.1 13.81,128.1 13.81,131.28 7.61,131.28 
		7.61,138.21 3.7,138.21 	"/>
	<path class="st2" d="M20.55,122.21c0,1.07-0.82,1.95-2.1,1.95c-1.23,0-2.05-0.88-2.02-1.95c-0.03-1.12,0.79-1.97,2.05-1.97
		C19.73,120.24,20.53,121.09,20.55,122.21 M16.53,125.7h3.89v12.52h-3.89V125.7z"/>
	<path class="st2" d="M23.54,129.82c0-1.85-0.05-3.05-0.1-4.12h3.35l0.13,2.3h0.11c0.64-1.81,2.17-2.59,3.38-2.59
		c0.36,0,0.53,0,0.82,0.06v3.66c-0.28-0.05-0.61-0.1-1.05-0.1c-1.43,0-2.41,0.77-2.66,1.97c-0.05,0.25-0.08,0.56-0.08,0.87v6.35
		h-3.89V129.82z"/>
	<path class="st2" d="M36.05,133.2c0.13,1.61,1.71,2.38,3.53,2.38c1.34,0,2.41-0.18,3.46-0.51l0.51,2.64
		c-1.28,0.51-2.84,0.77-4.53,0.77c-4.25,0-6.68-2.45-6.68-6.37c0-3.17,1.97-6.68,6.32-6.68c4.04,0,5.58,3.15,5.58,6.25
		c0,0.66-0.08,1.25-0.13,1.54H36.05z M40.63,130.54c0-0.95-0.41-2.53-2.2-2.53c-1.64,0-2.31,1.48-2.41,2.53H40.63z"/>
	<path class="st2" d="M51.99,134.2c1.05,0.53,2.66,1.07,4.33,1.07c1.79,0,2.74-0.75,2.74-1.87c0-1.07-0.82-1.69-2.9-2.43
		c-2.86-1-4.73-2.59-4.73-5.1c0-2.94,2.46-5.19,6.54-5.19c1.94,0,3.37,0.41,4.4,0.87l-0.87,3.15c-0.69-0.33-1.92-0.82-3.61-0.82
		c-1.69,0-2.51,0.77-2.51,1.66c0,1.1,0.97,1.59,3.2,2.44c3.05,1.13,4.48,2.71,4.48,5.15c0,2.9-2.23,5.35-6.96,5.35
		c-1.97,0-3.91-0.51-4.89-1.05L51.99,134.2z"/>
	<path class="st2" d="M72.86,138.21l-0.23-1.25h-0.08c-0.82,1-2.1,1.54-3.58,1.54c-2.54,0-4.05-1.85-4.05-3.84
		c0-3.26,2.92-4.81,7.35-4.79v-0.18c0-0.66-0.35-1.61-2.28-1.61c-1.28,0-2.63,0.44-3.45,0.95l-0.71-2.51
		c0.87-0.49,2.58-1.1,4.86-1.1c4.17,0,5.5,2.46,5.5,5.4v4.35c0,1.2,0.06,2.36,0.18,3.05H72.86z M72.4,132.3
		c-2.05-0.03-3.64,0.46-3.64,1.97c0,1,0.67,1.48,1.54,1.48c0.97,0,1.77-0.64,2.02-1.43c0.05-0.2,0.08-0.43,0.08-0.66V132.3z"/>
	<path class="st2" d="M79.68,138.21v-9.65h-1.63v-2.87h1.63v-0.49c0-1.51,0.46-3.17,1.59-4.2c0.97-0.92,2.33-1.25,3.45-1.25
		c0.87,0,1.54,0.1,2.08,0.25l-0.15,3c-0.33-0.1-0.75-0.18-1.25-0.18c-1.28,0-1.82,1-1.82,2.23v0.64h2.51v2.87H83.6v9.65H79.68z"/>
	<path class="st2" d="M90.72,133.2c0.13,1.61,1.72,2.38,3.53,2.38c1.33,0,2.41-0.18,3.46-0.51l0.51,2.64
		c-1.28,0.51-2.84,0.77-4.53,0.77c-4.25,0-6.68-2.45-6.68-6.37c0-3.17,1.97-6.68,6.32-6.68c4.05,0,5.58,3.15,5.58,6.25
		c0,0.66-0.08,1.25-0.13,1.54H90.72z M95.3,130.54c0-0.95-0.41-2.53-2.2-2.53c-1.64,0-2.31,1.48-2.41,2.53H95.3z"/>
	<path class="st2" d="M105.58,122.11v3.59h2.79v2.87h-2.79v4.53c0,1.51,0.36,2.2,1.54,2.2c0.49,0,0.87-0.05,1.15-0.1l0.03,2.94
		c-0.51,0.21-1.43,0.33-2.53,0.33c-1.26,0-2.31-0.44-2.93-1.08c-0.71-0.74-1.07-1.95-1.07-3.71v-5.11h-1.66v-2.87h1.66v-2.72
		L105.58,122.11z"/>
	<path class="st2" d="M113.66,125.7l1.87,6.15c0.21,0.75,0.46,1.67,0.62,2.33h0.07c0.18-0.66,0.39-1.61,0.56-2.33l1.54-6.15h4.17
		l-2.92,8.24c-1.79,4.97-2.99,6.96-4.4,8.21c-1.36,1.18-2.79,1.59-3.76,1.72l-0.82-3.3c0.49-0.08,1.1-0.31,1.69-0.67
		c0.59-0.31,1.23-0.92,1.61-1.56c0.13-0.18,0.21-0.39,0.21-0.57c0-0.13-0.03-0.34-0.18-0.64l-4.58-11.45H113.66z"/>
	<path class="st3" d="M129.92,121.19c1.36-0.2,2.97-0.36,4.74-0.36c3.2,0,5.47,0.75,6.99,2.15c1.53,1.41,2.43,3.4,2.43,6.19
		c0,2.82-0.87,5.12-2.49,6.71c-1.61,1.61-4.28,2.48-7.63,2.48c-1.59,0-2.92-0.08-4.05-0.21V121.19z M132.15,136.45
		c0.56,0.11,1.39,0.13,2.25,0.13c4.76,0,7.35-2.66,7.35-7.32c0.02-4.07-2.28-6.65-6.99-6.65c-1.15,0-2.02,0.1-2.61,0.22V136.45z"/>
	<path class="st3" d="M148.24,132.43c0.04,3.05,1.99,4.3,4.25,4.3c1.61,0,2.59-0.28,3.43-0.64l0.38,1.61
		c-0.79,0.35-2.15,0.77-4.12,0.77c-3.81,0-6.09-2.51-6.09-6.25c0-3.74,2.2-6.69,5.81-6.69c4.05,0,5.12,3.57,5.12,5.84
		c0,0.46-0.05,0.83-0.07,1.05H148.24z M154.84,130.81c0.03-1.43-0.58-3.66-3.12-3.66c-2.28,0-3.28,2.1-3.46,3.66H154.84z"/>
	<path class="st3" d="M159.49,135.91c0.67,0.44,1.85,0.89,2.97,0.89c1.64,0,2.4-0.82,2.4-1.84c0-1.08-0.64-1.67-2.3-2.28
		c-2.23-0.79-3.28-2.02-3.28-3.5c0-2,1.61-3.64,4.27-3.64c1.26,0,2.35,0.36,3.05,0.77l-0.56,1.64c-0.49-0.3-1.39-0.71-2.54-0.71
		c-1.33,0-2.07,0.76-2.07,1.69c0,1.02,0.75,1.48,2.36,2.1c2.15,0.82,3.25,1.89,3.25,3.73c0,2.17-1.69,3.71-4.64,3.71
		c-1.35,0-2.61-0.33-3.48-0.85L159.49,135.91z"/>
	<path class="st3" d="M172.44,122.34c0.03,0.77-0.54,1.38-1.44,1.38c-0.79,0-1.35-0.61-1.35-1.38c0-0.79,0.59-1.41,1.41-1.41
		C171.9,120.93,172.44,121.55,172.44,122.34 M169.92,125.83h2.26v12.39h-2.26V125.83z"/>
	<path class="st3" d="M186.59,125.83c-0.05,0.89-0.11,1.89-0.11,3.41v7.19c0,2.84-0.57,4.58-1.77,5.66
		c-1.21,1.12-2.95,1.48-4.51,1.48c-1.49,0-3.12-0.36-4.12-1.02l0.57-1.71c0.82,0.5,2.1,0.96,3.63,0.96c2.31,0,3.99-1.2,3.99-4.32
		v-1.39h-0.06c-0.69,1.15-2.02,2.07-3.94,2.07c-3.08,0-5.27-2.61-5.27-6.04c0-4.19,2.74-6.58,5.58-6.58c2.15,0,3.33,1.14,3.87,2.15
		h0.05l0.1-1.86H186.59z M184.26,130.71c0-0.39-0.03-0.72-0.13-1.03c-0.4-1.3-1.51-2.38-3.15-2.38c-2.15,0-3.69,1.82-3.69,4.69
		c0,2.43,1.24,4.45,3.66,4.45c1.39,0,2.64-0.87,3.13-2.3c0.13-0.39,0.18-0.83,0.18-1.21V130.71z"/>
	<path class="st3" d="M190.06,129.18c0-1.28-0.03-2.33-0.11-3.35h2l0.13,2.05h0.05c0.61-1.18,2.04-2.34,4.1-2.34
		c1.71,0,4.37,1.03,4.37,5.28v7.39h-2.25v-7.14c0-2-0.74-3.66-2.87-3.66c-1.48,0-2.63,1.05-3.02,2.31
		c-0.11,0.28-0.16,0.67-0.16,1.05v7.45h-2.25V129.18z"/>
	<path class="st2" d="M213.07,132.75c0,1.45-1.18,2.63-2.63,2.63c-1.46,0-2.63-1.18-2.63-2.63c0-1.46,1.18-2.64,2.63-2.64
		C211.88,130.11,213.07,131.29,213.07,132.75"/>
	<path class="st2" d="M360.25,132.75c0,1.45-1.18,2.63-2.64,2.63c-1.45,0-2.63-1.18-2.63-2.63c0-1.46,1.18-2.64,2.63-2.64
		C359.07,130.11,360.25,131.29,360.25,132.75"/>
	<polygon class="st3" points="230.3,130.19 223.6,130.19 223.6,136.41 231.08,136.41 231.08,138.27 221.38,138.27 221.38,121.03 
		230.69,121.03 230.69,122.89 223.6,122.89 223.6,128.35 230.3,128.35 	"/>
	<path class="st3" d="M233.88,129.24c0-1.28-0.03-2.33-0.1-3.35h2l0.13,2.05h0.04c0.62-1.18,2.05-2.33,4.1-2.33
		c1.72,0,4.38,1.02,4.38,5.28v7.39h-2.25v-7.14c0-2-0.74-3.66-2.87-3.66c-1.49,0-2.64,1.05-3.02,2.31
		c-0.11,0.28-0.15,0.67-0.15,1.05v7.45h-2.26V129.24z"/>
	<path class="st3" d="M258.75,125.89c-0.05,0.89-0.1,1.89-0.1,3.41v7.2c0,2.84-0.57,4.58-1.77,5.65c-1.2,1.12-2.94,1.48-4.5,1.48
		c-1.49,0-3.12-0.36-4.12-1.02l0.57-1.71c0.82,0.51,2.1,0.97,3.63,0.97c2.31,0,3.99-1.2,3.99-4.33v-1.38h-0.05
		c-0.69,1.15-2.02,2.07-3.94,2.07c-3.07,0-5.27-2.61-5.27-6.04c0-4.19,2.74-6.57,5.58-6.57c2.15,0,3.33,1.13,3.87,2.15h0.05
		l0.1-1.87H258.75z M256.42,130.78c0-0.39-0.03-0.72-0.13-1.03c-0.41-1.31-1.51-2.38-3.15-2.38c-2.14,0-3.69,1.82-3.69,4.69
		c0,2.43,1.23,4.45,3.66,4.45c1.39,0,2.63-0.87,3.12-2.31c0.13-0.39,0.18-0.82,0.18-1.2V130.78z"/>
	<path class="st3" d="M264.73,122.4c0.02,0.77-0.54,1.39-1.43,1.39c-0.8,0-1.36-0.62-1.36-1.39c0-0.79,0.58-1.41,1.4-1.41
		C264.19,121,264.73,121.61,264.73,122.4 M262.22,125.88h2.25v12.39h-2.25V125.88z"/>
	<path class="st3" d="M268.2,129.24c0-1.28-0.02-2.33-0.1-3.35h2l0.12,2.05h0.05c0.62-1.18,2.05-2.33,4.09-2.33
		c1.72,0,4.38,1.02,4.38,5.28v7.39h-2.25v-7.14c0-2-0.74-3.66-2.87-3.66c-1.49,0-2.64,1.05-3.02,2.31c-0.1,0.28-0.15,0.67-0.15,1.05
		v7.45h-2.26V129.24z"/>
	<path class="st3" d="M283.66,132.49c0.05,3.05,1.99,4.3,4.25,4.3c1.62,0,2.59-0.28,3.43-0.64l0.38,1.62
		c-0.79,0.36-2.15,0.77-4.12,0.77c-3.81,0-6.09-2.51-6.09-6.25c0-3.73,2.2-6.68,5.81-6.68c4.05,0,5.12,3.56,5.12,5.83
		c0,0.47-0.05,0.82-0.07,1.06H283.66z M290.26,130.88c0.03-1.43-0.58-3.66-3.12-3.66c-2.28,0-3.28,2.1-3.45,3.66H290.26z"/>
	<path class="st3" d="M296.47,132.49c0.05,3.05,1.99,4.3,4.25,4.3c1.61,0,2.59-0.28,3.43-0.64l0.39,1.62
		c-0.8,0.36-2.15,0.77-4.12,0.77c-3.81,0-6.1-2.51-6.1-6.25c0-3.73,2.2-6.68,5.82-6.68c4.05,0,5.12,3.56,5.12,5.83
		c0,0.47-0.05,0.82-0.07,1.06H296.47z M303.08,130.88c0.03-1.43-0.59-3.66-3.12-3.66c-2.28,0-3.28,2.1-3.46,3.66H303.08z"/>
	<path class="st3" d="M308.03,129.75c0-1.46-0.03-2.71-0.11-3.87h1.97l0.08,2.43h0.1c0.57-1.66,1.92-2.71,3.43-2.71
		c0.26,0,0.44,0.03,0.64,0.08v2.13c-0.23-0.05-0.46-0.08-0.77-0.08c-1.58,0-2.71,1.21-3.02,2.9c-0.05,0.31-0.1,0.66-0.1,1.04v6.61
		h-2.23V129.75z"/>
	<path class="st3" d="M319.01,122.4c0.03,0.77-0.54,1.39-1.43,1.39c-0.79,0-1.36-0.62-1.36-1.39c0-0.79,0.59-1.41,1.41-1.41
		C318.47,121,319.01,121.61,319.01,122.4 M316.5,125.88h2.25v12.39h-2.25V125.88z"/>
	<path class="st3" d="M322.48,129.24c0-1.28-0.03-2.33-0.1-3.35h2l0.13,2.05h0.05c0.61-1.18,2.05-2.33,4.1-2.33
		c1.71,0,4.38,1.02,4.38,5.28v7.39h-2.25v-7.14c0-2-0.74-3.66-2.87-3.66c-1.49,0-2.64,1.05-3.02,2.31
		c-0.11,0.28-0.16,0.67-0.16,1.05v7.45h-2.25V129.24z"/>
	<path class="st3" d="M347.35,125.89c-0.05,0.89-0.1,1.89-0.1,3.41v7.2c0,2.84-0.56,4.58-1.77,5.65c-1.2,1.12-2.95,1.48-4.51,1.48
		c-1.48,0-3.13-0.36-4.12-1.02l0.56-1.71c0.82,0.51,2.1,0.97,3.64,0.97c2.3,0,3.99-1.2,3.99-4.33v-1.38H345
		c-0.69,1.15-2.02,2.07-3.94,2.07c-3.08,0-5.27-2.61-5.27-6.04c0-4.19,2.73-6.57,5.58-6.57c2.15,0,3.33,1.13,3.87,2.15h0.05
		l0.11-1.87H347.35z M345.02,130.78c0-0.39-0.03-0.72-0.13-1.03c-0.41-1.31-1.51-2.38-3.15-2.38c-2.15,0-3.69,1.82-3.69,4.69
		c0,2.43,1.23,4.45,3.67,4.45c1.38,0,2.63-0.87,3.12-2.31c0.13-0.39,0.18-0.82,0.18-1.2V130.78z"/>
	<path class="st3" d="M383.45,130.64c-0.13-2.41-0.28-5.3-0.26-7.45h-0.07c-0.59,2.02-1.31,4.17-2.18,6.56l-3.05,8.37h-1.69
		l-2.79-8.22c-0.82-2.44-1.51-4.66-1.99-6.71h-0.05c-0.05,2.15-0.18,5.04-0.33,7.63l-0.46,7.4h-2.13l1.2-17.26h2.84l2.95,8.35
		c0.71,2.13,1.3,4.01,1.74,5.81h0.08c0.44-1.74,1.05-3.64,1.82-5.81l3.07-8.35h2.84l1.08,17.26h-2.18L383.45,130.64z"/>
	<path class="st3" d="M396.41,138.21l-0.18-1.56h-0.07c-0.69,0.97-2.02,1.85-3.79,1.85c-2.51,0-3.79-1.77-3.79-3.56
		c0-2.99,2.66-4.63,7.45-4.61v-0.26c0-1.02-0.28-2.86-2.81-2.86c-1.15,0-2.35,0.36-3.22,0.92l-0.52-1.49
		c1.02-0.67,2.51-1.1,4.07-1.1c3.79,0,4.71,2.59,4.71,5.07v4.64c0,1.07,0.05,2.12,0.21,2.97H396.41z M396.08,131.89
		c-2.46-0.05-5.25,0.39-5.25,2.79c0,1.46,0.97,2.15,2.13,2.15c1.61,0,2.63-1.03,2.99-2.08c0.07-0.23,0.13-0.48,0.13-0.71V131.89z"/>
	<path class="st3" d="M401.88,129.18c0-1.28-0.03-2.33-0.11-3.35h2l0.13,2.05h0.05c0.61-1.18,2.04-2.34,4.1-2.34
		c1.71,0,4.37,1.03,4.37,5.28v7.39h-2.25v-7.14c0-2-0.74-3.66-2.87-3.66c-1.48,0-2.63,1.05-3.01,2.31
		c-0.11,0.28-0.16,0.67-0.16,1.05v7.45h-2.25V129.18z"/>
	<path class="st3" d="M422.93,138.21l-0.18-1.56h-0.07c-0.69,0.97-2.02,1.85-3.79,1.85c-2.52,0-3.8-1.77-3.8-3.56
		c0-2.99,2.67-4.63,7.45-4.61v-0.26c0-1.02-0.28-2.86-2.81-2.86c-1.15,0-2.35,0.36-3.22,0.92l-0.52-1.49
		c1.02-0.67,2.51-1.1,4.07-1.1c3.79,0,4.71,2.59,4.71,5.07v4.64c0,1.07,0.05,2.12,0.21,2.97H422.93z M422.6,131.89
		c-2.46-0.05-5.25,0.39-5.25,2.79c0,1.46,0.97,2.15,2.13,2.15c1.61,0,2.64-1.03,2.99-2.08c0.07-0.23,0.13-0.48,0.13-0.71V131.89z"/>
	<path class="st3" d="M439.07,125.83c-0.05,0.89-0.1,1.89-0.1,3.41v7.19c0,2.84-0.57,4.58-1.77,5.66c-1.2,1.12-2.95,1.48-4.51,1.48
		c-1.48,0-3.12-0.36-4.12-1.02l0.57-1.71c0.82,0.5,2.1,0.96,3.63,0.96c2.3,0,3.99-1.2,3.99-4.32v-1.39h-0.05
		c-0.69,1.15-2.02,2.07-3.94,2.07c-3.07,0-5.27-2.61-5.27-6.04c0-4.19,2.73-6.58,5.58-6.58c2.15,0,3.33,1.14,3.87,2.15h0.06
		l0.1-1.86H439.07z M436.75,130.71c0-0.39-0.03-0.72-0.13-1.03c-0.4-1.3-1.51-2.38-3.15-2.38c-2.15,0-3.69,1.82-3.69,4.69
		c0,2.43,1.23,4.45,3.66,4.45c1.39,0,2.63-0.87,3.12-2.3c0.12-0.39,0.18-0.83,0.18-1.21V130.71z"/>
	<path class="st3" d="M443.95,132.43c0.05,3.05,2,4.3,4.25,4.3c1.62,0,2.59-0.28,3.43-0.64l0.38,1.61
		c-0.79,0.35-2.15,0.77-4.12,0.77c-3.81,0-6.09-2.51-6.09-6.25c0-3.74,2.2-6.69,5.81-6.69c4.05,0,5.12,3.57,5.12,5.84
		c0,0.46-0.05,0.83-0.07,1.05H443.95z M450.56,130.81c0.03-1.43-0.59-3.66-3.12-3.66c-2.28,0-3.28,2.1-3.46,3.66H450.56z"/>
	<path class="st3" d="M455.51,129.18c0-1.28-0.03-2.33-0.1-3.35h1.97l0.11,1.99h0.08c0.69-1.17,1.84-2.28,3.89-2.28
		c1.69,0,2.97,1.03,3.51,2.49h0.05c0.39-0.69,0.87-1.23,1.39-1.61c0.74-0.57,1.56-0.88,2.74-0.88c1.64,0,4.07,1.08,4.07,5.38v7.29
		H471v-7.01c0-2.38-0.87-3.82-2.69-3.82c-1.28,0-2.27,0.95-2.66,2.05c-0.11,0.31-0.18,0.72-0.18,1.13v7.65h-2.2v-7.42
		c0-1.97-0.86-3.41-2.58-3.41c-1.41,0-2.43,1.13-2.79,2.26c-0.13,0.33-0.18,0.71-0.18,1.1v7.47h-2.2V129.18z"/>
	<path class="st3" d="M478.1,132.43c0.04,3.05,1.99,4.3,4.24,4.3c1.61,0,2.59-0.28,3.43-0.64l0.39,1.61
		c-0.79,0.35-2.15,0.77-4.13,0.77c-3.81,0-6.09-2.51-6.09-6.25c0-3.74,2.2-6.69,5.81-6.69c4.05,0,5.12,3.57,5.12,5.84
		c0,0.46-0.05,0.83-0.07,1.05H478.1z M484.71,130.81c0.03-1.43-0.59-3.66-3.12-3.66c-2.28,0-3.28,2.1-3.46,3.66H484.71z"/>
	<path class="st3" d="M489.66,129.18c0-1.28-0.03-2.33-0.1-3.35h2l0.13,2.05h0.05c0.62-1.18,2.05-2.34,4.1-2.34
		c1.72,0,4.37,1.03,4.37,5.28v7.39h-2.25v-7.14c0-2-0.74-3.66-2.87-3.66c-1.48,0-2.64,1.05-3.02,2.31
		c-0.11,0.28-0.16,0.67-0.16,1.05v7.45h-2.25V129.18z"/>
	<path class="st3" d="M506.47,122.26v3.56h3.22v1.71h-3.22v6.68c0,1.54,0.43,2.4,1.69,2.4c0.59,0,1.03-0.07,1.31-0.15l0.1,1.69
		c-0.43,0.18-1.13,0.31-1.99,0.31c-1.05,0-1.89-0.34-2.43-0.95c-0.64-0.67-0.87-1.77-0.87-3.23v-6.76h-1.92v-1.71h1.92v-2.98
		L506.47,122.26z"/>
</g>
</svg>
