<svg xmlns="http://www.w3.org/2000/svg" width="260" height="166" viewBox="0 0 260 166">
  <g id="logo1" transform="translate(-2072 -3335)">
    <rect id="Rectangle_17" data-name="Rectangle 17" width="260" height="166" transform="translate(2072 3335)" fill="none"/>
    <g id="Burjeel_Hospital" data-name="Burjeel Hospital" transform="translate(2139.21 3368)">
      <path id="XMLID_1_" d="M-41.36,118.82v3.68h3.9v-3.68h1.68V128h-1.68v-4.04h-3.9V128h-1.68v-9.18h1.68ZM-31,128.14a3.3,3.3,0,0,0,3.4-3.54,3.187,3.187,0,0,0-3.3-3.4,3.281,3.281,0,0,0-3.44,3.5A3.218,3.218,0,0,0-31,128.14Zm.04-1.2c-1,0-1.64-.96-1.64-2.24,0-1.1.48-2.26,1.66-2.26,1.16,0,1.62,1.2,1.62,2.24,0,1.34-.68,2.26-1.64,2.26Zm4.34.72a4.432,4.432,0,0,0,2.02.46c1.76,0,2.7-.88,2.7-2.08-.02-.98-.56-1.6-1.78-2.02-.84-.32-1.16-.5-1.16-.92,0-.4.32-.7.92-.7a2.866,2.866,0,0,1,1.4.38l.34-1.18a3.84,3.84,0,0,0-1.78-.4c-1.54,0-2.52.9-2.52,2.06,0,.8.54,1.5,1.84,1.94.82.3,1.1.52,1.1.98,0,.44-.32.74-1.06.74a3.866,3.866,0,0,1-1.7-.48Zm6.12,3.04h1.68v-3.44h.02a2.168,2.168,0,0,0,1.88.88c1.52,0,3.04-1.16,3.04-3.56,0-2.06-1.26-3.38-2.8-3.38a2.55,2.55,0,0,0-2.28,1.18h-.02l-.08-1.02h-1.48c.02.62.06,1.34.06,2.2v7.14Zm1.68-6.5a1.523,1.523,0,0,1,.06-.42,1.59,1.59,0,0,1,1.52-1.24c1.08,0,1.66.96,1.66,2.12,0,1.3-.62,2.18-1.7,2.18a1.5,1.5,0,0,1-1.48-1.16,3.282,3.282,0,0,1-.04-.46V124.2Zm7.16-3.78a.894.894,0,0,0,.94-.9.894.894,0,0,0-.94-.9.894.894,0,0,0-.94.9.894.894,0,0,0,.94.9ZM-12.5,128h1.68v-6.64H-12.5Zm3.76-7.88v1.24h-.94v1.26h.94v3.1a2.557,2.557,0,0,0,.54,1.86,1.946,1.946,0,0,0,1.46.54,3.561,3.561,0,0,0,1.22-.18l-.02-1.26a2.117,2.117,0,0,1-.66.06c-.64,0-.86-.4-.86-1.22V122.6h1.6v-1.24h-1.6v-1.7Zm9.7,3.9a2.49,2.49,0,0,0-2.76-2.8,4.727,4.727,0,0,0-2.4.58l.32,1.08a3.644,3.644,0,0,1,1.8-.48c1.18,0,1.36.72,1.36,1.16v.1c-2.46-.02-3.96.84-3.96,2.5a1.988,1.988,0,0,0,2.1,1.98,2.436,2.436,0,0,0,1.96-.88h.04l.12.74H1.06a9.361,9.361,0,0,1-.1-1.6v-2.38Zm-1.64,1.64a1.107,1.107,0,0,1-.04.36,1.366,1.366,0,0,1-1.34.9.891.891,0,0,1-.96-.96c0-1,1.14-1.24,2.32-1.24v.94ZM2.74,128H4.42v-9.7H2.74ZM7.9,45.66H3.78a3.687,3.687,0,0,1-1.26-.32,10.492,10.492,0,0,1-1.24-.58l-4.1-2.4A6.71,6.71,0,0,0-6.26,41.3a2.792,2.792,0,0,0-2.3.86c-1.46,1.64.38,3.84.38,3.84l.2-.12a1.9,1.9,0,0,1,.44-2.08,2.156,2.156,0,0,1,2.26-.14,9.445,9.445,0,0,1,1.02.5L-.42,46.4a19.152,19.152,0,0,0-2.46,1.18C-4.72,48.64-5.46,49-5.74,49.12a8.479,8.479,0,0,1-3.34.7l-12.42.02c-5.52,0-7.56-2.88-7.62-5.56v-8.1h-.32a1.955,1.955,0,0,0-2,1.92v6.18c-.08,2.56-2.1,5.56-7.62,5.56h-2.62c-5.34,0-7.34-2.78-7.42-5.36V30.7h-.48a1.948,1.948,0,0,0-1.88,2.02v18a5.384,5.384,0,0,1-1.52,4.06,6.909,6.909,0,0,1-4.96,1.6,6.3,6.3,0,0,1-4.42-1.66,5.148,5.148,0,0,1-1.72-3.92,5.5,5.5,0,0,1,1.72-4.16,7.2,7.2,0,0,1,4.98-1.76,6.032,6.032,0,0,1,1.82.18l.48.16-.02-.5a2.285,2.285,0,0,0-2.58-1.98h-.18A10.289,10.289,0,0,0-64.4,45.9a7.771,7.771,0,0,0-1.9,5.2,7.127,7.127,0,0,0,2.18,5.36,8.585,8.585,0,0,0,6.18,2.2,9.265,9.265,0,0,0,6.76-2.4,6.843,6.843,0,0,0,2.08-5v-2.3A9.374,9.374,0,0,0-41.86,52h2.82c4.16,0,7.32-1.82,8.8-4.96,1.46,3.14,4.64,4.96,8.8,4.96L-9,51.98a10.063,10.063,0,0,0,4.8-1.12c.72-.38,1.34-.74,1.92-1.08.54-.32,1.06-.62,1.62-.92a7.139,7.139,0,0,1,3.84-1.04H5.5Zm-22.86,8.96a1.787,1.787,0,0,1,1.68,1.94v2h-.44a1.787,1.787,0,0,1-1.68-1.94V54.64h.44m-26.08,3.92h-.44a1.814,1.814,0,0,1-1.7-1.94V54.64h.42a1.814,1.814,0,0,1,1.7,1.94v1.98ZM29.6,35.86v8.92c0,2,0,7.3-8.92,7.3-4.22,0-6.48-1.76-7.62-3.22V52.6c0,3.02-1.74,4.54-5.16,4.54a11.882,11.882,0,0,1-2.32-.2l-.28-.06V56.6a1.33,1.33,0,0,1,.38-.9,2.231,2.231,0,0,1,1.5-.56v-.02l.36.02H7.9c2.6,0,2.8-1.3,2.8-3.4V37.52a1.976,1.976,0,0,1,2.02-2.02h.34v8.7c0,2.7,1.98,5.86,7.58,5.86,5.8,0,6.58-2.58,6.58-5.36V37.44a2.017,2.017,0,0,1,2.02-1.94h.34Zm-67.56,22.7a1.814,1.814,0,0,1-1.7-1.94V54.64h.44a1.814,1.814,0,0,1,1.7,1.94v2h-.44Zm58.72-3.94a1.814,1.814,0,0,1,1.7,1.94v2h-.44a1.814,1.814,0,0,1-1.7-1.94V54.64h.44" transform="translate(80.9 -30.7)" fill="#86868b"/>
      <path id="XMLID_26_" d="M-13.72,237.12c0,3.24-3,5.88-6.68,5.88H-132.62c-3.68,0-6.68-2.64-6.68-5.88V200.18c0-3.26,3-5.88,6.68-5.88H-20.4c3.68,0,6.68,2.64,6.68,5.88Z" transform="translate(139.3 -161.58)" fill="#86868b"/>
      <path id="XMLID_14_" d="M-18.52,238.62l.5.18-.02-.52a2.109,2.109,0,0,0-2.3-1.94h-.16a6.962,6.962,0,0,0-5.56,3.26v-.82a1.836,1.836,0,0,0-1.58-1.94l-.58-.02v14.94a1.855,1.855,0,0,0,1.72,1.98h.44v-9.12c0-2.96,1.88-6.14,5.98-6.14a4.25,4.25,0,0,1,1.56.14m-14.36-1.82h-.36v9.82c0,2.6-1.72,5.64-6.56,5.64-5,0-5.7-2.48-5.7-5.16v-8.44a1.823,1.823,0,0,0-1.82-1.86h-.36v10.36c0,1.94,0,7.06,7.84,7.06a7.729,7.729,0,0,0,6.58-2.98v.5a1.855,1.855,0,0,0,1.72,1.98h.44V238.74a1.813,1.813,0,0,0-1.78-1.94m-25.72-.5a8.4,8.4,0,0,0-6.94,3.22v-7.08a1.773,1.773,0,0,0-1.72-2.02h-.44v21.46a1.845,1.845,0,0,0,1.6,1.84l.02.02h.54v-2.62c1.16,1.66,3.4,3.14,6.94,3.14,6.24-.02,9.04-4.54,9.04-9.02,0-5.26-3.72-8.94-9.04-8.94m.16,15.96c-6.94,0-7.28-5.7-7.28-6.86,0-5.28,3.66-7.16,7.1-7.16,3.18,0,6.9,1.82,6.9,6.94,0,4.32-2.64,7.08-6.72,7.08m84.08-6.68c-.06-5.64-3.72-9.28-9.32-9.28-7.48,0-9.46,5.78-9.46,8.84,0,5.6,3.6,9.1,9.42,9.1,4.6,0,7.52-2,8.9-6.12l.1-.32c-1.2-.36-2.06.02-2.9,1.52l-.08.1v.04c-1.16,1.88-3.14,2.84-5.86,2.84-4.34,0-7.14-2.42-7.4-6.34h16.6ZM9.1,243.96a6.706,6.706,0,0,1,7.06-5.7c3.86,0,6.42,2.08,7.08,5.7ZM27.72,230.4h-.44v21.38h0A1.861,1.861,0,0,0,29,253.74h.44V232.38a1.842,1.842,0,0,0-1.72-1.98M6.1,245.58c-.08-5.64-3.72-9.28-9.32-9.28-7.48,0-9.46,5.78-9.46,8.84,0,5.6,3.6,9.1,9.42,9.1,4.6,0,7.5-2,8.9-6.12l.12-.32c-1.2-.36-2.06.02-2.9,1.52l-.08.1v.04c-1.18,1.88-3.14,2.84-5.86,2.84-4.34,0-7.14-2.42-7.4-6.34H6.12Zm-16.56-1.62a6.719,6.719,0,0,1,7.06-5.7c3.86,0,6.42,2.08,7.06,5.7Zm-5.98-13.56h-.44v2.02a1.842,1.842,0,0,0,1.72,1.98h.44v-2.04a1.835,1.835,0,0,0-1.72-1.96m0,6.4h-.44v18.22c0,2.44-.1,3.7-2.38,3.7h-.4a2.106,2.106,0,0,0-1.54.52,1.361,1.361,0,0,0-.38.9v.28l.28.06a9.532,9.532,0,0,0,2.06.2c3.02,0,4.54-1.5,4.54-4.4l.02-17.52a1.891,1.891,0,0,0-1.76-1.96" transform="translate(82.02 -190.46)" fill="#fff"/>
      <path id="XMLID_13_" d="M54.68,393.74a4.829,4.829,0,0,1-4.78,2.92,10.848,10.848,0,0,0-3.66.42A7.755,7.755,0,0,1,49.06,393a5.563,5.563,0,0,1,1.86-.82,9.359,9.359,0,0,0-1.06-.48,6.406,6.406,0,0,0-1.26.68,8.774,8.774,0,0,0-3.34,5.32l-.16.9.76-.5a7.582,7.582,0,0,1,4-.64,5.752,5.752,0,0,0,3.02-.66,6.064,6.064,0,0,0,2.62-2.98c-.26-.02-.54-.04-.82-.08" transform="translate(-8.22 -319.5)" fill="#fff"/>
      <path id="XMLID_12_" d="M64.88,363.856a10.324,10.324,0,0,0-1.3.94c-2.82,2.46-5.56,2.86-8.38,1.22a13.638,13.638,0,0,0-4.46-1.76,10.147,10.147,0,0,1,5.76-2.94,8.04,8.04,0,0,1,4.78,1.08h0c1.64.86,2.4.42,2.4.42a9.758,9.758,0,0,0-7.3-2.5,11.712,11.712,0,0,0-7.14,4.06l-.74.92,1.18-.1c.02,0,1.78-.12,5,1.72a7.5,7.5,0,0,0,3.86,1.12,8.685,8.685,0,0,0,5.7-2.46c1.84-1.62,3.08-1.46,3.08-1.46a1.749,1.749,0,0,0-2.44-.26" transform="translate(-10.94 -294.356)" fill="#fff"/>
    </g>
  </g>
</svg>
