<svg xmlns="http://www.w3.org/2000/svg" width="260" height="166" viewBox="0 0 260 166">
  <g id="logo2" transform="translate(-2348 -3335)">
    <rect id="Rectangle_17" data-name="Rectangle 17" width="260" height="166" transform="translate(2348 3335)" fill="none"/>
    <g id="Musanada" transform="translate(2402.361 3368)">
      <path id="Path_325" data-name="Path 325" d="M17.092,36.9a15.294,15.294,0,0,0-5.811,1.081A8.354,8.354,0,0,0,6.822,36.9,12.912,12.912,0,0,0,.2,38.386V60.549c0,.541,3.108.541,3.108,0V39.873a5.943,5.943,0,0,1,3.378-.811,3.478,3.478,0,0,1,3.784,3.784V60.413c0,.405.946.541,1.892.405.676,0,1.216-.135,1.216-.405V39.738a5.943,5.943,0,0,1,3.378-.811c2.568,0,3.784,1.622,3.784,3.919V60.413c0,.541,3.108.676,3.108,0V42.981c0-3.784-2.027-6.081-6.757-6.081" transform="translate(0.07 13.1)" fill="#86868b"/>
      <path id="Path_326" data-name="Path 326" d="M26.557,59.943c-4.73,0-6.757-2.432-6.757-6.216V40.619c0-.676,3.108-.541,3.108,0V53.727a3.58,3.58,0,0,0,3.784,3.919,5.943,5.943,0,0,0,3.378-.811V40.619c0-.676,3.108-.541,3.108,0v17.7a13.129,13.129,0,0,1-6.622,1.622" transform="translate(6.957 14.246)" fill="#86868b"/>
      <path id="Path_327" data-name="Path 327" d="M60.657,40.2c4.73,0,6.622,2.432,6.622,6.216V59.524c0,.676-3.108.541-3.108,0V46.281a3.58,3.58,0,0,0-3.784-3.919,5.943,5.943,0,0,0-3.378.811V59.524c0,.676-3.108.541-3.108,0V41.686A14.3,14.3,0,0,1,60.657,40.2" transform="translate(18.938 14.26)" fill="#86868b"/>
      <path id="Path_328" data-name="Path 328" d="M91.354,36.705c0-.541-2.973-.541-2.973,0V58.6a4.762,4.762,0,0,1-2.7.541c-3.784,0-5.405-3.243-5.405-7.7,0-3.919,1.216-9.054,5.135-9.459v-.135c-4.865,0-8.108,3.649-8.108,9.865,0,5.676,2.973,9.459,8.243,9.459a11.716,11.716,0,0,0,5.946-1.351V36.705Z" transform="translate(27.159 12.889)" fill="#86868b"/>
      <path id="Path_329" data-name="Path 329" d="M72.392,40.3a11.946,11.946,0,0,0-4.865.946s-1.081.27-.811,1.216c.27,1.081.811.946.811.946a9.679,9.679,0,0,1,4.324-1.081c2.432,0,4.189.811,4.189,3.784V57.462a7.047,7.047,0,0,1-3.108.676c-2.838,0-4.459-1.081-4.459-3.784,0-2.838,1.622-5.676,4.459-6.351v-.27c-4.324.811-7.432,2.568-7.432,6.622,0,3.378,2.3,5.541,7.162,5.541a12.857,12.857,0,0,0,6.216-1.351V46.516c.135-4.73-2.973-6.216-6.486-6.216" transform="translate(23.013 14.295)" fill="#86868b"/>
      <path id="Path_330" data-name="Path 330" d="M96.892,40.3a12.449,12.449,0,0,0-4.865.946s-1.081.27-.811,1.216c.27,1.081.811.946.811.946a9.678,9.678,0,0,1,4.324-1.081c2.432,0,4.189.811,4.189,3.784V57.462a7.046,7.046,0,0,1-3.108.676c-2.838,0-4.459-1.081-4.459-3.784,0-2.838,1.622-5.676,4.459-6.351v-.27C93.108,48.543,90,50.3,90,54.354c0,3.378,2.3,5.541,7.162,5.541a12.857,12.857,0,0,0,6.216-1.351V46.516c.135-4.73-2.973-6.216-6.486-6.216" transform="translate(31.621 14.295)" fill="#86868b"/>
      <path id="Path_331" data-name="Path 331" d="M38.181,48.678C36.424,48,35.073,47.057,35.073,45.3c0-5.27,5.676-4.459,6.216-4.054v-.135a8.971,8.971,0,0,0-3.514-.811A5.358,5.358,0,0,0,32.1,45.435c0,1.892.676,3.919,4.459,5.27,2.027.811,3.108,1.622,3.108,3.649A3.274,3.274,0,0,1,36.154,57.6a6.152,6.152,0,0,1-3.649-1.081v2.568a8.82,8.82,0,0,0,3.919.811c3.919,0,6.351-2.7,6.351-5.541,0-2.3-.811-4.324-4.595-5.676" transform="translate(11.278 14.295)" fill="#86868b"/>
      <path id="Path_332" data-name="Path 332" d="M48.492,40.3a12.449,12.449,0,0,0-4.865.946s-1.081.27-.811,1.216c.27,1.081.811.946.811.946a9.678,9.678,0,0,1,4.324-1.081c2.432,0,4.189.811,4.189,3.784V57.462a7.047,7.047,0,0,1-3.108.676c-2.838,0-4.459-1.081-4.459-3.784,0-2.838,1.622-5.676,4.459-6.351v-.27c-4.324.811-7.432,2.568-7.432,6.622,0,3.378,2.3,5.541,7.162,5.541a12.857,12.857,0,0,0,6.216-1.351V46.516c.135-4.73-2.973-6.216-6.486-6.216" transform="translate(14.616 14.295)" fill="#86868b"/>
      <path id="Path_333" data-name="Path 333" d="M18.073,36.983l-1.216,2.162H25.37a7.85,7.85,0,0,0,4.324-1.081,14.882,14.882,0,0,0,5.541,1.081h3.514c4.595,0,6.486-2.3,6.486-5.946V19.821h0c0-.541-2.973-.676-2.973,0v.946h0V33.334c0,2.162-1.081,3.784-3.514,3.784H35.235a6.828,6.828,0,0,1-3.243-.676V25.226a4.677,4.677,0,0,0-.27-1.892c-.541-2.162-2.568-3.784-5.541-3.784a9.1,9.1,0,0,0-3.649.811V20.5c.541-.405,6.216-1.216,6.216,3.243v9.73A3.441,3.441,0,0,1,25.1,37.253H18.073Zm105-7.838c0-3.919.676-8.108,4.459-8.108s4.459,4.189,4.459,8.108-.676,7.973-4.459,7.973c-3.649,0-4.459-4.054-4.459-7.973M51.586,14.415V37.659a12.151,12.151,0,0,0,6.351,1.486h25.27a7.85,7.85,0,0,0,4.324-1.081,15.08,15.08,0,0,0,5.676,1.081,7.85,7.85,0,0,0,4.324-1.081,15.08,15.08,0,0,0,5.676,1.081c2.3,0,3.919-.541,5-1.622,1.081,1.081,2.7,1.622,5,1.622h3.919c2.7,0,4.189-.946,5.135-2.432a6.64,6.64,0,0,0,5.405,2.432c5.135,0,7.432-4.324,7.432-9.865,0-5.676-2.3-9.865-7.432-9.865s-7.432,4.189-7.432,9.865v.405h0v3.649a3.441,3.441,0,0,1-3.378,3.784h-3.514c-2.432-.135-3.514-1.622-3.514-3.784V19.821c0-.541-2.973-.541-2.973,0V33.334a3.441,3.441,0,0,1-3.649,3.784,6.828,6.828,0,0,1-3.243-.676V19.686h0c0-.541-2.973-.676-2.973,0V33.2a3.441,3.441,0,0,1-3.649,3.784,6.828,6.828,0,0,1-3.243-.676V19.686h0c0-.541-2.973-.676-2.973,0V33.2a3.441,3.441,0,0,1-3.649,3.784H57.8a6.626,6.626,0,0,1-3.108-.676V14.551c-.135-.676-3.108-.811-3.108-.135m-39.73,2.162A1.676,1.676,0,0,0,10.1,14.956a1.769,1.769,0,0,0-1.757,1.622A1.676,1.676,0,0,0,10.1,18.2a1.676,1.676,0,0,0,1.757-1.622m-5.135,0a1.676,1.676,0,0,0-1.757-1.622,1.769,1.769,0,0,0-1.757,1.622A1.676,1.676,0,0,0,4.965,18.2a1.676,1.676,0,0,0,1.757-1.622M3.073,29.145c0-3.919.676-8.108,4.459-8.108s4.459,4.189,4.459,8.108-.676,7.973-4.459,7.973c-3.649,0-4.459-4.054-4.459-7.973m-2.973,0c0,5.541,2.3,9.865,7.432,9.865s7.432-4.324,7.432-9.865c0-5.676-2.3-9.865-7.432-9.865C2.4,19.145.1,23.47.1,29.145M39.559,16.578A1.676,1.676,0,0,0,37.8,14.956a1.769,1.769,0,0,0-1.757,1.622,1.762,1.762,0,0,0,3.514,0" transform="translate(0.035 5.044)" fill="#86868b"/>
      <path id="Path_334" data-name="Path 334" d="M112.354,2.416h-.135v.135a6.6,6.6,0,0,1,3.919,6.622c-.27,3.514-5.405,7.3-10,7.3s-9.595-3.649-9.865-7.3c-.405-4.054,2.838-6.081,3.919-6.622,0,0,.135-.135,0-.135,0,0-.135-.135-.135,0-1.486.541-6.486,2.838-5.946,8.108.405,3.649,3.784,5.811,6.892,7.838,2.568,1.622,5,3.243,5,5.405h0a.135.135,0,0,0,.27,0c0-2.162,2.432-3.784,5-5.405,2.973-1.892,6.351-4.189,6.892-7.838.676-5.27-4.324-7.568-5.811-8.108" transform="translate(33.051 0.963)" fill="#86868b"/>
      <path id="Path_335" data-name="Path 335" d="M105.278,5.035c3.243,0,6.081,2.162,6.351,4.73a5.087,5.087,0,0,1-2.3,4.73s-.135.135,0,.135c0,0,.135.135.135,0,0,0,.541-.27,1.216-.676h0c1.216-.946,2.973-2.568,2.973-5,0-2.7-2.7-4.459-5-5.946-1.622-1.081-3.108-2.027-3.243-2.973a.135.135,0,1,0-.27,0c-.135,1.081-1.622,2.027-3.243,2.973-2.3,1.486-5,3.243-5,5.946,0,2.432,1.757,4.054,2.973,5h0a3.565,3.565,0,0,0,1.216.676h.135v-.135a5.087,5.087,0,0,1-2.3-4.73c.135-2.568,3.108-4.73,6.351-4.73Z" transform="translate(34.046 0.1)" fill="#86868b"/>
      <path id="Path_336" data-name="Path 336" d="M2.7,69.892c-.135-.27-.135-.541-.27-.676h0c0,.27-.135.405-.27.676l-.676,1.757H3.243Zm1.486,3.919-.541-1.486h-2.3L.811,73.811H0L2.3,68H2.7L5,73.811Z" transform="translate(0 24.027)" fill="#86868b"/>
      <path id="Path_337" data-name="Path 337" d="M5.822,70.268c-.405,0-.541.135-.811.135v2.7a1.013,1.013,0,0,0,.676.135c.811,0,1.351-.676,1.351-1.622a1.242,1.242,0,0,0-1.216-1.351m-.405,3.784a2.7,2.7,0,0,1-1.216-.27V67.7h.811v2.162a2,2,0,0,1,.946-.135,1.881,1.881,0,0,1,1.892,2.027,2.311,2.311,0,0,1-2.432,2.3" transform="translate(1.476 23.922)" fill="#86868b"/>
      <path id="Path_338" data-name="Path 338" d="M10.338,73.354l-.135-.405a2.064,2.064,0,0,1-1.351.541A1.3,1.3,0,0,1,7.5,72V69.3h.811V72c0,.676.27.946.811.946a1.668,1.668,0,0,0,1.081-.541V69.3h.676v2.568c0,1.081,0,1.351.135,1.622h-.676Z" transform="translate(2.635 24.484)" fill="#86868b"/>
      <path id="Path_339" data-name="Path 339" d="M14.086,68.676h-.676v4.459h.676a2.06,2.06,0,0,0,2.3-2.3c.135-1.216-.676-2.162-2.3-2.162m0,5.135H12.6V68h1.486c2.162,0,3.243,1.216,3.243,2.838a2.916,2.916,0,0,1-3.243,2.973" transform="translate(4.427 24.027)" fill="#86868b"/>
      <path id="Path_340" data-name="Path 340" d="M19.4,73.951V71.384c0-.541-.135-1.081-.676-1.081a2.012,2.012,0,0,0-1.216.541v2.973H16.7V67.6h.811v2.568A2.459,2.459,0,0,1,19,69.627c.676,0,1.216.405,1.216,1.486v2.7H19.4Z" transform="translate(5.867 23.886)" fill="#86868b"/>
      <path id="Path_341" data-name="Path 341" d="M22.432,71.362h-.811c-.676,0-.946.27-.946.676s.27.676.811.676a1.235,1.235,0,0,0,.946-.405Zm.27,2.027-.135-.405a1.713,1.713,0,0,1-1.216.541A1.354,1.354,0,0,1,20,72.173c0-.811.676-1.351,1.757-1.351h.811v-.135a.711.711,0,0,0-.811-.811,1.33,1.33,0,0,0-1.081.405l-.27-.541a2.251,2.251,0,0,1,1.486-.541,1.3,1.3,0,0,1,1.486,1.486v1.351c0,.946,0,1.351.135,1.486H22.7Z" transform="translate(7.027 24.448)" fill="#86868b"/>
      <path id="Path_342" data-name="Path 342" d="M24.822,70.268c-.405,0-.541.135-.811.135v2.7a1.013,1.013,0,0,0,.676.135c.811,0,1.351-.676,1.351-1.622a1.242,1.242,0,0,0-1.216-1.351m-.405,3.784a2.7,2.7,0,0,1-1.216-.27V67.7h.811v2.162a2,2,0,0,1,.946-.135,1.881,1.881,0,0,1,1.892,2.027,2.311,2.311,0,0,1-2.432,2.3" transform="translate(8.151 23.922)" fill="#86868b"/>
      <path id="Path_343" data-name="Path 343" d="M26.635,69.692h.811v4.189h-.811Zm.946-1.351a.541.541,0,1,1-.541-.541.581.581,0,0,1,.541.541" transform="translate(9.311 23.957)" fill="#86868b"/>
      <path id="Path_344" data-name="Path 344" d="M32.573,73.981A2.838,2.838,0,0,1,29.6,71.008,2.98,2.98,0,0,1,32.708,67.9a4.412,4.412,0,0,1,1.622.27v.811a2.882,2.882,0,0,0-1.622-.405,2.3,2.3,0,1,0,0,4.595,2.093,2.093,0,0,0,1.081-.27V70.873H34.6v2.568a4.03,4.03,0,0,1-2.027.541" transform="translate(10.4 23.992)" fill="#86868b"/>
      <path id="Path_345" data-name="Path 345" d="M35.722,69.776a1.044,1.044,0,0,0-.946,1.081h1.892a1.044,1.044,0,0,0-.946-1.081m-.946,1.757a1.277,1.277,0,0,0,1.351,1.351,3.18,3.18,0,0,0,1.081-.27l.27.541a2.607,2.607,0,0,1-1.351.405,2.062,2.062,0,0,1-2.027-2.3c0-1.216.676-2.162,1.757-2.162s1.757.811,1.757,2.162v.27H34.776Z" transform="translate(11.981 24.413)" fill="#86868b"/>
      <path id="Path_346" data-name="Path 346" d="M39.9,73.424V70.857c0-.541-.135-1.081-.676-1.081a2.013,2.013,0,0,0-1.216.541v2.973H37.2V69.1h.676l.135.541A2.251,2.251,0,0,1,39.5,69.1c.676,0,1.216.405,1.216,1.486v2.838H39.9Z" transform="translate(13.07 24.413)" fill="#86868b"/>
      <path id="Path_347" data-name="Path 347" d="M42.222,69.776a1.044,1.044,0,0,0-.946,1.081h1.892a1.044,1.044,0,0,0-.946-1.081m-.946,1.757a1.277,1.277,0,0,0,1.351,1.351,3.18,3.18,0,0,0,1.081-.27l.27.541a2.607,2.607,0,0,1-1.351.405,2.062,2.062,0,0,1-2.027-2.3c0-1.216.676-2.162,1.757-2.162s1.757.811,1.757,2.162v.27H41.276Z" transform="translate(14.265 24.413)" fill="#86868b"/>
      <path id="Path_348" data-name="Path 348" d="M45.862,70.046c-.135,0-.27-.135-.405-.135a1.46,1.46,0,0,0-.946.405v3.108H43.7V69.235h.676l.135.405a1.383,1.383,0,0,1,1.216-.541c.135,0,.405.135.541.135Z" transform="translate(15.354 24.413)" fill="#86868b"/>
      <path id="Path_349" data-name="Path 349" d="M48.232,71.362h-.811c-.676,0-.946.27-.946.676s.27.676.811.676a1.235,1.235,0,0,0,.946-.405Zm.27,2.027-.135-.405a1.713,1.713,0,0,1-1.216.541A1.354,1.354,0,0,1,45.8,72.173c0-.811.676-1.351,1.757-1.351h.811v-.135a.711.711,0,0,0-.811-.811,1.33,1.33,0,0,0-1.081.405l-.27-.541a2.251,2.251,0,0,1,1.486-.541,1.3,1.3,0,0,1,1.486,1.486v1.351c0,.946,0,1.351.135,1.486H48.5Z" transform="translate(16.092 24.448)" fill="#86868b"/>
      <path id="Path_350" data-name="Path 350" d="M49.811,74.051A.779.779,0,0,1,49,73.241V67.7h.811v5.135c0,.405.135.405.27.405h.27l.135.541c-.27.135-.405.27-.676.27" transform="translate(17.216 23.922)" fill="#86868b"/>
      <path id="Path_351" data-name="Path 351" d="M53.722,73.981a2.285,2.285,0,0,1-1.622-.541l.405-.676a2.654,2.654,0,0,0,1.351.405c.541,0,1.081-.27,1.081-.811,0-.946-1.351-1.216-2.162-1.892a1.33,1.33,0,0,1-.405-1.081A1.578,1.578,0,0,1,54.127,67.9a2.907,2.907,0,0,1,1.351.27v.811a2.283,2.283,0,0,0-1.351-.405c-.541,0-.946.27-.946.676,0,1.216,2.568,1.216,2.568,2.973a1.939,1.939,0,0,1-2.027,1.757" transform="translate(18.305 23.992)" fill="#86868b"/>
      <path id="Path_352" data-name="Path 352" d="M56.922,69.776a1.044,1.044,0,0,0-.946,1.081h1.892a.958.958,0,0,0-.946-1.081m-.946,1.757a1.277,1.277,0,0,0,1.351,1.351,3.18,3.18,0,0,0,1.081-.27l.27.541a2.607,2.607,0,0,1-1.351.405,2.062,2.062,0,0,1-2.027-2.3c0-1.216.676-2.162,1.757-2.162s1.757.811,1.757,2.162v.27H55.976Z" transform="translate(19.43 24.413)" fill="#86868b"/>
      <path id="Path_353" data-name="Path 353" d="M60.562,70.046c-.135,0-.27-.135-.405-.135a1.46,1.46,0,0,0-.946.405v3.108H58.4V69.235h.811l.135.405a1.383,1.383,0,0,1,1.216-.541c.135,0,.405.135.541.135Z" transform="translate(20.519 24.413)" fill="#86868b"/>
      <path id="Path_354" data-name="Path 354" d="M62.462,73.389h-.541L60.3,69.2h.811l1.081,3.243h0L63.543,69.2h.676Z" transform="translate(21.186 24.448)" fill="#86868b"/>
      <path id="Path_355" data-name="Path 355" d="M63.87,69.692h.811v4.189H63.87V69.692Zm.811-1.351a.541.541,0,1,1-.541-.541.5.5,0,0,1,.541.541" transform="translate(22.346 23.957)" fill="#86868b"/>
      <path id="Path_356" data-name="Path 356" d="M67.127,73.559A1.952,1.952,0,0,1,65.1,71.4a2.166,2.166,0,0,1,2.162-2.3,2.546,2.546,0,0,1,1.081.27v.676a2.546,2.546,0,0,0-1.081-.27,1.493,1.493,0,0,0,0,2.973,2.546,2.546,0,0,0,1.081-.27l.27.541a2.834,2.834,0,0,1-1.486.541" transform="translate(22.873 24.413)" fill="#86868b"/>
      <path id="Path_357" data-name="Path 357" d="M69.622,69.776a1.044,1.044,0,0,0-.946,1.081h1.892a.958.958,0,0,0-.946-1.081m-.946,1.757a1.277,1.277,0,0,0,1.351,1.351,3.18,3.18,0,0,0,1.081-.27l.27.541a2.607,2.607,0,0,1-1.351.405A2.062,2.062,0,0,1,68,71.262c0-1.216.676-2.162,1.757-2.162s1.757.811,1.757,2.162v.27H68.676Z" transform="translate(23.892 24.413)" fill="#86868b"/>
      <path id="Path_358" data-name="Path 358" d="M72.251,73.559a1.794,1.794,0,0,1-1.351-.405l.27-.541a2.093,2.093,0,0,0,1.081.27c.541,0,.811-.27.811-.541,0-.946-1.892-.541-1.892-2.027,0-.676.541-1.216,1.486-1.216a2.546,2.546,0,0,1,1.081.27v.676a2.546,2.546,0,0,0-1.081-.27c-.405,0-.676.135-.676.541,0,.811,1.892.676,1.892,2.027,0,.811-.811,1.216-1.622,1.216" transform="translate(24.911 24.413)" fill="#86868b"/>
      <path id="Path_359" data-name="Path 359" d="M78.038,73.946A2.733,2.733,0,0,1,75.2,70.973,2.838,2.838,0,0,1,78.173,68a3.616,3.616,0,0,1,1.486.27v.811a2.427,2.427,0,0,0-1.486-.405,2.166,2.166,0,0,0-2.162,2.3,2.1,2.1,0,0,0,2.162,2.3,2.283,2.283,0,0,0,1.351-.405l.27.676a4.161,4.161,0,0,1-1.757.405" transform="translate(26.421 24.027)" fill="#86868b"/>
      <path id="Path_360" data-name="Path 360" d="M79.876,71.262c0,.946.405,1.486,1.216,1.486a1.376,1.376,0,0,0,1.216-1.486c0-.946-.405-1.486-1.216-1.486s-1.216.676-1.216,1.486m2.568-1.622a2.154,2.154,0,0,1,.541,1.622,2.9,2.9,0,0,1-.541,1.622,1.959,1.959,0,0,1-2.7,0,2.154,2.154,0,0,1-.541-1.622,2.9,2.9,0,0,1,.541-1.622,1.735,1.735,0,0,1,1.351-.541,2.854,2.854,0,0,1,1.351.541" transform="translate(27.827 24.413)" fill="#86868b"/>
      <path id="Path_361" data-name="Path 361" d="M88.005,73.424v-2.7c0-.541-.135-.946-.676-.946a1.713,1.713,0,0,0-1.216.541v3.108H85.3v-2.7c0-.541-.135-.946-.676-.946a1.713,1.713,0,0,0-1.216.541v2.973H82.6V69.1h.676l.135.541A2.516,2.516,0,0,1,84.9,69.1a1.07,1.07,0,0,1,1.081.676,2.464,2.464,0,0,1,1.486-.676,1.205,1.205,0,0,1,1.351,1.351v2.973Z" transform="translate(29.021 24.413)" fill="#86868b"/>
      <path id="Path_362" data-name="Path 362" d="M89.351,69.741a1.218,1.218,0,0,0-.676.135v2.838a1.218,1.218,0,0,0,.676.135c.811,0,1.351-.541,1.351-1.622a1.318,1.318,0,0,0-1.351-1.486m0,3.784a1.013,1.013,0,0,1-.676-.135v2.162H88V69.47a3.616,3.616,0,0,1,1.486-.27,1.989,1.989,0,0,1,2.162,2.162,2.245,2.245,0,0,1-2.3,2.162" transform="translate(30.919 24.448)" fill="#86868b"/>
      <path id="Path_363" data-name="Path 363" d="M93.668,71.362h-.811c-.676,0-.946.27-.946.676s.27.676.811.676a1.235,1.235,0,0,0,.946-.405Zm.27,2.027-.27-.405a1.713,1.713,0,0,1-1.216.541A1.354,1.354,0,0,1,91.1,72.173c0-.811.676-1.351,1.757-1.351h.811v-.135a.711.711,0,0,0-.811-.811,1.33,1.33,0,0,0-1.081.405l-.27-.541a2.251,2.251,0,0,1,1.486-.541,1.3,1.3,0,0,1,1.486,1.486v1.351c0,.946,0,1.351.135,1.486h-.676Z" transform="translate(32.008 24.448)" fill="#86868b"/>
      <path id="Path_364" data-name="Path 364" d="M97.1,73.424V70.857c0-.541-.135-1.081-.676-1.081a2.013,2.013,0,0,0-1.216.541v2.973H94.4V69.1h.676l.135.541A2.251,2.251,0,0,1,96.7,69.1c.676,0,1.216.405,1.216,1.486v2.838H97.1Z" transform="translate(33.167 24.413)" fill="#86868b"/>
      <path id="Path_365" data-name="Path 365" d="M100,73.659c-.541,1.486-1.216,1.757-1.892,1.757a4.778,4.778,0,0,1-.811-.135l.135-.541a1.013,1.013,0,0,0,.676.135c.541,0,.946-.405,1.216-1.486L97.435,69.2h.811l1.486,3.243h0l1.081-3.243h.811Z" transform="translate(34.186 24.448)" fill="#86868b"/>
      <path id="Path_366" data-name="Path 366" d="M2.668,61.511H1.857V60.7h.811Zm-1.216,0H.776V60.7h.676Zm1.081,3.378V63.4a1.02,1.02,0,0,0-.946-.541.7.7,0,0,0-.541.27,1.953,1.953,0,0,0-.27.946c0,.27,0,.405.135.541s.27.27.405.27H2.532Zm2.027,1.622H3.614A1,1,0,0,1,2.532,65.43H1.181C.505,65.43.1,65.024.1,64.078a2.018,2.018,0,0,1,.405-1.351,1.227,1.227,0,0,1,.946-.405,1.668,1.668,0,0,1,1.081.541h0v-.405h.676V65.43c0,.27.135.541.405.541h.946Z" transform="translate(0.035 21.462)" fill="#86868b"/>
      <rect id="Rectangle_79" data-name="Rectangle 79" width="1.351" height="0.676" transform="translate(4.459 87.432)" fill="#86868b"/>
      <rect id="Rectangle_80" data-name="Rectangle 80" width="1.351" height="0.676" transform="translate(5.541 87.432)" fill="#86868b"/>
      <rect id="Rectangle_81" data-name="Rectangle 81" width="1.351" height="0.676" transform="translate(6.622 87.432)" fill="#86868b"/>
      <path id="Path_367" data-name="Path 367" d="M9.349,64.192a1.953,1.953,0,0,0-.27-.946.98.98,0,0,0-1.351,0,1.575,1.575,0,0,0-.27.946,1.953,1.953,0,0,0,.27.946.98.98,0,0,0,1.351,0,1.953,1.953,0,0,0,.27-.946m.676,0c0,1.081-.541,1.757-1.622,1.757H5.7v-.676H7.051a1.652,1.652,0,0,1-.405-1.216c0-1.081.541-1.757,1.622-1.757a1.317,1.317,0,0,1,1.216.541,1.735,1.735,0,0,1,.541,1.351" transform="translate(2.003 22.024)" fill="#86868b"/>
      <path id="Path_368" data-name="Path 368" d="M11.657,66.616h-.811a1.032,1.032,0,0,1-.676-.27c-.27-.135-.27-.541-.27-.811V60.4h.676v5c0,.405.135.541.405.541h.676Z" transform="translate(3.478 21.357)" fill="#86868b"/>
      <rect id="Rectangle_82" data-name="Rectangle 82" width="1.351" height="0.676" transform="translate(15 87.432)" fill="#86868b"/>
      <rect id="Rectangle_83" data-name="Rectangle 83" width="1.351" height="0.676" transform="translate(16.081 87.432)" fill="#86868b"/>
      <rect id="Rectangle_84" data-name="Rectangle 84" width="1.351" height="0.676" transform="translate(17.297 87.432)" fill="#86868b"/>
      <rect id="Rectangle_85" data-name="Rectangle 85" width="1.351" height="0.676" transform="translate(18.378 87.432)" fill="#86868b"/>
      <path id="Path_369" data-name="Path 369" d="M19.4,63.251a.7.7,0,0,0-.541-.27,4,4,0,0,0-1.351-.27,2.634,2.634,0,0,0-1.081.135c-.27.135-.541.135-.811.405a3.715,3.715,0,0,1,2.162,1.757A6.614,6.614,0,0,0,19.4,63.251m1.216,2.838H18.724a1.227,1.227,0,0,1-.946-.405,4.665,4.665,0,0,1-1.757.405H14.4v-.676h1.622a5.947,5.947,0,0,0,1.351-.27c-.405-.405-.676-.811-.946-1.081a2.4,2.4,0,0,0-1.351-.541v-.811a3.3,3.3,0,0,1,2.432-.811,3.1,3.1,0,0,1,1.892.541,2.078,2.078,0,0,1,.811.541,5.458,5.458,0,0,1-2.027,2.3.5.5,0,0,0,.405.135h2.027Z" transform="translate(5.059 21.884)" fill="#86868b"/>
      <rect id="Rectangle_86" data-name="Rectangle 86" width="1.351" height="0.676" transform="translate(25.405 87.432)" fill="#86868b"/>
      <path id="Path_370" data-name="Path 370" d="M21.627,65.4c0,.811-.405,1.216-1.351,1.216H19.6v-.676h.676a.638.638,0,0,0,.676-.676V60.4h.676v5" transform="translate(6.886 21.357)" fill="#86868b"/>
      <path id="Path_371" data-name="Path 371" d="M22,60.4v6.216h.676V60.4Z" transform="translate(7.73 21.357)" fill="#86868b"/>
      <path id="Path_372" data-name="Path 372" d="M28.519,62.576h-.676V61.9h.676Zm-1.216,0h-.676V61.9H27.3Zm3.243,2.838a.757.757,0,0,1-.811.676H26.762a1.639,1.639,0,0,1-1.622-.946,3.906,3.906,0,0,1-.541-1.892v-.676h.541v.676a2.673,2.673,0,0,0,.676,1.892,1.227,1.227,0,0,0,.946.405H29.6c.27,0,.405-.135.405-.541v-2.3h.541v2.7" transform="translate(8.643 21.884)" fill="#86868b"/>
      <path id="Path_373" data-name="Path 373" d="M31.757,66.616h-.811a1.032,1.032,0,0,1-.676-.27c-.27-.135-.27-.541-.27-.811V60.4h.676v5c0,.405.135.541.405.541h.676v.676Z" transform="translate(10.54 21.357)" fill="#86868b"/>
      <rect id="Rectangle_87" data-name="Rectangle 87" width="1.351" height="0.676" transform="translate(42.162 87.432)" fill="#86868b"/>
      <rect id="Rectangle_88" data-name="Rectangle 88" width="1.351" height="0.676" transform="translate(43.378 87.432)" fill="#86868b"/>
      <rect id="Rectangle_89" data-name="Rectangle 89" width="1.351" height="0.676" transform="translate(44.459 87.432)" fill="#86868b"/>
      <path id="Path_374" data-name="Path 374" d="M37.349,64.192a1.953,1.953,0,0,0-.27-.946.98.98,0,0,0-1.351,0c-.27.135-.27.541-.27.946a1.953,1.953,0,0,0,.27.946.98.98,0,0,0,1.351,0,1.953,1.953,0,0,0,.27-.946m.676,0c0,1.081-.541,1.757-1.622,1.757H33.7v-.676h1.351a1.652,1.652,0,0,1-.405-1.216c0-1.081.541-1.757,1.622-1.757a1.317,1.317,0,0,1,1.216.541,1.735,1.735,0,0,1,.541,1.351" transform="translate(11.84 22.024)" fill="#86868b"/>
      <path id="Path_375" data-name="Path 375" d="M42.835,65.914H37.7l.135-.676H40.4A2.882,2.882,0,0,0,40,63.616c-.27-.405-.541-.676-.811-.676V62.4a1.419,1.419,0,0,1,1.216.676,3.439,3.439,0,0,1,.676,2.162H42.7v.676Z" transform="translate(13.246 22.059)" fill="#86868b"/>
      <rect id="Rectangle_90" data-name="Rectangle 90" width="1.351" height="0.676" transform="translate(55.811 87.432)" fill="#86868b"/>
      <rect id="Rectangle_91" data-name="Rectangle 91" width="1.351" height="0.676" transform="translate(57.027 87.432)" fill="#86868b"/>
      <path id="Path_376" data-name="Path 376" d="M45.908,61.976h-.676V61.3h.676ZM48.881,66.3H42.8v-.676h4.324a3.38,3.38,0,0,0-.541-1.757,1.868,1.868,0,0,0-1.216-.676,3.021,3.021,0,0,0-1.351.405l-.27-.541a3.6,3.6,0,0,1,1.622-.405,2.045,2.045,0,0,1,1.892.946,4.5,4.5,0,0,1,.676,2.027h1.081V66.3Z" transform="translate(15.038 21.673)" fill="#86868b"/>
      <path id="Path_377" data-name="Path 377" d="M50.749,66.651h-.811a.743.743,0,0,1-.676-.405c-.135-.135-.135-.27-.27-.405a1.182,1.182,0,0,1-1.216.811H47.1v-.676h.405a1.022,1.022,0,0,0,.541-.135.7.7,0,0,0,.27-.541v-5h.676v4.73a.938.938,0,0,0,.811.946h.946v.676Z" transform="translate(16.549 21.322)" fill="#86868b"/>
      <rect id="Rectangle_92" data-name="Rectangle 92" width="1.351" height="0.676" transform="translate(67.162 87.432)" fill="#86868b"/>
      <path id="Path_378" data-name="Path 378" d="M52.527,65.4c0,.811-.405,1.216-1.351,1.216H50.5v-.676h.676a.638.638,0,0,0,.676-.676V60.4h.676v5" transform="translate(17.743 21.357)" fill="#86868b"/>
      <path id="Path_379" data-name="Path 379" d="M57.649,69.462h-.676v-.811h.676Zm-1.216,0h-.676v-.811h.676Zm5.135-4.054v.541h-.811a1.032,1.032,0,0,1-.676-.27,1.168,1.168,0,0,1-.405-.811,2.7,2.7,0,0,0-.27-1.216,1.016,1.016,0,0,0-.946-.676,1.921,1.921,0,0,0-.811.27.993.993,0,0,0-.27.811h1.757v1.216a2.454,2.454,0,0,1-.811,1.892,2.379,2.379,0,0,1-1.757.811,2.179,2.179,0,0,1-1.757-.811A2.668,2.668,0,0,1,54,65.273V64.057h.676v1.216a2.032,2.032,0,0,0,.541,1.486,1.959,1.959,0,0,0,2.7,0,2.032,2.032,0,0,0,.541-1.486v-.541H56.7c0-1.622.676-2.432,1.892-2.432a1.461,1.461,0,0,1,1.486.946,3.616,3.616,0,0,1,.27,1.486.581.581,0,0,0,.541.541h.676Z" transform="translate(18.973 22.024)" fill="#86868b"/>
      <rect id="Rectangle_93" data-name="Rectangle 93" width="1.351" height="0.676" transform="translate(80.405 87.432)" fill="#86868b"/>
      <rect id="Rectangle_94" data-name="Rectangle 94" width="1.351" height="0.676" transform="translate(81.486 87.432)" fill="#86868b"/>
      <rect id="Rectangle_95" data-name="Rectangle 95" width="1.351" height="0.676" transform="translate(82.703 87.432)" fill="#86868b"/>
      <path id="Path_380" data-name="Path 380" d="M64.432,67.4h-.676v-.676h.676Zm1.757-1.486h-.811a.743.743,0,0,1-.676-.405c-.135-.135-.135-.27-.27-.405a1.369,1.369,0,0,1-1.216.811H62v-.676h.946a1.022,1.022,0,0,0,.541-.135.7.7,0,0,0,.27-.541V62.4h.676v1.892a1.921,1.921,0,0,0,.27.811,1.025,1.025,0,0,0,.541.27h.946v.541Z" transform="translate(21.784 22.059)" fill="#86868b"/>
      <rect id="Rectangle_96" data-name="Rectangle 96" width="1.351" height="0.676" transform="translate(87.703 87.432)" fill="#86868b"/>
      <path id="Path_381" data-name="Path 381" d="M70.159,62.186h-.676v-.676h.676Zm1.486,3.649a2.634,2.634,0,0,0-.135-1.081q-.405-1.216-1.216-1.216c-1.216-.135-2.162.676-2.838,2.3Zm.676.676H65.7v-.676h1.081V60.7h.676l-.135,4.459A3.463,3.463,0,0,1,68.943,63.4a1.755,1.755,0,0,1,1.351-.27,2.38,2.38,0,0,1,1.757,1.216,7.657,7.657,0,0,1,.27,2.162" transform="translate(23.084 21.462)" fill="#86868b"/>
      <path id="Path_382" data-name="Path 382" d="M74.068,65.408V63.786a.717.717,0,0,0-.811-.811c-.27,0-.405.135-.676.27a1.953,1.953,0,0,0-.27.946,1.092,1.092,0,0,0,.946,1.216Zm2.027.541H74.608a2.459,2.459,0,0,1-2.432,2.027c0-.135-.135-.27-.27-.541a1.652,1.652,0,0,0,1.216-.405,2.942,2.942,0,0,0,.676-1.081h-.811a1.229,1.229,0,0,1-1.081-.541,1.886,1.886,0,0,1-.405-1.216,2.459,2.459,0,0,1,.541-1.486,1.534,1.534,0,0,1,1.081-.405,1.352,1.352,0,0,1,1.486,1.486v1.351h1.351v.811Z" transform="translate(25.121 22.024)" fill="#86868b"/>
      <rect id="Rectangle_97" data-name="Rectangle 97" width="1.351" height="0.676" transform="translate(100.946 87.432)" fill="#86868b"/>
      <path id="Path_383" data-name="Path 383" d="M77.392,67.435h-.676v-.676h.676Zm.541-2.7c0,.811-.405,1.216-1.351,1.216H75.5v-.676h1.081a.638.638,0,0,0,.676-.676V62.3h.676v2.432" transform="translate(26.527 22.024)" fill="#86868b"/>
      <path id="Path_384" data-name="Path 384" d="M79.186,67.108h-.676V60.892h.676Zm0-6.757H77.7l.135-.27h.405a.5.5,0,0,1-.135-.405A.638.638,0,0,1,78.781,59c.135,0,.27.135.405.27l-.135.27c-.135-.135-.135-.135-.27-.135s-.27.135-.27.405a.358.358,0,0,0,.405.405h.405v.135Z" transform="translate(27.3 20.865)" fill="#86868b"/>
      <path id="Path_385" data-name="Path 385" d="M83.368,61.511h-.676V60.7h.676Zm-1.216,0h-.676V60.7h.676Zm1.081,3.378V63.4a1.02,1.02,0,0,0-.946-.541.7.7,0,0,0-.541.27,1.953,1.953,0,0,0-.27.946c0,.27,0,.405.135.541s.27.27.405.27h1.216Zm2.027,1.622h-.946a1,1,0,0,1-1.081-1.081H81.881c-.676,0-1.081-.405-1.081-1.351a2.017,2.017,0,0,1,.405-1.351,1.227,1.227,0,0,1,.946-.405,1.668,1.668,0,0,1,1.081.541h0v-.405h.676V65.43c0,.27.135.541.405.541h.946Z" transform="translate(28.389 21.462)" fill="#86868b"/>
      <rect id="Rectangle_98" data-name="Rectangle 98" width="1.351" height="0.676" transform="translate(113.513 87.432)" fill="#86868b"/>
      <rect id="Rectangle_99" data-name="Rectangle 99" width="1.351" height="0.676" transform="translate(114.594 87.432)" fill="#86868b"/>
      <rect id="Rectangle_100" data-name="Rectangle 100" width="1.351" height="0.676" transform="translate(115.811 87.432)" fill="#86868b"/>
      <path id="Path_386" data-name="Path 386" d="M91.5,66.441h-5v-.676h4.324a2.238,2.238,0,0,0-.676-1.622,1.936,1.936,0,0,0-1.486-.676,2.607,2.607,0,0,0-1.351.405l-.27-.541h0l2.3-2.432.405.405-1.622,1.622H88.8a2.223,2.223,0,0,1,2.027,1.081,4.667,4.667,0,0,1,.676,2.432" transform="translate(30.392 21.532)" fill="#86868b"/>
      <path id="Path_387" data-name="Path 387" d="M94.595,65.3v.676h-.811a1.02,1.02,0,0,1-.946-.541,2.454,2.454,0,0,1-.811,1.892,2.179,2.179,0,0,1-1.757.811c0-.135-.135-.27-.27-.541a1.936,1.936,0,0,0,1.486-.676,2.154,2.154,0,0,0,.541-1.622V62.6H92.7v1.892a.938.938,0,0,0,.811.946h1.081Z" transform="translate(31.621 22.13)" fill="#86868b"/>
      <rect id="Rectangle_101" data-name="Rectangle 101" width="1.351" height="0.676" transform="translate(126.081 87.432)" fill="#86868b"/>
      <rect id="Rectangle_102" data-name="Rectangle 102" width="1.351" height="0.676" transform="translate(127.162 87.432)" fill="#86868b"/>
      <path id="Path_388" data-name="Path 388" d="M100.27,62.257h-.676v-.676h.676Zm-.676-.946h-.676V60.5h.676Zm-.541.946h-.676v-.676h.676Zm3.108,3.243a1.134,1.134,0,0,1-1.216,1.216,1.714,1.714,0,0,1-.811-.135.951.951,0,0,1-.541-.676,1.086,1.086,0,0,1-1.216.811,1.714,1.714,0,0,1-.811-.135l-.405-.405v.405H95v-.676h1.486V63.338h.676v1.622a1,1,0,0,0,1.081,1.081.638.638,0,0,0,.676-.676V63.2h.676v1.622a.817.817,0,0,0,.405.811,1.449,1.449,0,0,0,.811.27.638.638,0,0,0,.676-.676V62.8h.676v2.7" transform="translate(33.378 21.392)" fill="#86868b"/>
    </g>
  </g>
</svg>
