<svg xmlns="http://www.w3.org/2000/svg" xmlns:xlink="http://www.w3.org/1999/xlink" width="786" height="774" viewBox="0 0 786 774">
  <defs>
    <clipPath id="clip-path">
      <rect id="Rectangle_12" data-name="Rectangle 12" width="786" height="774" transform="translate(1134 2505)" fill="#fff"/>
    </clipPath>
  </defs>
  <g id="shape-contact" transform="translate(-1134 -2505)" opacity="0.047" clip-path="url(#clip-path)">
    <g id="Group_21" data-name="Group 21" transform="translate(1134.505 2740.981)">
      <path id="Path_2" data-name="Path 2" d="M225.442,263H381.583C397.264,117.049,284.583,5.6,97.64.224,94.616.112,91.816,0,88.679,0L45.78,68.213C169.886,79.638,241.46,160.285,225.442,263" transform="translate(467.053)" fill="#86868b" fill-rule="evenodd"/>
      <path id="Path_3" data-name="Path 3" d="M67.1,224.209,16.7,343.835c29.794,8.289,62.725,13.105,98.344,14.113C322.26,364,547.51,237.427,639.022,69.3L492.4,30.77C425.533,147.707,267.936,234.962,122.66,230.706a297.343,297.343,0,0,1-55.556-6.5" transform="translate(170.411 313.882)" fill="#86868b" fill-rule="evenodd"/>
      <path id="Path_4" data-name="Path 4" d="M90.559,378.13l75.494-102.152C96.047,232.519,69.725,152.88,106.8,63.385a299.716,299.716,0,0,1,19.826-38.643L59.869,22.95A399.911,399.911,0,0,0,23.69,90.267C-25.594,208.773,4.536,315.181,90.559,378.13" transform="translate(0 234.111)" fill="#86868b" fill-rule="evenodd"/>
      <path id="Path_5" data-name="Path 5" d="M9.05,198.736l53.876,16.017C130.468,134.331,240.909,75.414,350.677,63.877L382.936.48C240.685,20.978,100.113,96.584,9.05,198.736" transform="translate(92.374 4.896)" fill="#86868b" fill-rule="evenodd"/>
      <path id="Path_6" data-name="Path 6" d="M10.75,232.946l81.431-37.411c-1.232-16.465,1.792-34.163,9.409-52.756,15.793-38.307,48.276-72.358,88.263-96.552L162.746,12.96c-62.053,37.523-112.681,90.5-136.987,149.98-9.969,24.418-14.9,47.828-15.009,70.006" transform="translate(109.715 132.204)" fill="#86868b" fill-rule="evenodd"/>
      <path id="Path_7" data-name="Path 7" d="M292.186,173.819,274.265,78.5c-23.858,7.393-48.612,11.2-72.694,10.417C149.487,87.348,111.628,65.395,95.051,32.24L11.38,81.636c20.162,61.6,83,103.944,173.278,106.52,35.619,1.232,72.022-4.032,107.529-14.337" transform="translate(116.142 328.877)" fill="#86868b" fill-rule="evenodd"/>
      <path id="Path_8" data-name="Path 8" d="M40.06,235.518l57.685,77.846c61.6-37.523,111.673-90.167,135.979-149.42,23.522-57.125,18.593-109.881-8.849-149.644L130.563,55.183c10.753,23.634,10.977,52.42-1.68,83.335-15.905,38.531-48.612,72.694-88.823,97" transform="translate(408.704 145.873)" fill="#86868b" fill-rule="evenodd"/>
      <path id="Path_9" data-name="Path 9" d="M219.005,91.169l74.486-51.524C263.809,20.715,225.278,9.29,179.8,7.946,129.4,6.49,77.426,17.579,29.15,37.852l5.488,44.132c31.7-13.665,65.973-21.17,99.128-20.162,35.955,1.008,65.189,11.873,85.239,29.346" transform="translate(297.412 79.757)" fill="#86868b" fill-rule="evenodd"/>
      <path id="Path_10" data-name="Path 10" d="M165.509,71.679c-28-.9-58.469,17.809-68.213,41.443-9.745,23.746,5.04,43.571,33.043,44.468s58.469-17.7,68.213-41.443c9.857-23.858-5.04-43.683-33.043-44.468M203.256,15C131.795,12.875,53.5,60.366,28.634,121.075,3.769,181.672,41.628,232.636,113.2,234.652c71.462,2.128,149.756-45.364,174.51-106.072C312.577,67.983,274.83,17.019,203.256,15" transform="translate(214.257 152.339)" fill="#86868b" fill-rule="evenodd"/>
    </g>
  </g>
</svg>
